<svg xmlns="http://www.w3.org/2000/svg" width="113.764" height="113.764" viewBox="0 0 30.1 30.1" xmlns:v="https://vecta.io/nano"><path d="M1.894 30.037C1.303 29.899.636 29.4.318 28.86c-.343-.584-.329-.169-.327-9.9l.083-9.176c.119-.333.363-.623.684-.812l.284-.167h2.41c2.363 0 2.415.003 2.651.131.133.072.742.635 1.355 1.25l1.16 1.119c.025 0 .046-2.442.046-5.427V.451l.176-.176.176-.176h6.466 6.466l2.577 2.577 2.577 2.577v4.407 4.407l.919.02c.878.02.932.028 1.203.188.321.189.565.479.684.812.065.183.081 1.417.082 6.522l-.061 6.565c-.143.62-.626 1.276-1.18 1.601-.593.348.193.33-13.786.323l-13.07-.061zm24.094-14.454v-9.55l-2.243-.03c-2.234-.03-2.243-.031-2.38-.167s-.137-.146-.167-2.38l-.03-2.243h-5.694H9.78l-.015 11.9.013 11.975c.023.06 1.679.072 8.119.06l8.091-.015zm-9.361 6.712c-2.673-.448-4.995-2.525-5.751-5.146-.338-1.171-.371-2.687-.082-3.8.82-3.164 3.525-5.388 6.714-5.522 2.165-.091 4.035.626 5.53 2.121 1.411 1.411 2.137 3.177 2.137 5.197 0 3.104-2.019 5.89-4.989 6.885-1.044.35-2.437.454-3.558.265zm2.299-4.169c.523-.524.931-.971.908-.994s-.185-.042-.36-.042c-.249 0-.355-.031-.487-.145l-.169-.145-.03-2.973-.03-2.973h-.874-.874l-.03 2.973-.03 2.973-.169.145c-.134.115-.237.145-.497.145-.18 0-.328.02-.328.045 0 .069 1.889 1.944 1.958 1.944.034 0 .489-.428 1.012-.952zM10.619 5.923c-.017-.045-.023-.282-.013-.528l.018-.446h4.85 4.85v.512.512l-4.837.015c-4.015.013-4.842.002-4.868-.066zm1.928-1.928c-.017-.045-.023-.282-.013-.528l.018-.446h2.44 2.44v.512.512l-2.427.016c-1.997.013-2.432.001-2.458-.066zm5.785.001c-.017-.045-.024-.283-.014-.529l.018-.446h.994.994v.512.512l-.98.017c-.785.013-.987 0-1.012-.066zm6.722.847c0-.009-.61-.625-1.356-1.37l-1.356-1.355v1.37 1.37h1.356l1.356-.016z" fill="#9e9fa1"/><path d="M1.857 29.958a2.43 2.43 0 0 1-1.744-1.842C.06 27.868.047 25.53.061 18.837L.079 9.89l.13-.241a1.65 1.65 0 0 1 .683-.671c.193-.103.402-.114 2.462-.13l2.561.084c.272.089.458.248 1.518 1.298l1.25 1.197c.023 0 .042-2.439.042-5.42L8.793.439a.5.5 0 0 1 .214-.214C9.111.178 10.971.159 15.48.159l6.489.086c.127.067 4.97 4.862 5.027 4.977.008.016.028 2.021.045 4.457l.031 4.429.904.032c.767.027.94.051 1.145.16.281.15.513.385.671.682.107.201.113.499.131 6.507l-.052 6.628c-.195.909-.861 1.602-1.774 1.846-.43.115-25.827.111-26.24-.004zm24.191-14.374v-9.61l-2.237-.016-2.237-.016-.157-.157-.157-.157-.016-2.237-.016-2.237h-5.754H9.72l-.015 11.96.013 12.036c.023.06 1.691.072 8.18.06l8.151-.015zm-8.978 6.711c-1.015-.155-1.698-.369-2.521-.792a7.24 7.24 0 0 1-3.838-7.28c.103-.82.31-1.501.695-2.293 1.271-2.61 3.981-4.205 6.864-4.038 5.253.303 8.432 5.867 6.019 10.538-.973 1.885-2.745 3.249-4.839 3.729-.5.114-1.971.198-2.38.136zm1.886-4.138c.573-.573 1.022-1.061.999-1.085s-.21-.042-.416-.042c-.323 0-.395-.021-.532-.158l-.158-.158-.016-2.96-.016-2.96h-.934-.934l-.016 2.96-.016 2.96-.158.158c-.137.137-.209.158-.532.158-.205 0-.392.019-.416.042-.038.038 1.996 2.127 2.071 2.127.017 0 .5-.469 1.072-1.042zM10.679 5.862c-.017-.045-.023-.255-.013-.467l.018-.385h4.79 4.79v.452.452l-4.777.015c-3.985.013-4.782.002-4.808-.067zm1.928-1.928c-.017-.045-.023-.256-.013-.468l.018-.385h2.38 2.38v.452.452l-2.367.016c-1.956.013-2.372.001-2.398-.067zm5.785.001c-.018-.046-.024-.257-.014-.469l.018-.385h.934.934v.452.452l-.92.017c-.739.013-.926 0-.952-.067zm6.843.969c0-.098-2.838-2.938-2.937-2.938-.059 0-.076.329-.076 1.466 0 .806.018 1.484.04 1.506s.7.04 1.506.04c1.128 0 1.466-.017 1.466-.075z" fill="#edac40"/><path d="M1.857 29.958a2.43 2.43 0 0 1-1.744-1.842C.06 27.868.047 25.53.061 18.837L.079 9.89l.13-.241a1.65 1.65 0 0 1 .683-.671c.193-.103.402-.114 2.462-.13l2.561.084c.272.089.458.248 1.518 1.298l1.25 1.197c.023 0 .042-2.439.042-5.42L8.793.439a.5.5 0 0 1 .214-.214C9.111.178 10.971.159 15.48.159l6.489.086c.127.067 4.97 4.862 5.027 4.977.008.016.028 2.021.045 4.457l.031 4.429.904.032c.767.027.94.051 1.145.16.281.15.513.385.671.682.107.201.113.499.131 6.507l-.052 6.628c-.195.909-.861 1.602-1.774 1.846-.43.115-25.827.111-26.24-.004zm26.364-1.151a1.56 1.56 0 0 0 .477-.477l.182-.295.016-6.287.016-6.287-.151-.151c-.147-.147-.171-.151-.89-.134l-.739.017-.03 5.383-.03 5.383-.169.145-.169.145h-8.858-8.858l-.176-.176-.176-.176v-6.494-6.494L7.234 11.47c-.787-.791-1.504-1.477-1.594-1.524-.132-.07-.555-.086-2.217-.086H1.369l-.149.149-.149.149.016 8.934.016 8.934.169.288c.182.309.523.572.839.648.108.026 5.96.043 13.005.038l12.808-.009zm-26.278-.712c-.017-.045-.023-.282-.013-.528l.018-.446h3.404 3.404v.512.512l-3.391.016c-2.804.013-3.396.001-3.422-.066zm7.713.002c-.018-.046-.024-.284-.014-.53l.018-.446h.512.512v.512.512l-.498.018c-.381.013-.506-.002-.53-.066zm16.393-12.514v-9.61l-2.237-.016-2.237-.016-.157-.157-.157-.157-.016-2.237-.016-2.237h-5.754H9.72l-.015 11.96.013 12.036c.023.06 1.691.072 8.18.06l8.151-.015zm-8.978 6.711c-1.015-.155-1.698-.369-2.521-.792a7.24 7.24 0 0 1-3.838-7.28c.103-.82.31-1.501.695-2.293 1.271-2.61 3.981-4.205 6.864-4.038 5.253.303 8.432 5.867 6.019 10.538-.973 1.885-2.745 3.249-4.839 3.729-.5.114-1.971.198-2.38.136zm1.886-4.138c.573-.573 1.022-1.061.999-1.085s-.21-.042-.416-.042c-.323 0-.395-.021-.532-.158l-.158-.158-.016-2.96-.016-2.96h-.934-.934l-.016 2.96-.016 2.96-.158.158c-.137.137-.209.158-.532.158-.205 0-.392.019-.416.042-.038.038 1.996 2.127 2.071 2.127.017 0 .5-.469 1.072-1.042zM10.679 5.862c-.017-.045-.023-.255-.013-.467l.018-.385h4.79 4.79v.452.452l-4.777.015c-3.985.013-4.782.002-4.808-.067zm1.928-1.928c-.017-.045-.023-.256-.013-.468l.018-.385h2.38 2.38v.452.452l-2.367.016c-1.956.013-2.372.001-2.398-.067zm5.785.001c-.018-.046-.024-.257-.014-.469l.018-.385h.934.934v.452.452l-.92.017c-.739.013-.926 0-.952-.067zm6.843.969c0-.098-2.838-2.938-2.937-2.938-.059 0-.076.329-.076 1.466 0 .806.018 1.484.04 1.506s.7.04 1.506.04c1.128 0 1.466-.017 1.466-.075z" fill="#6ac03a"/><path d="M1.857 29.958a2.43 2.43 0 0 1-1.744-1.842C.06 27.868.047 25.53.061 18.837L.079 9.89l.13-.241a1.65 1.65 0 0 1 .683-.671c.193-.103.402-.114 2.462-.13l2.561.084c.272.089.458.248 1.518 1.298l1.25 1.197c.023 0 .042-2.439.042-5.42L8.793.439a.5.5 0 0 1 .214-.214C9.111.178 10.971.159 15.48.159l6.489.086c.127.067 4.97 4.862 5.027 4.977.008.016.028 2.021.045 4.457l.031 4.429.904.032c.767.027.94.051 1.145.16.281.15.513.385.671.682.107.201.113.499.131 6.507l-.052 6.628c-.195.909-.861 1.602-1.774 1.846-.43.115-25.827.111-26.24-.004zm26.364-1.151a1.56 1.56 0 0 0 .477-.477l.182-.295.016-6.287.016-6.287-.151-.151c-.147-.147-.171-.151-.89-.134l-.739.017-.03 5.383-.03 5.383-.169.145-.169.145h-8.858-8.858l-.176-.176-.176-.176v-6.494-6.494L7.234 11.47c-.787-.791-1.504-1.477-1.594-1.524-.132-.07-.555-.086-2.217-.086H1.369l-.149.149-.149.149.016 8.934.016 8.934.169.288c.182.309.523.572.839.648.108.026 5.96.043 13.005.038l12.808-.009zm-26.278-.712c-.017-.045-.023-.282-.013-.528l.018-.446h3.404 3.404v.512.512l-3.391.016c-2.804.013-3.396.001-3.422-.066zm7.713.002c-.018-.046-.024-.284-.014-.53l.018-.446h.512.512v.512.512l-.498.018c-.381.013-.506-.002-.53-.066zm16.393-12.514v-9.61l-2.237-.016-2.237-.016-.157-.157-.157-.157-.016-2.237-.016-2.237h-5.754H9.72l-.015 11.96.013 12.036c.023.06 1.691.072 8.18.06l8.151-.015zm-8.978 6.711c-1.015-.155-1.698-.369-2.521-.792a7.24 7.24 0 0 1-3.838-7.28c.103-.82.31-1.501.695-2.293 1.271-2.61 3.981-4.205 6.864-4.038 5.253.303 8.432 5.867 6.019 10.538-.973 1.885-2.745 3.249-4.839 3.729-.5.114-1.971.198-2.38.136zm1.777-1.261c1.158-.366 2.043-.906 2.862-1.745.844-.865 1.401-1.862 1.723-3.083.184-.697.223-1.941.085-2.708-.268-1.486-.75-2.348-1.775-3.171-2.269-1.822-5.446-1.822-7.72 0-2.267 1.817-2.929 4.996-1.585 7.611 1.232 2.396 4.155 3.808 6.41 3.095zm-1.175-.567c-.066-.03-.933-.869-1.927-1.865-1.768-1.773-1.806-1.817-1.806-2.054a.49.49 0 0 1 .166-.408c.161-.161.187-.166.946-.186l.78-.02.017-2.946.017-2.946.167-.167.167-.167h1.684 1.684l.167.167.167.167.017 2.946.017 2.946.777.02c.721.018.788.03.929.163.187.176.245.412.158.641-.063.166-2.99 3.166-3.443 3.529-.243.194-.499.262-.684.179zm1.283-2.311c.573-.573 1.022-1.061.999-1.085s-.21-.042-.416-.042c-.323 0-.395-.021-.532-.158l-.158-.158-.016-2.96-.016-2.96h-.934-.934l-.016 2.96-.016 2.96-.158.158c-.137.137-.209.158-.532.158-.205 0-.392.019-.416.042-.038.038 1.996 2.127 2.071 2.127.017 0 .5-.469 1.072-1.042zM10.679 5.862c-.017-.045-.023-.255-.013-.467l.018-.385h4.79 4.79v.452.452l-4.777.015c-3.985.013-4.782.002-4.808-.067zm1.928-1.928c-.017-.045-.023-.256-.013-.468l.018-.385h2.38 2.38v.452.452l-2.367.016c-1.956.013-2.372.001-2.398-.067zm5.785.001c-.018-.046-.024-.257-.014-.469l.018-.385h.934.934v.452.452l-.92.017c-.739.013-.926 0-.952-.067zm6.843.969c0-.098-2.838-2.938-2.937-2.938-.059 0-.076.329-.076 1.466 0 .806.018 1.484.04 1.506s.7.04 1.506.04c1.128 0 1.466-.017 1.466-.075z" fill="#5ca932"/><path d="M1.857 29.958a2.43 2.43 0 0 1-1.744-1.842C.06 27.868.047 25.53.061 18.837L.079 9.89l.13-.241a1.65 1.65 0 0 1 .683-.671c.193-.103.402-.114 2.462-.13l2.561.084c.272.089.458.248 1.518 1.298l1.25 1.197c.023 0 .042-2.439.042-5.42L8.793.439a.5.5 0 0 1 .214-.214C9.111.178 10.971.159 15.48.159l6.489.086c.127.067 4.97 4.862 5.027 4.977.008.016.028 2.021.045 4.457l.031 4.429.904.032c.767.027.94.051 1.145.16.281.15.513.385.671.682.107.201.113.499.131 6.507l-.052 6.628c-.195.909-.861 1.602-1.774 1.846-.43.115-25.827.111-26.24-.004zm26.364-1.151a1.56 1.56 0 0 0 .477-.477l.182-.295.016-6.287.016-6.287-.151-.151c-.147-.147-.171-.151-.89-.134l-.739.017-.03 5.383-.03 5.383-.169.145-.169.145h-8.858-8.858l-.176-.176-.176-.176v-6.494-6.494L7.234 11.47c-.787-.791-1.504-1.477-1.594-1.524-.132-.07-.555-.086-2.217-.086H1.369l-.149.149-.149.149.016 8.934.016 8.934.169.288c.182.309.523.572.839.648.108.026 5.96.043 13.005.038l12.808-.009zm-26.278-.712c-.017-.045-.023-.282-.013-.528l.018-.446h3.404 3.404v.512.512l-3.391.016c-2.804.013-3.396.001-3.422-.066zm7.713.002c-.018-.046-.024-.284-.014-.53l.018-.446h.512.512v.512.512l-.498.018c-.381.013-.506-.002-.53-.066zm16.393-12.514v-9.61l-2.237-.016-2.237-.016-.157-.157-.157-.157-.016-2.237-.016-2.237h-5.754H9.72l-.015 11.96.013 12.036c.023.06 1.691.072 8.18.06l8.151-.015zm-8.978 6.711c-1.015-.155-1.698-.369-2.521-.792a7.24 7.24 0 0 1-3.838-7.28c.103-.82.31-1.501.695-2.293 1.271-2.61 3.981-4.205 6.864-4.038 5.253.303 8.432 5.867 6.019 10.538-.973 1.885-2.745 3.249-4.839 3.729-.5.114-1.971.198-2.38.136zm2.027-1.109c1.292-.263 2.192-.753 3.155-1.716 1.193-1.193 1.739-2.425 1.818-4.097.097-2.069-.829-4.057-2.456-5.27-2.754-2.054-6.649-1.489-8.725 1.265-.916 1.216-1.372 2.838-1.213 4.316.299 2.781 2.233 4.942 4.949 5.532.596.129 1.762.116 2.472-.029zm-3.246-2.605c-1.649-1.649-1.824-1.843-1.824-2.021a.48.48 0 0 1 .148-.345c.141-.141.182-.148.892-.148.498 0 .768-.024.816-.072.054-.054.072-.8.072-2.985v-2.913l.148-.148.148-.148h1.632 1.632l.148.148.148.148v2.913c0 2.185.018 2.931.072 2.985.048.048.318.072.816.072.709 0 .751.007.892.148a.48.48 0 0 1 .148.345c0 .179-.174.372-1.824 2.021-1.689 1.689-1.839 1.824-2.032 1.824s-.343-.134-2.032-1.824zm3.105-.423c.573-.573 1.022-1.061.999-1.085s-.21-.042-.416-.042c-.323 0-.395-.021-.532-.158l-.158-.158-.016-2.96-.016-2.96h-.934-.934l-.016 2.96-.016 2.96-.158.158c-.137.137-.209.158-.532.158-.205 0-.392.019-.416.042-.038.038 1.996 2.127 2.071 2.127.017 0 .5-.469 1.072-1.042zM10.679 5.862c-.017-.045-.023-.255-.013-.467l.018-.385h4.79 4.79v.452.452l-4.777.015c-3.985.013-4.782.002-4.808-.067zm1.928-1.928c-.017-.045-.023-.256-.013-.468l.018-.385h2.38 2.38v.452.452l-2.367.016c-1.956.013-2.372.001-2.398-.067zm5.785.001c-.018-.046-.024-.257-.014-.469l.018-.385h.934.934v.452.452l-.92.017c-.739.013-.926 0-.952-.067zm6.843.969c0-.098-2.838-2.938-2.937-2.938-.059 0-.076.329-.076 1.466 0 .806.018 1.484.04 1.506s.7.04 1.506.04c1.128 0 1.466-.017 1.466-.075z" fill="#9b7029"/><path d="M1.857 29.958a2.43 2.43 0 0 1-1.744-1.842C.06 27.868.047 25.53.061 18.837L.079 9.89l.13-.241a1.65 1.65 0 0 1 .683-.671c.193-.103.402-.114 2.462-.13l2.561.084c.272.089.458.248 1.518 1.298l1.25 1.197c.023 0 .042-2.439.042-5.42L8.793.439a.5.5 0 0 1 .214-.214C9.111.178 10.971.159 15.48.159l6.489.086c.127.067 4.97 4.862 5.027 4.977.008.016.028 2.021.045 4.457l.031 4.429.904.032c.767.027.94.051 1.145.16.281.15.513.385.671.682.107.201.113.499.131 6.507l-.052 6.628c-.195.909-.861 1.602-1.774 1.846-.43.115-25.827.111-26.24-.004zm26.309-1.012c.242-.133.538-.429.671-.671.096-.175.105-.664.12-6.533l.016-6.343-.151-.151c-.148-.148-.167-.15-.95-.134l-.799.017-.03 5.383-.03 5.383-.169.145-.169.145h-8.798-8.798l-.176-.176-.176-.176v-6.468-6.468l-1.554-1.55-1.554-1.55H3.463 1.309l-.148.148-.148.148v8.922l.089 9.135c.168.402.48.706.866.845.179.064 2.621.076 13.114.066l13.084-.116zm-26.163-.911c-.017-.045-.023-.256-.013-.467l.018-.385h3.344 3.344v.452.452l-3.331.016c-2.768.013-3.336.002-3.362-.067zm7.713.002c-.018-.046-.024-.258-.014-.47l.018-.385h.452.452v.452.452l-.438.018c-.332.013-.446-.003-.47-.067zm16.332-12.454v-9.61l-2.237-.016-2.237-.016-.157-.157-.157-.157-.016-2.237-.016-2.237h-5.754H9.72l-.015 11.96.013 12.036c.023.06 1.691.072 8.18.06l8.151-.015zm-8.978 6.711c-1.015-.155-1.698-.369-2.521-.792a7.24 7.24 0 0 1-3.838-7.28c.103-.82.31-1.501.695-2.293 1.271-2.61 3.981-4.205 6.864-4.038 5.253.303 8.432 5.867 6.019 10.538-.973 1.885-2.745 3.249-4.839 3.729-.5.114-1.971.198-2.38.136zm2.027-1.109c1.292-.263 2.192-.753 3.155-1.716 1.193-1.193 1.739-2.425 1.818-4.097.097-2.069-.829-4.057-2.456-5.27-2.754-2.054-6.649-1.489-8.725 1.265-.916 1.216-1.372 2.838-1.213 4.316.299 2.781 2.233 4.942 4.949 5.532.596.129 1.762.116 2.472-.029zm-3.246-2.605c-1.649-1.649-1.824-1.843-1.824-2.021a.48.48 0 0 1 .148-.345c.141-.141.182-.148.892-.148.498 0 .768-.024.816-.072.054-.054.072-.8.072-2.985v-2.913l.148-.148.148-.148h1.632 1.632l.148.148.148.148v2.913c0 2.185.018 2.931.072 2.985.048.048.318.072.816.072.709 0 .751.007.892.148a.48.48 0 0 1 .148.345c0 .179-.174.372-1.824 2.021-1.689 1.689-1.839 1.824-2.032 1.824s-.343-.134-2.032-1.824zm3.105-.423c.573-.573 1.022-1.061.999-1.085s-.21-.042-.416-.042c-.323 0-.395-.021-.532-.158l-.158-.158-.016-2.96-.016-2.96h-.934-.934l-.016 2.96-.016 2.96-.158.158c-.137.137-.209.158-.532.158-.205 0-.392.019-.416.042-.038.038 1.996 2.127 2.071 2.127.017 0 .5-.469 1.072-1.042zM10.679 5.862c-.017-.045-.023-.255-.013-.467l.018-.385h4.79 4.79v.452.452l-4.777.015c-3.985.013-4.782.002-4.808-.067zm1.928-1.928c-.017-.045-.023-.256-.013-.468l.018-.385h2.38 2.38v.452.452l-2.367.016c-1.956.013-2.372.001-2.398-.067zm5.785.001c-.018-.046-.024-.257-.014-.469l.018-.385h.934.934v.452.452l-.92.017c-.739.013-.926 0-.952-.067zm6.843.969c0-.098-2.838-2.938-2.937-2.938-.059 0-.076.329-.076 1.466 0 .806.018 1.484.04 1.506s.7.04 1.506.04c1.128 0 1.466-.017 1.466-.075z" fill="#565657"/><path d="M1.98 29.918c-.7-.138-1.426-.746-1.7-1.424l-.141-.349v-9.133V9.88l.182-.295a1.56 1.56 0 0 1 .477-.477l.295-.182h2.355c2.306 0 2.36.003 2.596.131.133.072.756.648 1.385 1.28l1.25 1.149c.1 0 .106-.29.106-5.486V.515l.148-.148.148-.148h6.403 6.403l2.532 2.53 2.532 2.53.03 4.444.03 4.444.94.031c.915.03.948.036 1.234.212a1.56 1.56 0 0 1 .476.476l.182.295v6.482 6.482l-.145.362a2.75 2.75 0 0 1-1.301 1.301l-.362.145-12.894.009c-7.222.005-13.012-.014-13.162-.044zm26.177-.939a1.95 1.95 0 0 0 .731-.743c.107-.201.113-.499.13-6.387l-.048-6.402c-.1-.342-.28-.407-1.131-.407-.475 0-.738.024-.786.072-.055.055-.072 1.342-.072 5.423 0 5.27-.002 5.352-.121 5.471s-.201.121-8.978.121-8.858-.001-8.978-.121-.121-.201-.121-6.61v-6.49L7.22 11.338 5.655 9.769l-2.109-.017c-2.311-.019-2.385-.009-2.525.331-.052.126-.066 2.429-.054 9.056l.128 9.098c.226.426.616.746 1.033.848.099.024 5.942.04 12.984.035l12.804-.009zm-26.12-1.346v-.422h3.314 3.314v.422.422H5.351 2.038zm7.712 0v-.422h.422.422v.422.422h-.422-.422zm16.359-12.051V5.913l-2.272-.03c-2.077-.028-2.282-.039-2.38-.138s-.11-.303-.138-2.38l-.03-2.272h-5.814H9.66l-.015 12.02.013 12.096c.023.06 1.703.072 8.24.06l8.211-.015zm-8.948 6.651c-3.221-.41-5.629-2.606-6.302-5.747-.149-.695-.152-2.068-.006-2.757.538-2.541 2.258-4.535 4.63-5.367.881-.309 1.373-.391 2.37-.392 1.005-.002 1.57.09 2.44.397.656.231.94.377 1.606.822.704.471 1.44 1.212 1.921 1.934.554.833.874 1.595 1.09 2.604.146.682.148 2.062.003 2.745-.707 3.338-3.434 5.653-6.789 5.763-.414.014-.848.013-.964-.002zm2.18-1.039c1.695-.445 3.082-1.467 3.919-2.89 1.469-2.495 1.072-5.622-.973-7.667-.751-.751-1.63-1.264-2.746-1.602-.506-.153-.616-.164-1.657-.164s-1.151.011-1.657.164c-1.131.343-1.995.85-2.776 1.631s-1.289 1.645-1.631 2.776c-.153.506-.164.616-.164 1.657s.011 1.151.164 1.657c.343 1.134.853 2.001 1.631 2.774a6.23 6.23 0 0 0 3.267 1.746c.591.123 2.008.078 2.625-.083zM15.87 18.54c-1.596-1.596-1.802-1.825-1.802-1.992a.48.48 0 0 1 .132-.321c.121-.121.203-.134.942-.152l.81-.02.017-2.976.017-2.976.137-.137c.136-.136.152-.137 1.761-.137s1.625.001 1.761.137l.137.137.017 2.976.017 2.976.806.02c.929.023 1.059.08 1.059.466 0 .204-.106.323-1.793 2.009-1.667 1.667-1.808 1.792-2.004 1.792s-.337-.126-2.013-1.803zm3.143-.32c.572-.571 1.04-1.086 1.04-1.145 0-.091-.059-.106-.415-.106-.319 0-.448-.027-.557-.115l-.142-.115-.03-3.003-.03-3.003h-.994-.994l-.03 3.003-.03 3.003-.142.115c-.109.088-.238.115-.557.115-.354 0-.415.015-.415.105 0 .128 2.041 2.185 2.168 2.185.05 0 .558-.467 1.13-1.039zm-8.274-12.42c-.017-.046-.023-.229-.013-.407l.018-.324h4.73 4.73v.392.392l-4.717.015c-3.957.013-4.722.002-4.748-.067zm1.928-1.928c-.018-.046-.024-.229-.013-.407l.018-.324h2.32 2.32v.392.392l-2.306.016c-1.917.013-2.312.002-2.338-.067zm5.785.001c-.018-.046-.024-.23-.014-.408l.018-.324h.874.874v.392.392l-.86.017c-.692.013-.866 0-.892-.067zm6.904 1.06c0-.138-2.95-3.088-3.088-3.088-.098 0-.106.112-.106 1.557 0 .856.018 1.575.04 1.597s.741.04 1.597.04c1.44 0 1.557-.008 1.557-.105z" fill="#030302"/></svg>