<svg xmlns="http://www.w3.org/2000/svg" width="114.52" height="119.055" viewBox="0 0 30.3 31.5" xmlns:v="https://vecta.io/nano"><path d="M19.08 31.276c-.097-.054-.593-.507-1.81-1.652l-3.013-3.052c-.012-.065-.551-.073-6.755-.093l-7.046-.219c-.239-.217-.222.693-.234-12.795L.213.996.334.809c.24-.369-.9-.335 11.175-.331l10.723.004 1.846 1.831 1.846 1.831v4.158c0 3.667-.008 4.161-.065 4.183-.036.014-.311-.096-.611-.244a6.83 6.83 0 0 0-1.665-.604c-.709-.175-1.245-.228-2.35-.233l-.957-.005-.116.108c-.158.147-.206.248-.176.369l.026.102 1.068.001c1.397.001 1.943.075 2.946.398.613.198 1.285.512 1.934.904.305.184.459.255.489.224.024-.024.055-.125.068-.223s.038-.188.056-.199c.051-.031.514.289.81.56.631.578 1.52 1.799 1.908 2.622.635 1.348.918 2.556.923 3.942.006 1.48-.276 2.733-.924 4.113-1.104 2.351-3.171 3.928-5.88 4.486-.545.112-.643.119-2.068.134l-1.496.017-.017.979c-.014.823-.029 1.001-.092 1.118-.125.233-.443.339-.656.219zm-3.704-5.335l2.81-2.108c.848-.653 1.283-.967 1.426-1.032.119-.054.139-.081.115-.163a.58.58 0 0 0-.384-.335c-.123 0-.179.039-1.675 1.179l-2.183 1.652c-.699.525-1.004.779-1.004.837 0 .1.3.358.38.328.031-.012.263-.173.514-.357zm7.372-.378a7.14 7.14 0 0 0 1.379-.481c1.026-.513 1.95-1.395 2.337-2.229.056-.121.092-.236.08-.256s-.099-.048-.193-.063-.182-.044-.194-.065.055-.278.151-.573c.247-.76.318-1.219.295-1.904-.015-.425-.048-.671-.137-1.015-.121-.463-.436-1.209-.511-1.209-.026 0-.038.919-.031 2.493l.005 2.545c-.008.08-.544.693-.819.938-.749.668-1.75 1.148-2.655 1.273-.186.026-.861.047-1.5.047h-1.163v.235c0 .141.022.249.054.27.168.109 2.41.103 2.902-.008z" fill="#d8e3f7"/><path d="M19.037 31.201c-.118-.075-.986-.883-3.654-3.401l-1.02-1.015a.75.75 0 0 1-.063-.208l-.013-.108-6.778-.022-6.778-.022-.153-.095a.87.87 0 0 1-.249-.266l-.096-.171.001-12.423.001-12.423.097-.176a.92.92 0 0 1 .238-.27C.709.508.72.508 3.246.492L5.891.51c.115.037 13.076.008 15.002-.033.617-.013 1.171-.012 1.23.002.065.016.838.755 1.953 1.868l1.845 1.842v4.109l-.054 4.154c-.04.033-.206-.029-.615-.23-.641-.315-1.126-.485-1.834-.641-.683-.151-1.24-.2-2.265-.2-.822 0-.882.005-.989.09a.54.54 0 0 0-.22.522c.012.103.029.624.038 1.158s.03 1.006.048 1.049c.069.167.243.203.96.203.376 0 .848.02 1.049.044 1.973.237 3.549 1.256 4.463 2.884a5.1 5.1 0 0 1 .72 2.426c.038.518.035.702-.021 1.069-.107.714-.272.98-.659 1.065l-.133.029.104-.466c.213-.955.18-1.903-.097-2.782-.118-.373-.37-.917-.448-.965-.03-.019-.044.794-.044 2.529v2.557l-.182.241c-.695.924-1.71 1.58-2.918 1.886-.387.098-.478.104-1.718.104-1.287 0-1.311-.002-1.358-.091-.027-.05-.038-.152-.025-.227s.028-.588.032-1.141l.008-1.005-.12-.125c-.143-.149-.279-.191-.435-.131-.063.024-.322.205-.575.402l-3.282 2.49c-.495.372-.898.705-.906.749-.017.092.173.308.356.404.069.036.409.33.756.653l.889.824.649.606.613.566c.123.108.517.477.877.82s.689.641.734.662c.159.075.215.005.215-.269 0-.296-.076-.406-.219-.317-.067.042-.083.04-.083-.011 0-.036.05-.068.117-.076.095-.011.123-.042.149-.165.035-.167.01-.302-.056-.302-.024 0-.031.039-.016.086.035.111-.017.206-.069.124-.02-.032-.037-.102-.038-.156-.001-.108-.043-.124-.122-.045-.04.04-.052.035-.052-.022 0-.04.018-.073.04-.073s.047-.063.054-.14c.009-.089.04-.145.086-.154.054-.01.069.013.06.096-.007.06.005.099.025.086s.039.002.042.034c.009.112.113-.4.134-.655.007-.085-.015-.132-.051-.109-.024.015-.032-.002-.017-.04s.043-.056.064-.043.039-.005.039-.041.022-.078.049-.095.45-.027.939-.023c.606.005.869-.007.825-.036-.051-.034-.04-.043.054-.044.065 0 .119-.02.119-.044s-.03-.043-.067-.043-.055-.019-.041-.043-.004-.043-.042-.043-.08.029-.094.065c-.019.051-.07.06-.225.041a3.23 3.23 0 0 0-.362-.021c-.089.002-.162-.017-.162-.041s.034-.045.076-.045c.059-.001.062-.009.017-.038-.038-.024.024-.047.184-.067.174-.022.254-.053.287-.113.024-.046.083-.083.13-.083s.102-.043.127-.108c.036-.095.068-.109.269-.114.125-.003.305-.012.399-.02.115-.01.197.009.251.058.044.04.132.073.196.074.087.001.12.026.13.099.018.128.199.176.304.081.087-.078.179-.024.179.106 0 .04.044.086.097.102.095.029.094.031-.024.074-.099.036-.137.03-.208-.034s-.093-.068-.124-.017c-.021.034-.029.075-.019.092s-.005.042-.035.056c-.062.029.369-.01.522-.048.058-.014.081-.037.055-.054-.086-.053.075-.219.212-.219.168 0 .345-.085.345-.165 0-.036.03-.098.066-.139.054-.06.057-.094.015-.186s-.039-.127.004-.178c.08-.097.131-.081.131.042 0 .076.023.108.08.108.104 0 .309-.177.309-.268s.239-.148.323-.078c.046.038.084.037.16-.003.055-.029.11-.052.121-.05s.03-.004.04-.014-.019-.018-.064-.018c-.073 0-.071-.008.018-.07.107-.075.161-.048.186.091.022.123.141.107.158-.022.012-.086.226-.345.285-.345.008 0 .025.041.037.09.019.072.044.084.124.059.131-.041.177-.117.098-.161-.072-.04-.085-.16-.018-.16.024 0 .056.029.069.065.039.102.102.076.102-.043 0-.067.024-.108.065-.108s.065-.019.065-.043.032-.043.07-.043c.057 0 .06.012.016.065s-.041.065.016.065c.082 0 .092-.09.018-.164-.037-.037-.038-.052-.002-.052.027 0 .077.04.111.088.052.074.09.083.247.058.126-.02.176-.015.157.016-.034.054.138.02.22-.044.092-.072.062-.193-.056-.222-.103-.026-.106-.033-.044-.121s.058-.101-.004-.17c-.08-.089-.049-.208.061-.237.089-.023.189-.304.155-.434-.013-.051.008-.125.049-.174.06-.07.115-.082.307-.068.181.013.24.002.259-.049.017-.045.058-.058.129-.04.127.032.139-.048.017-.113-.184-.098-.044-.257.354-.405.155-.057.224-.064.29-.028.077.041.101.025.201-.133a1.89 1.89 0 0 0 .159-.314 1.25 1.25 0 0 1 .101-.221c.079-.123.486-1.29.557-1.597.152-.654.231-1.8.18-2.591-.015-.237-.011-.458.009-.49.05-.08.069-.039.162.361.097.419.11 1.755.022 2.375-.223 1.574-.888 3.207-1.767 4.334-1.194 1.532-2.821 2.517-4.9 2.969-.499.108-.614.116-2.082.14l-1.554.026-.022 1.015c-.019.875-.032 1.03-.098 1.127-.147.216-.433.272-.658.129zm3.301-3.089c.043-.052.033-.068-.056-.09-.06-.015-.144-.007-.187.017-.073.041-.07.048.029.088.146.058.154.058.214-.014zm2.813-.701c.052-.064.05-.069-.014-.046-.04.015-.08.005-.089-.021-.022-.065-.119-.001-.119.077 0 .086.149.078.221-.011zM6.042 1.537c-.012-.02.022-.092.076-.159.127-.158.109-.317-.036-.317-.1 0-.105.012-.105.283 0 .181.016.273.044.256s.034-.044.021-.064zm14.123 26.431c-.012-.019-.004-.062.016-.095.032-.052.05-.05.116.008.043.038.117.079.165.09s.005.023-.095.026-.191-.01-.202-.029zm-.342-.056c.034-.034.07-.035.127-.001.07.041.064.046-.048.048-.093.001-.114-.012-.08-.046zm1.164-.283c-.048-.048-.032-.101.031-.101.033 0 .071.029.085.065.025.065-.061.091-.116.036zm2.475-.101c-.055-.036-.054-.042.011-.043.042 0 .076.019.076.043 0 .053-.005.053-.086 0zm3.189-1.603c.051-.137.147-.161.129-.032-.008.056-.048.108-.09.116-.062.012-.069-.003-.039-.084zm1.043-1.506c0-.024.038-.043.084-.043s.096.019.11.043-.021.043-.084.043-.11-.019-.11-.043z" fill="#cbd9f4"/><path d="M19.032 31.145c-.19-.146-2.968-2.75-4.069-3.815-.492-.475-.581-.582-.604-.722l-.027-.164-6.792-.018-6.792-.018-.146-.09a.83.83 0 0 1-.23-.228c-.083-.136-.085-.326-.099-12.594L.327.91C.429.725.586.591.756.542.844.517 1.894.5 3.368.5 6.21.5 5.997.467 5.928.9c-.023.144-.035 2.262-.028 5.016l.012 4.767.091.122a.96.96 0 0 0 .237.208c.145.085.224.086 6.561.086h6.415l.159-.108c.088-.06.203-.195.256-.302l.097-.194.012-4.749-.027-4.931C19.646.499 19.643.5 21.004.5h1.183l1.847 1.845L25.88 4.19V8.3l-.041 4.136c-.022.014-.299-.1-.615-.253-1.262-.611-2.438-.846-4.223-.846-.688 0-.841.041-1.008.268-.081.111-.085.179-.076 1.336.006.68.029 1.254.052 1.297.11.205.218.228 1.246.255.753.02 1.073.047 1.414.119 1.117.236 2.13.775 2.884 1.536.816.824 1.381 1.902 1.553 2.964.067.41.083 1.266.028 1.463-.026.093-.287.298-.325.255-.008-.009-.035-.337-.06-.728-.057-.876-.181-1.391-.492-2.04-.122-.255-.236-.464-.253-.464s-.043.032-.058.071-.026 1.208-.024 2.597l.003 2.527-.104.146c-.67.941-1.772 1.674-2.953 1.963-.347.085-.489.092-1.662.089-.706-.002-1.305-.017-1.332-.034-.036-.022-.041-.332-.02-1.158.027-1.057.024-1.137-.053-1.279-.098-.18-.344-.318-.5-.278-.103.026-.357.214-2.596 1.919l-1.522 1.145c-.852.628-.881.692-.473 1.016.236.188.416.354 2.916 2.696.862.807 1.633 1.507 1.714 1.554l.146.086.097-.096c.089-.089.1-.154.131-.799.019-.386.043-.722.053-.746.035-.086.02 1.646-.016 1.834-.069.357-.404.503-.676.294zm.675-2.371a2.65 2.65 0 0 1 .027-.352l.027-.163 1.387.008c1.527.009 1.794-.017 2.747-.27 1.56-.414 2.776-1.118 3.844-2.224.765-.793 1.263-1.579 1.681-2.649.36-.923.511-1.619.625-2.872l.051-.561.035.336c.078.744-.12 2.11-.45 3.102-.643 1.937-1.663 3.319-3.206 4.341-.957.635-1.9 1.013-3.163 1.27-.424.086-.636.099-1.986.115-.957.011-1.531.034-1.565.063-.042.035-.054.003-.054-.144zM8.075 9.801c-.015-.038-.026-1.716-.026-3.73 0-3.042.01-3.669.059-3.71.042-.035.563-.046 1.846-.038l1.787.011v3.756 3.756l-1.819.011c-1.631.01-1.822.004-1.846-.058zM17.72.745c-.012-.012-.235-.034-.495-.049s-.482-.037-.493-.047.377-.017.862-.014c.577.004.814.017.687.039-.481.084-.541.091-.561.071zM12.863.672c-.016-.026.044-.043.151-.043s.167.017.151.043-.083.043-.151.043-.136-.019-.151-.043zm1.803-.031a.77.77 0 0 1 .216.001c.053.01-.001.018-.119.018S14.6.651 14.666.641zm.366.002c.03-.012.078-.012.108 0s.005.022-.054.022-.084-.01-.054-.022zM19.35.642c.053-.01.141-.01.194 0s.01.019-.097.019-.151-.008-.097-.019z" fill="#95acd9"/><path d="M2.652 26.363c-2.145-.025-2.08-.016-2.243-.282-.077-.125-.08-.562-.095-12.586L.299 1.039.397.882C.606.545.425.566 3.289.552 5.345.543 5.847.551 5.848.596a6085.68 6085.68 0 0 1 .011 5.085c.009 4.864.012 5.034.092 5.151.045.067.162.164.259.216l.177.095 6.325.013 6.485-.034c.088-.025.222-.098.297-.162.294-.247.274.103.298-5.409l.022-4.987 1.184-.012 1.184-.012 1.827 1.824 1.827 1.824v4.114l-.016 4.114c-.009 0-.276-.124-.594-.276-1.004-.48-1.921-.721-3.053-.803-.779-.056-1.741-.055-1.894.003a.74.74 0 0 0-.399.404c-.023.073-.048.757-.055 1.519-.014 1.501-.009 1.535.22 1.67.095.056.297.074 1.022.092 1.346.034 1.976.171 2.825.616.763.4 1.389.92 1.86 1.546.153.204.16.227.125.41-.02.107-.035 1.315-.032 2.686l.005 2.491-.126.183a6.01 6.01 0 0 1-1.242 1.18 5.5 5.5 0 0 1-1.563.696c-.384.102-.435.105-1.708.094l-1.312-.011-.022-1.187c-.024-1.305-.033-1.35-.306-1.492s-.365-.101-1.234.567l-2.978 2.263c-.561.42-.926.723-.947.784-.018.055-.035.188-.036.294-.003.191-.005.194-.176.224-.19.034-8.424.029-11.549-.007zM8.118 9.758c-.015-.038-.026-1.697-.026-3.687 0-3.006.01-3.626.059-3.667.042-.035.551-.046 1.803-.038l1.744.011v3.713 3.713l-1.776.011c-1.592.01-1.779.004-1.803-.058z" fill="#7a99e2"/><path d="M2.652 26.363c-2.144-.025-2.08-.017-2.244-.282-.077-.125-.081-.546-.095-12.586L.299 1.039.397.882C.606.545.425.566 3.289.552L5.847.54v5.068 5.068l.097.147a.9.9 0 0 0 .3.247l.202.101 6.274.007 6.437-.027a.97.97 0 0 0 .541-.436c.067-.123.075-.536.095-5.142l.022-5.008 1.184-.012 1.184-.012 1.827 1.824 1.827 1.824v4.114l-.016 4.114c-.009 0-.276-.124-.594-.276-1.279-.612-2.445-.846-4.213-.846-.638 0-.788.029-.957.186-.221.205-.239.296-.229 1.12.006.472-.008.799-.036.851-.045.084-.141.085-7.568.097l-7.674.101c-.083.049-.2.175-.259.281l-.108.192-.012 5.776.043 5.796c.03.011 2.328.026 5.107.032l5.051.011-.014.281c-.008.154-.033.3-.056.324-.046.047-8.2.063-11.652.023zm19.638-1.458c-.004-.018-.009-1.757-.011-3.866-.003-3.298-.013-3.839-.067-3.872-.126-.078-.646-.144-1.341-.171-1.069-.041-1.055-.025-1.061-1.188-.002-.453.003-.837.012-.854s.1.015.204.069c.179.095.242.101 1.348.123 1.088.022 1.184.03 1.549.137 1.018.297 2.072.992 2.672 1.76l.254.325v2.705l-.001 2.705-.124.18c-.224.324-.851.92-1.239 1.176-.21.139-.558.328-.773.421-.601.259-1.399.454-1.421.347zM8.162 9.791c-.044-.071-.044-7.349 0-7.393.028-.028.668-.039 1.789-.032l1.746.011.012 3.627-.012 3.724-.023.097H9.929c-.96 0-1.755-.015-1.766-.034z" fill="#5066a1"/><path d="M1.875 26.32c-1.279-.025-1.303-.029-1.442-.265-.065-.11-.07-1.13-.07-12.562L.439.919C.481.848.57.749.637.699.757.609.794.608 3.281.596L5.803.583l.011 5.085.011 5.085.096.135c.053.074.189.181.302.237l.206.102h6.368 6.368l.181-.097c.207-.111.387-.326.446-.534.024-.084.052-2.166.067-5.067l.026-4.923 1.129-.011 1.129-.011 1.824 1.822 1.824 1.822v4.072 4.072l-.424-.213c-1.328-.666-2.472-.908-4.305-.91-.633-.001-.709.008-.885.096-.151.076-.218.148-.313.335-.119.235-.12.245-.112.985.004.419-.01.765-.032.788s-2.963.045-7.576.052l-7.536.011-.152.116a.96.96 0 0 0-.234.281c-.078.156-.083.348-.103 3.942v5.85l.022 2.072 5.109.011 5.109.011-.031.248c-.017.136-.052.262-.079.28-.053.035-10.488.028-12.375-.009zm20.465-4.799l-.029-4.848-.029-1.464.196.027c.319.044.978.272 1.388.481.682.348 1.253.812 1.718 1.396l.25.314-.011 2.669c-.01 2.4-.018 2.68-.082 2.778-.174.265-.631.747-.955 1.007-.56.449-1.593.911-2.226.995l-.22.029zM8.169 6.415l-.011-3.681-.001-.313h1.749 1.749v3.67 3.67l-1.738.011-1.738.011z" fill="#304571"/><path d="M.767 26.271c-.126-.036-.36-.257-.36-.34 0-.019.092-.049.205-.067.196-.03 13.657-.033 13.687-.003.008.008.001.114-.015.236l-.029.221-6.676-.004-6.813-.043zm21.65-2.316c.007-.493.023-.944.037-1.004l.025-.108.037.097c.02.053.057.097.082.097s.045.04.045.089-.019.077-.043.062c-.065-.04-.049.118.022.212.06.08.063.079.099-.018.025-.067.048-.083.069-.049.017.028.05.04.072.026s.04.001.041.032c0 .041.012.039.043-.008.055-.085.055-.259 0-.259-.024 0-.043-.017-.043-.037s.05-.028.11-.016c.131.025.398-.107.432-.214.013-.041.05-.064.082-.052s.071.002.087-.024.087-.046.158-.046c.162 0 .297-.069.297-.153 0-.035.028-.063.063-.063s.084-.039.109-.086.075-.086.109-.086c.08 0 .079-.022-.005-.15-.062-.095-.062-.11.011-.182.045-.045.141-.079.225-.079s.159-.026.177-.065.053-.108.08-.161a.45.45 0 0 0 .05-.162c0-.037.038-.065.086-.065s.086.019.086.043.019.043.043.043.043-.027.043-.059.042-.112.094-.178c.076-.097.084-.134.043-.2-.028-.044-.05-.115-.049-.157.001-.072.004-.072.059-.001.063.082.199.103.199.03 0-.025-.03-.104-.068-.176-.041-.08-.062-.209-.054-.332.008-.115-.005-.202-.03-.202s-.045.039-.048.086c-.012.212-.019.241-.06.216-.024-.015-.043-.073-.043-.13s-.019-.114-.041-.128-.075-.137-.117-.272-.11-.282-.153-.324c-.091-.091-.098-.144-.024-.178.03-.014.01-.014-.043-.001-.082.02-.097.007-.097-.087s-.019-.111-.127-.111-.126-.014-.119-.119-.006-.117-.108-.107c-.081.008-.131-.015-.163-.076-.026-.048-.075-.088-.109-.088s-.078-.063-.098-.139c-.03-.114-.065-.146-.196-.177-.088-.021-.159-.061-.159-.09 0-.098-.25-.245-.367-.216-.067.017-.108.009-.108-.021s.029-.048.065-.048.065-.018.065-.041c0-.063-.077-.096-.108-.046-.018.03-.054.03-.108.001-.116-.062-.13-.056-.13.065 0 .148-.083.136-.143-.022-.027-.071-.063-.13-.08-.13-.071 0-.166.203-.166.355 0 .113-.019.163-.062.163-.067 0-.088-.356-.136-2.364l-.024-1.004h.102c.178 0 .862.217 1.237.392a5.56 5.56 0 0 1 1.903 1.484l.218.274-.015 2.684-.015 2.684-.151.202c-.67.896-1.489 1.44-2.643 1.757-.626.172-.568.255-.554-.788zm2.749-1.195c-.09-.066-.131-.059-.086.015.016.025.06.046.099.046.059 0 .057-.01-.013-.061zm-.58-.603c0-.073-.105-.166-.144-.127-.064.064-.026.187.058.187.047 0 .086-.027.086-.059zM1.746 24.382c-.248-.133-.401-.359-.423-.627-.025-.299.044-.504.234-.693.244-.244.586-.302.909-.156.195.088.358.3.445.578.099.314-.117.751-.448.908-.199.094-.532.09-.718-.01zm22.407-2.338c0-.024.019-.043.043-.043s.043.019.043.043-.019.043-.043.043-.043-.019-.043-.043zm.093-.328c.02-.102.209-.14.209-.042 0 .037-.018.068-.04.068a.42.42 0 0 0-.112.028c-.055.021-.069.008-.057-.054zm.252.004c0-.04.021-.065.046-.056s.046.034.046.056-.021.048-.046.056-.046-.017-.046-.056zm.173-.645c0-.037.019-.067.043-.067s.043.018.043.041-.019.053-.043.067-.043-.004-.043-.041zm-2.245-.931c0-.095.017-.173.038-.173.047 0 .091.21.061.289-.044.115-.099.051-.099-.116zM3.978 17.511c-.019-.154-.051-1.037-.071-1.962-.031-1.431-.027-1.713.027-1.895.085-.285.362-.581.596-.635.102-.023 3.098-.042 7.275-.045l7.484-.034c.44-.034.475-.01.452.308l-.013.182-7.559.022-7.559.022-.154.118c-.085.065-.2.191-.255.281-.099.159-.102.197-.133 1.588l-.043 1.878-.012.453zm21.72-5.257a.86.86 0 0 1 .013-.227l.027-.194.006.227c.006.209-.01.275-.046.194zm-.403-.204c-.07-.053-.073-.064-.014-.065.039-.001.094.028.124.063.069.083-.001.084-.11.001zm-.645-.282c-.082-.035-.082-.037.011-.04.053-.002.097.016.097.04s-.005.042-.011.04a2.21 2.21 0 0 1-.097-.04zM3.578 9.448c-.036-.13-.04-.451-.066-5.22-.017-3.06-.014-3.249.059-3.329.042-.047.065-.115.051-.151s-.008-.077.013-.09.503-.027 1.072-.03L5.739.621l-.011.619c-.006.341-.028.677-.049.749-.045.155-.068.105-.12-.259-.034-.239-.045-.258-.14-.248-.057.006-.126-.02-.154-.058-.043-.058-.078-.062-.22-.023s-.194.034-.325-.035c-.101-.053-.178-.068-.217-.043-.101.064-.169.045-.169-.048 0-.105-.115-.16-.186-.089-.128.128-.162.545-.222 2.746L3.843 7.58c-.021 1.269-.059 1.823-.133 1.944-.046.075-.097.046-.131-.076zM4.876 1.32c.015-.024.007-.043-.016-.043s-.055.019-.07.043-.007.043.016.043.055-.019.07-.043zm6.678 3.856c-.004-.076-.027-.15-.05-.164s-.043-.064-.043-.11.019-.084.043-.084.043-.029.043-.065-.017-.065-.038-.065-.046-.292-.054-.649c-.01-.405-.034-.661-.063-.68s-.072-.077-.101-.134c-.043-.082-.063-.091-.096-.043-.029.043-.033.032-.014-.038s.006-.106-.045-.125a.74.74 0 0 1-.177-.125c-.134-.124-.267-.146-.901-.147-1.701-.003-1.6-.022-1.64.309a9.21 9.21 0 0 0-.041.574c-.014.344-.094.926-.134.965-.011.011-.021-.25-.021-.58s-.013-.819-.028-1.087l-.028-.486h1.734 1.734l-.005.874c-.005.821-.058 2.161-.074 1.859zM1.459 4.767c-.121-.058-.177-.18-.211-.453-.026-.212-.02-.231.127-.394.141-.156.288-.508.387-.926.015-.065.069-.14.12-.167.102-.055.142-.013.233.245.026.073.142.274.257.446.153.227.219.374.242.536.049.345.043.654-.014.711-.065.065-1.008.066-1.141.001zM19.922.697c0-.037.019-.067.043-.067s.043.018.043.041-.019.053-.043.067-.043-.004-.043-.041z" fill="#24355b"/></svg>