<svg xmlns="http://www.w3.org/2000/svg" width="60" height="43" viewBox="0 0 15.875 11.377"><g style="display:inline"><path d="M284.5 429.874C195.15 423 111.67 375.716 54.32 299.5c-10.858-14.432-43.765-65.365-51.122-79.128-.998-1.866.224-4.391 9.913-20.5 30.569-50.82 56.193-83.98 86.267-111.637C172.284 21.187 273.586-7.14 367.886 13.148c77.64 16.706 143.945 61.94 196.126 133.799 17.872 24.613 45.652 69.88 44.587 72.656-1.428 3.722-20.711 35.088-32.212 52.397-32.356 48.696-62.826 80.207-104.085 107.64-45.736 30.41-96.185 47.302-150.302 50.325-20.34 1.137-21.585 1.134-37.5-.09m47.526-47.913c24.756-3.035 53.044-10.718 75.55-20.517 9.495-4.135 15.345-7.254 32.172-17.151 23.636-13.903 50.434-37.62 70.502-62.398 1.512-1.867 5.646-6.929 9.187-11.248s9.442-12.293 13.113-17.72l6.674-9.868-6.242-13.28c-12.73-27.082-11.38-24.635-25.27-45.779-21.547-32.8-44.748-55.71-80.212-79.206-5.5-3.644-12.475-8.762-15.5-11.375s-9.55-7.422-14.5-10.69c-50.036-33.024-109.783-37.161-163-11.287-14.015 6.814-24.523 13.464-33.946 21.48-3.27 2.783-12.273 9.275-20.005 14.427-7.733 5.151-17.433 12.058-21.555 15.349-21.919 17.495-42.015 40.264-58.96 66.802-6.705 10.502-21.166 38.017-25.05 47.661l-2.278 5.661 2.56 4.368c5.955 10.162 26.18 35.885 40.647 51.695 14.789 16.162 46.782 41.409 64.114 50.593 24.919 13.204 48.322 22.371 67.973 26.623 5.225 1.131 11.525 2.492 14 3.025 17.064 3.673 51.74 5.077 70.026 2.835m-42.506-45.004c-44.012-6.938-81.83-38.137-95.88-79.099-4.962-14.464-5.974-21.134-5.971-39.358.002-15.085.292-18.08 2.567-26.585 6.359-23.763 15.541-39.933 32.542-57.306 38.81-39.658 101.364-46.009 148.19-15.045 22.483 14.867 38.478 35.672 47.17 61.354 4.313 12.744 5.862 22.73 5.862 37.785 0 28.173-8.61 52.943-26 74.797-16.121 20.26-41.06 35.745-67 41.604-9.928 2.242-32.59 3.255-41.48 1.853m69.252-133.644c5.197-2.158 10.8-7.89 13.228-13.535 5.29-12.295-1.013-28.137-13.218-33.227-5.088-2.122-15.278-1.964-20.282.315-4.625 2.106-11.065 8.849-13.097 13.712-1.861 4.455-1.784 14.57.146 19.204 1.785 4.286 7.664 10.707 11.777 12.866 6.18 3.241 14.612 3.503 21.446.665M147.08 290.417c.048-1.165.285-1.402.604-.604.289.721.253 1.584-.079 1.916s-.568-.258-.525-1.312m-1.536-6.348c-.317-.512-.118-1.213.44-1.559.56-.345 1.017.073 1.017.931 0 1.757-.6 2.015-1.457.628M474 241.441c0-.857.457-1.276 1.016-.93.56.345.758 1.046.441 1.558-.857 1.387-1.457 1.129-1.457-.628m-356-.5c0-.582.45-.78 1-.441.55.34 1 .816 1 1.059s-.45.441-1 .441-1-.477-1-1.059" style="fill:#cad4e6" transform="matrix(.0262 0 0 .0262 -.022 -.058)"/><path d="M280 428.852c-38.877-3.583-76.44-14.617-111.5-32.752-51.54-26.66-93.099-64.983-129.156-119.1C29.462 262.168 3 219.548 3 218.464c0-1.02 20.164-34.178 29.471-48.464 29.143-44.73 56.454-74.861 92.062-101.572C200.49 11.452 297.388-6.961 386.746 18.603c53.9 15.42 100.937 44.116 141.559 86.364 15.082 15.686 25.732 28.803 40.622 50.033C581.16 172.444 608 216.049 608 218.483c0 .874-4.126 8.435-9.168 16.803-19.55 32.44-34.435 54.331-51.144 75.214-10.587 13.23-37.446 39.926-51.188 50.876-57.212 45.588-124.108 69.203-194 68.486-7.15-.074-17.275-.528-22.5-1.01m65.397-47.777c56.08-9.859 104.258-34.86 144.669-75.075 18.68-18.59 40.266-45.645 48.669-61 1.956-3.575 6.19-10.627 9.41-15.67 3.22-5.045 5.855-9.691 5.855-10.326 0-2.706-16.33-28.628-29.163-46.293-23.85-32.83-49.006-57.141-80.418-77.718-4.355-2.853-15.344-8.876-24.419-13.385-28.887-14.35-56.977-22.814-88.5-26.665-11.686-1.428-43.943-1.09-55 .575-63.727 9.599-113.43 34.594-158.467 79.69-17.214 17.238-45.06 54.102-55.592 73.598-1.394 2.582-3.252 5.839-4.127 7.237-1.547 2.472-1.432 2.792 4.061 11.308 3.11 4.82 6.952 11.326 8.538 14.457 3.93 7.756 15.802 24.519 28.016 39.556 26.887 33.103 58.338 58.433 94.571 76.168 30.647 15 54.198 21.663 91.5 25.89 1.925.217 13.625.25 26 .07 17.214-.249 25.295-.817 34.397-2.417m-60.372-45.598c-17.162-3.258-35.84-11.456-49.498-21.727-24.174-18.177-40.964-45.377-46.064-74.621-1.877-10.763-1.874-29.526.007-40.248 7.316-41.716 37.83-77.798 77.53-91.676 13.364-4.672 23.276-6.31 38.186-6.311 30.366-.002 55.31 9.268 78.814 29.292 17.956 15.296 32.69 41.312 38.128 67.314 1.932 9.24 1.653 34.338-.491 44.296-8.247 38.29-33.689 69.942-68.602 85.349-15.432 6.81-26.095 9.069-44.535 9.434-10.88.216-18.392-.137-23.475-1.102zM359.8 203.412C368.566 199.044 375 189.133 375 180c0-8.622-6.454-19.079-14.357-23.261-5.801-3.07-17.452-3.097-23.143-.053-11.591 6.199-16.997 19.093-13.29 31.698 1.508 5.122 10.836 14.76 15.79 16.314 6.498 2.038 14.124 1.543 19.801-1.286" style="fill:#b1cbed" transform="matrix(.0262 0 0 .0262 -.022 -.058)"/><path d="M273 427.562c-59.143-7.596-110.322-29.052-155.906-65.362-29.406-23.423-52.49-48.717-75.182-82.38C29.387 261.242 4 220.092 4 218.37c0-1.502 18.649-32.367 30.693-50.8C73.872 107.61 118.443 66.212 172.5 39.576 215.444 18.416 259.482 8 306 8c63.164 0 120.552 18.534 174.5 56.357 17.021 11.933 29.757 22.997 47.5 41.263 22.714 23.384 42.114 49.688 66.853 90.645 7.23 11.971 13.147 21.997 13.147 22.279 0 .706-18.698 31.506-27.292 44.956-40.416 63.256-85.364 105.766-141.663 133.977-28.021 14.042-59.641 24.13-91.045 29.05-14.43 2.26-60.51 2.896-75 1.035m67-45.01c55.951-7.456 109.365-34.664 152.063-77.46 19.99-20.036 35.867-40.87 56.335-73.923l7.636-12.331-7.663-12.8c-19.921-33.272-45.062-64.867-67.018-84.225-33.73-29.738-67.012-47.973-109.853-60.189-22.484-6.41-36.44-8.106-66.5-8.08-28.444.025-35.93.9-60.5 7.064-25.673 6.442-59.612 21.25-79.995 34.905-34.35 23.01-63.77 52.908-88.55 89.987C66.665 199.398 56 216.933 56 218.306c0 .577 3.204 6.256 7.121 12.621 27.812 45.2 50.132 71.722 81.105 96.38 41.545 33.075 94.353 53.97 144.274 57.087 10.696.667 40.724-.407 51.5-1.842m-47.74-46.607c-50.166-6.159-91.642-44.289-101.642-93.445-11.559-56.813 21.497-115.39 75.882-134.47 23.758-8.334 48.09-9.141 71.456-2.37 32.074 9.295 59.188 32.095 73.538 61.84 15.498 32.122 15.397 71.566-.263 103-16.339 32.796-47.25 56.665-82.731 63.883-9.296 1.891-27.252 2.665-36.24 1.562m66.578-131.543c5.766-2.373 10.948-7.265 13.739-12.97 2.372-4.849 2.628-6.336 2.21-12.852-.982-15.304-10.984-24.723-26.253-24.723-9.61 0-18.603 5.626-22.955 14.361-2.044 4.1-2.579 6.648-2.579 12.273 0 6.23.397 7.76 3.25 12.514 7.013 11.689 20.457 16.39 32.588 11.397" style="fill:#8fb3e6" transform="matrix(.0262 0 0 .0262 -.022 -.058)"/><path d="M285.035 427.891c-70.678-5.075-137.986-35.777-192.09-87.621-10.784-10.335-27.91-29.62-37.09-41.77C42.674 281.053 5 221.736 5 218.426c0-3.482 32.192-54.59 46.88-74.426C86.106 97.778 126.864 62.788 172.5 40.454c74.58-36.5 151.63-41.877 228.946-15.979C456.738 42.997 509.078 80.37 548.532 129.5c10.373 12.917 25.67 34.718 36.138 51.5 11.81 18.935 22.33 36.597 22.33 37.49 0 2.758-35.775 59-48.032 75.51-53.465 72.019-124.272 116.948-206.444 130.996-6.318 1.08-20.158 2.418-30.756 2.974-21.047 1.104-20.232 1.106-36.733-.079m61.465-45.284c29.678-5.392 57.76-15.08 81-27.942 48.401-26.788 84.674-63.238 120.377-120.964l9.154-14.8-4.18-7.2c-22.69-39.096-49.26-72.225-76.851-95.824-36.688-31.379-82.72-52.917-130.5-61.06-11.177-1.905-16.785-2.22-40-2.242-23.963-.024-28.35.229-39 2.245-25.44 4.818-45.172 10.798-66 20.002-47.01 20.774-89.666 57.927-123.624 107.678C66.413 197.829 55 216.492 55 218.273c0 1.764 18.567 31.564 27.244 43.727 49.204 68.967 114.443 110.92 188.85 121.44 14.397 2.036 62.542 1.504 75.406-.833m-54-47.296c-9.648-1.25-20.204-3.956-28.872-7.401-63.662-25.3-92.32-97.615-63.134-159.307 10.416-22.016 31.176-43.301 53.006-54.348 39.407-19.94 86.957-15.552 122.78 11.333C398 141.891 413.982 166.838 420.106 194c3.392 15.048 2.89 37.946-1.175 53.576-5.626 21.628-14.544 37.028-30.936 53.42-19.837 19.837-40.376 30.169-67.463 33.936-7.32 1.018-21.613 1.212-28.033.38m65.73-130.296c15.725-5.883 22.215-23.664 13.985-38.318-8.632-15.369-28.61-18.487-41.048-6.406-5.64 5.48-8.267 10.723-8.907 17.783-1.769 19.5 17.428 33.879 35.97 26.941" style="fill:#6091dc" transform="matrix(.0262 0 0 .0262 -.022 -.058)"/><path d="M287 426.94c-59.855-3.783-119.917-27.075-167.31-64.884-35.612-28.41-58.467-54.5-87.116-99.447C18.27 240.168 6 219.7 6 218.283c0-1.475 22.029-37.869 31.344-51.783C69.355 118.685 100.217 86.69 140 60.074 193.041 24.59 262.708 5.504 323 9.94c57.972 4.265 107.848 21.792 154.5 54.297 36.95 25.744 65.206 55.536 95.834 101.04 9.562 14.208 32.666 51.856 32.666 53.23 0 .758-13.014 22.374-23.778 39.494-35.43 56.351-71.187 93.87-117.441 123.228-33.397 21.196-74.544 36.711-114.506 43.175-15.167 2.453-45.42 3.666-63.275 2.538m52.006-42.414c28.985-3.42 64.634-15.15 90.494-29.776 47.766-27.016 83.037-62.604 119.222-120.292 4.5-7.173 8.462-13.774 8.805-14.669 1.355-3.53-28.403-48.83-44.86-68.289C467.86 98.522 412.315 65.674 347.5 53.827c-10.572-1.932-15.57-2.199-42-2.243l-30-.05-17.793 3.77c-74.81 15.845-133.883 56.766-180.942 125.342-8.307 12.105-21.953 33.793-23.03 36.6-.47 1.226 3.104 7.646 11.966 21.5 18.707 29.246 30.865 45.202 48.842 64.1 41.58 43.707 99.034 73.685 156.457 81.633 13.38 1.852 52.478 1.879 68.006.047M288 333.51c-27.648-4.735-52.38-18.415-69.287-38.325-31.358-36.929-37.506-86.587-15.92-128.6 12.713-24.745 35.927-46.161 60.167-55.51 24.597-9.485 50.618-10.7 75.54-3.525 30.348 8.736 56.4 30.45 70.788 59.003 3.782 7.505 9.277 23.983 10.655 31.947 1.548 8.953 1.609 31.08.108 39.5-4.257 23.887-15.287 45.305-31.99 62.116-9.753 9.815-25.931 20.978-37.208 25.673-19.659 8.184-43.24 11.08-62.853 7.721m72.191-128.47c2.507-1.178 6.619-4.117 9.138-6.53 12.699-12.168 8.612-35.044-7.829-43.82-5.382-2.874-18.192-3.055-24.025-.34-5.68 2.643-13.174 11.806-15.114 18.48-6.442 22.158 16.913 42.042 37.83 32.21" style="fill:#2971e6" transform="matrix(.0262 0 0 .0262 -.022 -.058)"/><path d="M289.5 427.063c-7.597-.44-3.391-.717 17.5-1.158 27.309-.575 44.22-2.228 55.5-5.425 2.75-.779 6.575-1.675 8.5-1.99 9.557-1.568 30.594-8.036 44-13.529 12.91-5.289 35.965-16.762 42.1-20.949 3.232-2.207 6.17-4.012 6.528-4.012 1.061 0 17.564-11.026 21.542-14.394 2.019-1.708 6.03-4.906 8.913-7.106 14.842-11.326 39.438-36.122 54.05-54.49 7.741-9.733 19.867-26.28 19.867-27.113 0-.887 3.367-6.024 6.898-10.522 3.646-4.646 13.075-19.776 13.09-21.003.006-.62.653-1.659 1.436-2.31.784-.65 2.849-4.134 4.59-7.743s4.736-8.75 6.657-11.425l3.494-4.862-3.226-5.766c-2.66-4.756-7.732-13.398-16.271-27.725-4.46-7.484-11.699-18.233-13.865-20.589-.933-1.015-2.458-3.332-3.388-5.149s-3.337-5.328-5.349-7.803-4.374-5.646-5.25-7.046c-1.63-2.601-8.898-11.904-15.583-19.942-11.498-13.825-31.555-34.078-39.496-39.882-3.17-2.316-8.083-6.273-10.919-8.792s-7.443-6.082-10.237-7.918-6.206-4.246-7.581-5.357-2.997-2.029-3.604-2.04c-.607-.013-2.236-1.036-3.619-2.273s-4.037-3.144-5.896-4.237c-9.786-5.75-21.002-11.87-25.881-14.12-3.025-1.395-7.835-3.63-10.688-4.965S417.658 33 417.089 33c-.57 0-2.96-.864-5.312-1.92-7.63-3.423-35.05-11.867-43.777-13.48a6730 6730 0 0 0-17-3.116c-14.579-2.648-47.288-3.99-65-2.668-23.694 1.769-46.906 5.957-64 11.548-46.502 15.21-77.14 31.945-110.801 60.52C94.938 97.69 76.98 115.72 68.926 126.332a806 806 0 0 1-7.426 9.631c-9.187 11.639-15.927 20.633-18.308 24.431a766 766 0 0 1-6.558 10.2c-9.653 14.75-14.369 22.258-21.293 33.907-3.269 5.5-6.548 10.943-7.286 12.096-1.165 1.816-1.078 2.481.652 5C13.637 228.773 21 240.697 21 241.503c0 .488 1.096 2.037 2.435 3.442 1.34 1.405 3.79 5.292 5.444 8.636 1.655 3.345 3.71 6.662 4.565 7.373.856.71 1.556 1.69 1.556 2.18 0 1.34 8.054 12.866 8.99 12.866.448 0 1.293 1.373 1.878 3.05.584 1.678 1.99 4.265 3.125 5.75 1.134 1.485 5.35 7.2 9.368 12.7 15.906 21.769 45.177 51.414 62.428 63.226 2.59 1.774 6.09 4.519 7.776 6.1 10.637 9.974 50.17 31.931 71.935 39.954 10.578 3.9 26.131 8.839 30.5 9.686 1.925.374 8 1.717 13.5 2.985s13.15 2.795 17 3.392c15.716 2.44 17.982 2.895 15 3.015-4.886.197-27.53-3.583-40.8-6.81-41.154-10.007-82.696-30.415-116.01-56.992-35.612-28.41-58.467-54.5-87.116-99.447C18.27 240.168 6 219.7 6 218.283c0-1.475 22.029-37.869 31.344-51.783C69.355 118.685 100.217 86.69 140 60.074 193.041 24.59 262.708 5.504 323 9.94c57.972 4.265 107.848 21.792 154.5 54.297 36.95 25.744 65.206 55.536 95.834 101.04 9.562 14.208 32.666 51.856 32.666 53.23 0 .758-13.014 22.374-23.778 39.494-35.43 56.351-71.187 93.87-117.441 123.228-33.397 21.196-74.544 36.711-114.506 43.175-14.066 2.275-44.432 3.604-60.775 2.66M276 386.486c-11.126-1.45-20.602-2.92-28-4.344-6.106-1.175-25.907-7.107-29-8.687-1.375-.703-6.55-2.936-11.5-4.962-10.008-4.097-19.214-8.193-21.5-9.566-.825-.496-2.85-1.633-4.5-2.526-8.228-4.456-18.61-10.828-19.614-12.039-.622-.749-1.696-1.362-2.386-1.362s-1.866-.736-2.613-1.636-2.94-2.638-4.872-3.864c-13.823-8.76-44.453-37.71-56.077-53-3.764-4.95-9.304-12.15-12.311-16-3.008-3.85-7.596-10.375-10.197-14.5s-6.349-9.91-8.33-12.854c-1.98-2.945-4.05-6.096-4.6-7.003s-2.687-4.407-4.75-7.777c-2.062-3.37-3.75-6.793-3.75-7.606 0-1.78 4.976-11.361 9.483-18.26 1.797-2.75 4.18-6.714 5.297-8.808s3.006-4.794 4.198-6 4.206-5.342 6.696-9.192 6.17-8.957 8.177-11.35c2.007-2.391 4.549-5.61 5.649-7.154 4.635-6.501 15.176-18.772 19.182-22.331 2.375-2.11 4.318-4.45 4.318-5.2 0-.751.627-1.725 1.392-2.165.766-.44 3.354-2.453 5.75-4.473 17.154-14.46 25.076-20.846 29.858-24.07 3.025-2.04 8.65-5.886 12.5-8.548s9.925-6.357 13.5-8.213 7.201-3.956 8.058-4.667 6.483-3.333 12.5-5.828 11.842-4.96 12.942-5.48 4.475-1.671 7.5-2.56a355 355 0 0 0 11-3.473c10.638-3.59 27.74-7.62 42.115-9.927 8.643-1.386 53.585-1.368 65.272.027 12.083 1.442 27.046 4.422 38.113 7.59 19.855 5.682 46.247 16.968 61.5 26.297.825.505 3.75 2.116 6.5 3.581s6.572 3.852 8.494 5.304a761 761 0 0 0 6.21 4.64c9.121 6.715 22.187 17.045 26.79 21.182 5.166 4.64 28.13 29.698 34.694 37.856 8.961 11.137 12.289 15.603 16.738 22.462 2.675 4.125 7.204 11.1 10.065 15.5C554.089 207.188 559 216.493 559 219.2c0 2.301-1.858 5.385-17.935 29.778-10.078 15.29-21.157 30.5-26.815 36.813-1.787 1.994-3.25 4.207-3.25 4.917s-.425 1.292-.945 1.292-2.882 2.076-5.25 4.614c-9.283 9.949-27.63 27.488-33.805 32.315a1682 1682 0 0 0-10 7.873c-1.925 1.536-5.75 4.071-8.5 5.634s-5.818 3.551-6.818 4.42c-3.618 3.139-22.3 13.539-28.436 15.828-1.79.668-7.64 3.208-13 5.646-17.307 7.87-46.75 15.787-66.246 17.814-16.112 1.675-50.328 1.864-62 .342m63.006-1.96c28.985-3.42 64.634-15.15 90.494-29.776 47.766-27.016 83.037-62.604 119.222-120.292 4.5-7.173 8.462-13.774 8.805-14.669 1.355-3.53-28.403-48.83-44.86-68.289C467.86 98.522 412.315 65.674 347.5 53.827c-10.572-1.932-15.57-2.199-42-2.243l-30-.05-17.793 3.77c-74.81 15.845-133.883 56.766-180.942 125.342-8.307 12.105-21.953 33.793-23.03 36.6-.47 1.226 3.104 7.646 11.966 21.5 18.707 29.246 30.865 45.202 48.842 64.1 41.58 43.707 99.034 73.685 156.457 81.633 13.38 1.852 52.478 1.879 68.006.047M288 333.51c-27.648-4.735-52.38-18.415-69.287-38.325-31.358-36.929-37.506-86.587-15.92-128.6 12.713-24.745 35.927-46.161 60.167-55.51 24.597-9.485 50.618-10.7 75.54-3.525 30.348 8.736 56.4 30.45 70.788 59.003 3.782 7.505 9.277 23.983 10.655 31.947 1.548 8.953 1.609 31.08.108 39.5-4.257 23.887-15.287 45.305-31.99 62.116-9.753 9.815-25.931 20.978-37.208 25.673-19.659 8.184-43.24 11.08-62.853 7.721m32-.901c19.981-2.844 32.626-7.75 49.684-19.274 16.721-11.297 32.488-28.804 35.82-39.772.825-2.716 2.337-5.866 3.36-7s2.11-2.963 2.414-4.063 1.547-4.475 2.76-7.5c6.538-16.287 7.852-46.658 2.77-64-3.227-11.012-8.436-23.592-11.927-28.8-1.584-2.365-2.881-4.574-2.881-4.908 0-3.426-24.26-28.69-30.5-31.76-2.2-1.083-5.346-3.058-6.991-4.39-7.099-5.741-24.717-12.593-39.509-15.363-12.12-2.27-37.756-1.187-49 2.07-9.772 2.83-26.267 10.156-27.552 12.236-.368.594-2.531 1.896-4.808 2.892-13.6 5.952-36.54 33.971-44.091 53.851-2.883 7.59-7.68 27.15-6.95 28.333.23.37-.027 3.748-.569 7.506-1.3 9.011 1.14 29.867 4.65 39.757 2.435 6.862 7.751 18.954 11.024 25.076 4.13 7.725 19.396 24.703 29.296 32.581 4.362 3.471 19.381 12.919 20.538 12.919.314 0 2.46.844 4.767 1.876 5.234 2.341 16.857 5.576 26.695 7.429 9.894 1.863 19.39 1.956 31 .304m-24.317-45.765c-14.455-2.095-26.832-8.285-37.236-18.622-14.13-14.039-20.537-28.74-20.797-47.722-.184-13.494 1.436-21.268 6.493-31.157 4.948-9.674 6.88-12.269 15.357-20.623 12.457-12.276 27.41-17.92 47.5-17.928 9.372-.004 12.557.396 17.214 2.16l5.714 2.165 8.112-2.69c6.426-2.132 9.252-2.573 13.604-2.124 10.006 1.032 18.734 6.97 23.385 15.906 4.567 8.777 4.586 16.635.063 26.445-3.117 6.758-3.238 7.437-2.196 12.299.607 2.83 1.104 9.407 1.104 14.615 0 18.641-7.101 35.451-20.763 49.15-5.474 5.487-10.582 8.685-21.737 13.609-8.185 3.612-10.01 4.027-20.147 4.573-6.131.33-13.183.305-15.67-.056m64.508-81.804c2.507-1.178 6.619-4.117 9.138-6.53 12.699-12.168 8.612-35.044-7.829-43.82-5.382-2.874-18.192-3.055-24.025-.34-5.68 2.643-13.174 11.806-15.114 18.48-6.442 22.158 16.913 42.042 37.83 32.21" style="fill:#3172da" transform="matrix(.0262 0 0 .0262 -.022 -.058)"/><path d="M295.763 285.033c-24.95-4.55-44.755-21.258-52.753-44.503-4.671-13.579-4.698-27.66-.081-42.53 8.645-27.844 37.611-47.54 67.071-45.607 8.216.539 18.56 2.892 20.39 4.637.51.487-.258 2.212-1.798 4.043-5.488 6.522-7.056 10.829-7.075 19.427-.015 6.94.347 8.619 2.726 12.666 9.097 15.475 27.076 19.288 41.734 8.85 1.557-1.109 3.062-2.016 3.345-2.016 1.163 0 2.678 10.684 2.678 18.89 0 30.305-20.336 56.916-49.495 64.768-6.484 1.746-20.7 2.477-26.742 1.375" style="fill:#0d4294" transform="matrix(.0262 0 0 .0262 -.022 -.058)"/></g></svg>