<?xml version="1.0" encoding="UTF-8" standalone="no"?>
<!-- Created with Inkscape (http://www.inkscape.org/) -->

<svg
   width="30mm"
   height="30.6mm"
   viewBox="0 0 30 30.6"
   version="1.1"
   id="svg1"
   xml:space="preserve"
   inkscape:version="1.4.2 (f4327f4, 2025-05-13)"
   sodipodi:docname="Settings.svg"
   xmlns:inkscape="http://www.inkscape.org/namespaces/inkscape"
   xmlns:sodipodi="http://sodipodi.sourceforge.net/DTD/sodipodi-0.dtd"
   xmlns="http://www.w3.org/2000/svg"
   xmlns:svg="http://www.w3.org/2000/svg"><sodipodi:namedview
     id="namedview1"
     pagecolor="#ffffff"
     bordercolor="#000000"
     borderopacity="0.25"
     inkscape:showpageshadow="2"
     inkscape:pageopacity="0.0"
     inkscape:pagecheckerboard="0"
     inkscape:deskcolor="#d1d1d1"
     inkscape:document-units="mm"
     inkscape:zoom="0.75811588"
     inkscape:cx="397.03693"
     inkscape:cy="561.25984"
     inkscape:window-width="1920"
     inkscape:window-height="1111"
     inkscape:window-x="-9"
     inkscape:window-y="-9"
     inkscape:window-maximized="1"
     inkscape:current-layer="layer1" /><defs
     id="defs1" /><g
     inkscape:label="Layer 1"
     inkscape:groupmode="layer"
     id="layer1"><g
       id="g1"
       transform="matrix(0.73190567,0,0,0.73190567,-2.6023313,-3.0008132)"><path
         fill="#607d8b"
         d="m 39.6,27.2 c 0.1,-0.7 0.2,-1.4 0.2,-2.2 0,-0.8 -0.1,-1.5 -0.2,-2.2 l 4.5,-3.2 c 0.4,-0.3 0.6,-0.9 0.3,-1.4 L 40,10.8 c -0.3,-0.5 -0.8,-0.7 -1.3,-0.4 l -5,2.3 C 32.5,11.8 31.3,11.1 29.9,10.5 L 29.4,5 C 29.3,4.5 28.9,4.1 28.4,4.1 h -8.6 c -0.5,0 -1,0.4 -1,0.9 l -0.5,5.5 c -1.4,0.6 -2.7,1.3 -3.8,2.2 l -5,-2.3 C 9,10.2 8.4,10.4 8.2,10.8 l -4.3,7.4 c -0.3,0.5 -0.1,1.1 0.3,1.4 l 4.5,3.2 c -0.1,0.7 -0.2,1.4 -0.2,2.2 0,0.8 0.1,1.5 0.2,2.2 L 4,30.4 C 3.6,30.7 3.4,31.3 3.7,31.8 L 8,39.2 c 0.3,0.5 0.8,0.7 1.3,0.4 l 5,-2.3 c 1.2,0.9 2.4,1.6 3.8,2.2 l 0.5,5.5 c 0.1,0.5 0.5,0.9 1,0.9 h 8.6 c 0.5,0 1,-0.4 1,-0.9 l 0.5,-5.5 c 1.4,-0.6 2.7,-1.3 3.8,-2.2 l 5,2.3 c 0.5,0.2 1.1,0 1.3,-0.4 l 4.3,-7.4 c 0.3,-0.5 0.1,-1.1 -0.3,-1.4 z M 24,35 c -5.5,0 -10,-4.5 -10,-10 0,-5.5 4.5,-10 10,-10 5.5,0 10,4.5 10,10 0,5.5 -4.5,10 -10,10 z"
         id="path1" /><path
         fill="#455a64"
         d="m 24,13 c -6.6,0 -12,5.4 -12,12 0,6.6 5.4,12 12,12 6.6,0 12,-5.4 12,-12 0,-6.6 -5.4,-12 -12,-12 z m 0,17 c -2.8,0 -5,-2.2 -5,-5 0,-2.8 2.2,-5 5,-5 2.8,0 5,2.2 5,5 0,2.8 -2.2,5 -5,5 z"
         id="path2" /></g></g></svg>
