<svg xmlns="http://www.w3.org/2000/svg" width="113.764" height="92.22" viewBox="0 0 30.1 24.4" xmlns:v="https://vecta.io/nano"><path d="M1.498 24.258c-.731-.34-1.267-1.11-1.356-1.948-.027-.254-.041-4.041-.032-8.416l.017-7.955.121-.336c.344-.958 1.148-1.572 2.156-1.647l.456-.034.028-.392c.049-.682.422-1.135 1.038-1.259.159-.032.876-.048 1.679-.036 1.595.023 1.666.038 2.023.444a1.34 1.34 0 0 1 .357.984v.288h.365c.447 0 .325.174 1.401-1.993l.928-1.737c.115-.104.267-.108 4.342-.123l4.407.062c.168.07.263.235 1.104 1.934l.92 1.857h.373.373l.032-.387c.038-.45.177-.757.452-.999.345-.303.478-.323 2.165-.323 1.481 0 1.549.005 1.772.124.247.132.498.397.597.63.034.079.075.32.093.535l.032.392.448.035c.502.04.971.197 1.302.437.473.343.868.991.965 1.587.07.431.07 15.921 0 16.416-.113.794-.622 1.513-1.298 1.833l-.353.167-13.304-.001-13.304-.001zm.638-1.854c.028-.511.041-.94.028-.952s-.246-.023-.518-.023h-.495v.382c0 .675.22 1.161.642 1.418a.75.75 0 0 0 .231.104c.039 0 .079-.33.112-.929zM2.09 15.59l.014-4.802-.129-.032c-.071-.018-.279-.025-.462-.015l-.334.017-.014 4.762.013 4.834c.02.053.146.068.463.056l.435-.016zm6.868 1.986c.015-.024-.023-.244-.084-.49-.163-.66-.163-1.722.001-2.487.295-1.38.857-2.38 1.897-3.373 1.249-1.193 2.789-1.781 4.678-1.784.36-.001.602-.023.602-.057s-.258-.185-.573-.343l-.573-.288-.477.029c-.939.057-2.168.468-3.058 1.023-1.47.916-2.385 2.067-2.962 3.724-.269.773-.367 1.378-.367 2.263 0 .84.008.864.484 1.445.304.371.377.428.432.339zm4.675-3.04c.378-.23.508-.87.249-1.226a1.03 1.03 0 0 0-.856-.369c-.399.067-.728.453-.728.855 0 .253.228.637.447.752.261.137.652.131.887-.012zM2.207 8.133l-.015-1.588.141-.274c.085-.164.237-.341.381-.442l.24-.169 12.462-.014 12.462-.014-.017-.322-.017-.322-12.687-.014c-14.396-.016-13.087-.06-13.59.456-.205.21-.303.365-.35.552-.043.17-.065.859-.065 2v1.74h.536.536zm2.249-4.518c0-.334-.001-.336-.163-.336-.301 0-.341.043-.341.37v.302h.252.252zm6.252-.112a54.28 54.28 0 0 0 .557-1.057c.18-.35.362-.673.406-.716.066-.066.59-.078 3.269-.07l3.22-.021c.036-.036-.07-.251-.191-.39-.08-.091-.312-.098-3.368-.098h-3.283l-.682 1.366c-.375.751-.666 1.383-.646 1.403s.139.029.263.02c.219-.016.234-.03.456-.437zm13.119.098l.017-.322h-.185c-.253.001-.323.058-.362.295-.052.319-.002.385.274.365l.239-.017z" fill="#c5cbdd"/><path d="M1.701 24.29a2.39 2.39 0 0 1-1.497-1.821C.117 21.999.118 6.372.205 5.956c.101-.484.353-.949.683-1.262.477-.451.945-.652 1.678-.718l.378-.034v-.362c0-.404.084-.619.356-.908.345-.367.369-.371 1.925-.392 1.638-.021 1.91.015 2.242.299.294.252.421.529.459 1.008l.032.392.364.014c.2.008.397-.007.437-.033s.482-.864.981-1.862c.682-1.362.943-1.832 1.047-1.885s1.046-.068 4.381-.057c4.158.013 4.244.016 4.352.126.061.062.515.926 1.01 1.921l.899 1.809.406-.016.406-.016.036-.405c.061-.68.396-1.098 1.002-1.248.165-.041.755-.057 1.681-.045l1.427.018.252.149c.429.253.567.503.613 1.112l.031.42.512.036c.415.029.584.07.894.219.637.304 1.092.872 1.281 1.596.075.289.086 1.322.086 8.318l-.061 8.321a2.51 2.51 0 0 1-1.238 1.709l-.353.191-13.22.012c-12.712.011-13.23.008-13.483-.091zm.527-1.452l.016-.485 3.865-.013 3.954-.028c.058-.01-.067-.161-.366-.443l-.455-.429-4.06-.018-4.06-.018.001.474c.001.314.034.561.098.729.155.405.755.908.921.771.041-.034.074-.248.084-.541zm25.291-.623a.79.79 0 0 0 .391-.585l.033-.202h-1.939-1.939l-.12.238a3.85 3.85 0 0 1-.225.387c-.058.082-.105.176-.105.21 0 .043.55.061 1.863.061 1.747 0 1.874-.007 2.042-.109zm-11.565-.117c.776-.147 1.317-.326 1.961-.648.707-.354 1.106-.649 1.667-1.234 1.028-1.071 1.552-2.21 1.743-3.787.168-1.384-.263-3.047-1.116-4.31-.759-1.124-1.864-1.96-3.204-2.424-.323-.112-.701-.276-.84-.365a8.95 8.95 0 0 0-.726-.389c-.545-.263-.806-.286-1.575-.14a7.23 7.23 0 0 0-2.741 1.113c-1.268.844-2.107 1.894-2.662 3.33a5.98 5.98 0 0 0-.456 2.275c-.028.774-.019.884.112 1.393.138.534.257.817.185.439l-.035-.185.389.352c.214.194.404.416.423.493s.157.395.307.705c.572 1.183 1.6 2.22 2.801 2.826 1.226.618 2.473.803 3.767.557zm-1.834-.564c-.725-.106-1.801-.561-2.414-1.022a7.28 7.28 0 0 1-1.526-1.662c-1.172-1.905-1.133-4.331.1-6.208a5.89 5.89 0 0 1 4.54-2.623c1.093-.066 2.409.286 3.353.896.955.618 1.855 1.705 2.264 2.734 1 2.515.215 5.213-2.004 6.888-.572.432-1.636.879-2.38.999-.425.069-1.45.067-1.933-.003zm-1.739-5.406c.107-.041.255-.307.255-.459s-.199-.384-.372-.427c-.45-.113-.771.455-.443.784.135.135.365.177.56.103zm1.206-1.52c.243-.122.423-.385.472-.691s-.136-.696-.414-.882c-.167-.111-.25-.128-.553-.109-.332.02-.371.037-.566.246-.24.258-.314.534-.228.854a.9.9 0 0 0 1.29.582zM2.097 20.424c.09-.048.095-.369.081-4.859l-.015-4.808-.534-.016-.534-.016v4.843l.058 4.862c.14.045.857.041.944-.006zm8.001-10.965c1.144-.919 2.641-1.524 4.217-1.703 2.017-.229 4.417.505 5.928 1.812l.257.222 3.693-.032 3.709-.049c.009-.009.024-1.075.035-2.369l.019-2.353-.504-.031c-.277-.017-6.062-.029-12.856-.027l-12.352.004-.253.116c-.304.139-.576.401-.744.715-.119.223-.124.298-.141 2.046-.009.998-.003 1.85.013 1.892.025.066.703.077 4.314.07l4.285-.008zm12.47-.238a.78.78 0 0 1-.238-.221c-.037-.069-.059-.583-.058-1.361.001-1.347.011-1.395.317-1.552.084-.043.784-.063 2.214-.063 1.879 0 2.106.01 2.23.095.273.188.275.198.277 1.542l.002 1.274-.163.183-.163.183-2.119.015c-2.022.014-2.128.01-2.298-.095zm-18.7-.423c-.336-.118-.678-.522-.755-.891-.24-1.156 1.135-1.966 1.979-1.165.516.49.54 1.284.053 1.759-.375.365-.8.464-1.277.297zm.616-5.182v-.364l-.179-.017c-.313-.03-.409.064-.409.402 0 .163.018.315.04.337s.154.032.294.023l.254-.017zm6.016.341c.043-.027.169-.222.28-.433l.202-.384 3.963-.014 3.963-.071c0-.031-.135-.327-.301-.658s-.319-.683-.34-.782-.11-.257-.198-.35l-.158-.17h-3.312-3.312l-.698 1.407c-.384.774-.684 1.429-.667 1.456.04.064.477.063.579-.002zm13.366-.341v-.364l-.179-.017c-.324-.031-.409.06-.409.442v.337l.294-.017.294-.017z" fill="#9b96af"/><path d="M1.611 24.222c-.443-.17-.918-.638-1.175-1.158l-.21-.425v-8.406-8.406l.201-.42c.412-.861 1.264-1.4 2.212-1.4h.288l.032-.422c.048-.633.312-1.018.819-1.193.127-.044.684-.065 1.681-.064 1.331.001 1.514.012 1.714.105.439.203.7.621.7 1.12 0 .448.008.455.512.455h.444L9.725 2.2 10.737.296c.11-.091.402-.098 4.356-.098l4.367.09c.079.056.471.785 1.024 1.907l.896 1.817.459-.016.459-.016.035-.43c.039-.479.165-.743.461-.966.32-.241.524-.265 2.147-.246l1.522.018.243.171c.339.238.496.548.534 1.052l.031.409.539.06c.949.106 1.581.534 1.973 1.335l.191.391.017 8.235-.048 8.543a2.45 2.45 0 0 1-1.251 1.626l-.333.166-13.225-.003-13.521-.117zm.648-1.295l.016-.49h3.972l3.998-.043c.015-.024-.209-.263-.496-.532l-.523-.489H5.165 1.104l-.033.154c-.051.235.064.995.186 1.232.182.354.632.7.875.672.101-.012.114-.061.128-.503zm25.256-.606c.304-.147.481-.422.457-.709l-.017-.212-1.921-.015c-1.904-.015-2.14.004-2.14.172 0 .038-.088.203-.196.367-.36.546-.472.512 1.691.512 1.794 0 1.899-.006 2.127-.116zm-11.46-.14a8.76 8.76 0 0 0 1.844-.611c.695-.352 1.172-.712 1.8-1.361.576-.595.67-.721.982-1.329.19-.37.394-.836.455-1.036.425-1.401.38-3.054-.119-4.379a6.54 6.54 0 0 0-4.068-3.886c-.26-.085-.621-.241-.8-.346s-.496-.272-.703-.369c-.336-.159-.426-.177-.852-.172-.513.007-1.393.194-2.02.43-1.702.641-3.144 1.948-3.89 3.527-.685 1.451-.895 2.798-.647 4.15.133.726.311 1.357.397 1.41.03.019.054-.004.054-.051s.06-.154.134-.24c.115-.134.146-.145.224-.08.05.041.09.097.09.125 0 .137.695 1.429.965 1.794a6.71 6.71 0 0 0 2.254 1.87c1.346.652 2.51.818 3.9.554zm-2.189-.745c-.961-.209-1.889-.698-2.62-1.38-.786-.733-1.256-1.447-1.578-2.399-.236-.697-.301-1.198-.269-2.062.032-.87.166-1.461.488-2.154.607-1.308 1.799-2.459 3.042-2.939.871-.336 1.231-.407 2.086-.413 1.218-.008 2.122.238 3.099.843.593.367 1.464 1.255 1.854 1.889.343.557.697 1.522.786 2.137.284 1.974-.442 3.916-1.948 5.214-.598.515-1.159.832-1.965 1.11-.642.221-.661.224-1.575.24-.737.013-1.021-.005-1.4-.087zm-1.429-5.305c.273-.179.298-.597.049-.815-.262-.23-.672-.144-.801.167-.197.476.326.927.752.648zm1.151-1.494a.95.95 0 0 0 .134-1.589c-.181-.138-.262-.161-.562-.161-.393 0-.571.095-.798.425-.11.16-.128.245-.11.529.025.411.167.636.507.804.306.151.517.149.829-.008zm-11.374.976l-.036-4.89c-.035-.029-.288-.046-.56-.037l-.496.016-.014 4.89-.014 4.89.546-.016.546-.016zm7.934-6.135c2.067-1.655 4.947-2.149 7.519-1.288.917.307 1.952.878 2.518 1.389l.224.202 3.765-.002 3.815-.033c.027-.017.049-1.08.049-2.378l-.109-2.406c-.075-.04-4.113-.054-12.954-.044l-12.845.014-.231.124c-.297.159-.676.589-.748.85-.053.192-.085 3.826-.034 3.877.013.013 1.969.014 4.347.003l4.324-.02zm12.477-.26c-.281-.113-.3-.213-.3-1.571V6.381l.157-.151.157-.151h2.135 2.135l.172.145.172.145v1.288 1.288l-.164.164-.164.164-2.091-.004c-1.15-.002-2.145-.025-2.211-.052zM3.808 8.718c-.664-.301-.89-1.178-.454-1.757.473-.627 1.334-.654 1.826-.057.787.954-.25 2.324-1.372 1.814zm.769-5.076c.02-.185.025-.355.011-.378s-.162-.042-.328-.042c-.242 0-.314.022-.361.108-.066.123-.079.581-.018.641.022.022.179.032.35.023l.31-.016zm6.084.228a1.85 1.85 0 0 0 .205-.392l.098-.256h4.002c3.726 0 4.005-.007 4.039-.096.023-.061-.08-.321-.283-.714-.176-.34-.319-.65-.319-.688.001-.049.112-.07.365-.07h.363l-.119-.246-.119-.246-.846-.039c-1.119-.052-6.678-.078-6.752-.032S9.89 3.819 9.89 3.925c0 .062.079.081.332.081.285 0 .347-.019.439-.136zm13.259.066c.079-.257.078-.604-.002-.684-.121-.121-.373-.108-.547.029-.127.1-.148.158-.148.42v.304h.338c.221 0 .345-.024.359-.07z" fill="#8e7bb1"/><path d="M1.498 24.143c-.422-.211-.827-.602-1.024-.987-.284-.557-.275-.264-.275-8.926l.286-8.947c.384-.752 1.306-1.277 2.245-1.277.118 0 .217-.019.221-.042s.015-.198.024-.389.059-.436.11-.545c.127-.267.475-.572.737-.644.279-.077 2.946-.079 3.223-.002.482.134.782.558.826 1.166.037.51.074.541.583.487l.377-.04.896-1.802 1.012-1.9c.108-.091.399-.098 4.361-.098l4.363.098c.065.054.52.91 1.011 1.901L21.366 4l.208.039c.114.021.324.017.466-.011l.258-.05.031-.393c.04-.518.213-.834.581-1.061l.276-.17h1.601c1.515 0 1.613.006 1.825.117.123.064.298.221.388.349.137.194.169.306.197.677.018.245.051.463.073.486s.267.059.545.082c.933.077 1.557.503 1.952 1.33l.206.432.015 8.23-.339 9.212c-.248.413-.702.815-1.079.956l-.31.116H15.077 1.894zm10.674-.72c.008-.008-.131-.073-.308-.146a9.3 9.3 0 0 1-.819-.416c-.463-.264-.674-.432-1.488-1.188l-.311-.289-4.033-.017c-2.218-.009-4.068.004-4.111.031-.061.038-.071.15-.045.516.048.678.239 1.066.683 1.384.156.112.254.123 1.372.149l9.06-.022zm15.931-.036c.156-.042.328-.158.523-.353.334-.334.422-.586.422-1.204v-.389L27.98 21.4c-.587-.023-2.394-.022-4.015.001l-2.947.042-.508.445a7.19 7.19 0 0 1-1.848 1.224l-.668.332 1.536.015 8.574-.071zm-11.687-.588a7.1 7.1 0 0 0 5.176-4.083c.755-1.723.788-3.866.087-5.561-.581-1.404-1.402-2.41-2.63-3.221-1.18-.78-1.953-1.025-3.868-1.225-.465-.049-.722-.049-1.036-.001-1.583.242-3.04.972-4.145 2.076-.64.64-1.104 1.318-1.431 2.091-.618 1.46-.771 2.714-.509 4.166.121.67.227.999.544 1.676.843 1.806 2.236 3.114 4.014 3.769.416.154 1.291.363 1.754.42.362.045 1.536-.017 2.045-.108zm-2.241-1.317a5.88 5.88 0 0 1-4.348-3.431c-.335-.811-.411-1.214-.412-2.197-.001-1.057.106-1.574.504-2.422.868-1.848 2.438-3.007 4.48-3.305 1.046-.153 2.161.036 3.193.542 1.664.815 2.859 2.458 3.14 4.317a4.81 4.81 0 0 1-.004 1.727c-.361 2.228-1.943 3.997-4.144 4.636-.411.119-.648.15-1.288.165-.431.011-.936-.004-1.12-.033zm-1.69-5.378c.292-.23.247-.7-.084-.871-.239-.124-.429-.097-.611.084-.215.215-.222.487-.019.728.178.212.486.237.714.058zm1.1-1.453c.322-.164.471-.408.496-.811.017-.284 0-.369-.11-.529-.202-.294-.4-.413-.736-.441-.345-.029-.536.049-.796.322-.155.163-.168.209-.168.579 0 .481.134.718.499.884.297.135.545.134.815-.004zm-11.356.976l-.039-4.902c-.029-.029-.285-.053-.568-.053-.418 0-.521.017-.549.089-.047.121-.043 9.631.003 9.677.021.021.285.037.588.037h.55zm8.015-6.208c.982-.736 2.163-1.265 3.344-1.497.825-.162 2.052-.173 2.885-.025 1.329.235 2.687.853 3.716 1.692l.303.247 3.76-.023 3.928-.053c.092-.017.327-.032.521-.035l.353-.005-.017-1.891-.017-1.891-.155-.264c-.149-.254-.406-.463-.825-.675-.186-.094-.865-.098-13.052-.084L1.913 5.04a1.68 1.68 0 0 0-.727.755c-.112.242-.12.363-.137 2.015-.01.967-.003 1.818.015 1.891l.033.133h4.298 4.298zm12.44-.202c-.065-.026-.172-.116-.238-.2-.114-.145-.12-.211-.12-1.381V6.407l.164-.164.164-.164h2.137 2.137l.164.164.164.164v1.24c0 .744-.023 1.284-.058 1.348-.141.264-.255.277-2.39.273-1.103-.002-2.059-.025-2.124-.051zm-18.76-.465c-.501-.205-.775-.595-.775-1.105 0-1.196 1.525-1.608 2.129-.576.426.727-.065 1.684-.89 1.733a1.32 1.32 0 0 1-.464-.051zm20.042-4.784c.038-.024.195-.044.349-.044l.28-.002.017-.317.017-.317-.353-.03a10.37 10.37 0 0 1-.585-.066c-.334-.052-.468.091-.468.502 0 .189.026.315.07.335a1.61 1.61 0 0 0 .674-.06zM5.254 3.914c.023-.014.042-.16.042-.326v-.3l-.406-.034c-.806-.068-.888-.063-.972.051s-.108.597-.036.67c.042.043 1.293-.013 1.372-.061zm14.996.003c.015-.015-.192-.461-.459-.991l-.681-1.399-.194-.435-.493-.01c-.271-.005-1.993-.011-3.826-.013l-3.333-.004-.708 1.428c-.39.786-.701 1.441-.692 1.456.022.036 10.352.002 10.388-.034z" fill="#3e8ebc"/><path d="M1.498 24.143c-.422-.211-.827-.602-1.024-.987-.284-.557-.275-.264-.275-8.926l.286-8.947c.384-.752 1.306-1.277 2.245-1.277.118 0 .217-.019.221-.042s.015-.198.024-.389.059-.436.11-.545c.127-.267.475-.572.737-.644.279-.077 2.946-.079 3.223-.002.482.134.782.558.826 1.166.037.51.074.541.583.487l.377-.04.896-1.802 1.012-1.9c.108-.091.399-.098 4.361-.098l4.363.098c.065.054.52.91 1.011 1.901L21.366 4l.208.039c.114.021.324.017.466-.011l.258-.05.031-.393c.04-.518.213-.834.581-1.061l.276-.17h1.601c1.515 0 1.613.006 1.825.117.123.064.298.221.388.349.137.194.169.306.197.677.018.245.051.463.073.486s.267.059.545.082c.933.077 1.557.503 1.952 1.33l.206.432.015 8.23-.339 9.212c-.248.413-.702.815-1.079.956l-.31.116H15.077 1.894zm10.674-.72c.008-.008-.131-.073-.308-.146a9.3 9.3 0 0 1-.819-.416c-.463-.264-.674-.432-1.488-1.188l-.311-.289-4.033-.017c-2.218-.009-4.068.004-4.111.031-.061.038-.071.15-.045.516.048.678.239 1.066.683 1.384.156.112.254.123 1.372.149l9.06-.022zm15.931-.036c.156-.042.328-.158.523-.353.334-.334.422-.586.422-1.204v-.389L27.98 21.4c-.587-.023-2.394-.022-4.015.001l-2.947.042-.508.445a7.19 7.19 0 0 1-1.848 1.224l-.668.332 1.536.015 8.574-.071zm-11.687-.588a7.1 7.1 0 0 0 5.176-4.083c.755-1.723.788-3.866.087-5.561-.581-1.404-1.402-2.41-2.63-3.221-1.18-.78-1.953-1.025-3.868-1.225-.465-.049-.722-.049-1.036-.001-1.583.242-3.04.972-4.145 2.076-.64.64-1.104 1.318-1.431 2.091-.618 1.46-.771 2.714-.509 4.166.121.67.227.999.544 1.676.843 1.806 2.236 3.114 4.014 3.769.416.154 1.291.363 1.754.42.362.045 1.536-.017 2.045-.108zm-2.241-1.317a5.88 5.88 0 0 1-4.348-3.431c-.335-.811-.411-1.214-.412-2.197-.001-1.057.106-1.574.504-2.422.868-1.848 2.438-3.007 4.48-3.305 1.046-.153 2.161.036 3.193.542 1.664.815 2.859 2.458 3.14 4.317a4.81 4.81 0 0 1-.004 1.727c-.361 2.228-1.943 3.997-4.144 4.636-.411.119-.648.15-1.288.165-.431.011-.936-.004-1.12-.033zm-1.69-5.378c.292-.23.247-.7-.084-.871-.239-.124-.429-.097-.611.084-.215.215-.222.487-.019.728.178.212.486.237.714.058zm1.1-1.453c.322-.164.471-.408.496-.811.017-.284 0-.369-.11-.529-.202-.294-.4-.413-.736-.441-.345-.029-.536.049-.796.322-.155.163-.168.209-.168.579 0 .481.134.718.499.884.297.135.545.134.815-.004zm-5.336 5.74c.043-.014-.071-.294-.319-.779-.698-1.369-.92-2.275-.921-3.758-.001-.847.02-1.101.127-1.586.254-1.147.67-2.142 1.26-3.013l.307-.454-1.325-.039-3.23-.044-2.459-.03c-.42-.019-.566-.007-.601.049-.047.075-.07 9.641-.023 9.688.03.03 7.089-.004 7.184-.035zM10.244 9.42c.982-.736 2.163-1.265 3.344-1.497.825-.162 2.052-.173 2.885-.025 1.329.235 2.687.853 3.716 1.692l.303.247 3.76-.023 3.928-.053c.092-.017.327-.032.521-.035l.353-.005-.017-1.891-.017-1.891-.155-.264c-.149-.254-.406-.463-.825-.675-.186-.094-.865-.098-13.052-.084L1.913 5.04a1.68 1.68 0 0 0-.727.755c-.112.242-.12.363-.137 2.015-.01.967-.003 1.818.015 1.891l.033.133h4.298 4.298zm12.44-.202c-.065-.026-.172-.116-.238-.2-.114-.145-.12-.211-.12-1.381V6.407l.164-.164.164-.164h2.137 2.137l.164.164.164.164v1.24c0 .744-.023 1.284-.058 1.348-.141.264-.255.277-2.39.273-1.103-.002-2.059-.025-2.124-.051zm-18.76-.465c-.501-.205-.775-.595-.775-1.105 0-1.196 1.525-1.608 2.129-.576.426.727-.065 1.684-.89 1.733a1.32 1.32 0 0 1-.464-.051zm20.042-4.784c.038-.024.195-.044.349-.044l.28-.002.017-.317.017-.317-.353-.03a10.37 10.37 0 0 1-.585-.066c-.334-.052-.468.091-.468.502 0 .189.026.315.07.335a1.61 1.61 0 0 0 .674-.06zM5.254 3.914c.023-.014.042-.16.042-.326v-.3l-.406-.034c-.806-.068-.888-.063-.972.051s-.108.597-.036.67c.042.043 1.293-.013 1.372-.061zm14.996.003c.015-.015-.192-.461-.459-.991l-.681-1.399-.194-.435-.493-.01c-.271-.005-1.993-.011-3.826-.013l-3.333-.004-.708 1.428c-.39.786-.701 1.441-.692 1.456.022.036 10.352.002 10.388-.034z" fill="#6f5a91"/><path d="M1.56 24.149c-.557-.259-1.041-.828-1.217-1.428-.079-.272-.089-1.177-.089-8.495L.368 5.67C.65 4.756 1.451 4.151 2.48 4.072l.492-.037.03-.428c.038-.541.237-.897.609-1.094.241-.127.282-.13 1.808-.13 1.74 0 1.8.01 2.109.362.237.27.292.417.337.898l.036.392h.475.475l.913-1.821.981-1.889c.052-.052 1.067-.07 4.348-.074l4.379.096c.055.056.504.915.999 1.909l.9 1.807h.447c.523 0 .563-.036.563-.517 0-.398.179-.747.495-.967l.243-.169 1.577-.017c1.757-.018 1.918.006 2.199.34.207.246.26.402.298.881l.034.42.483.04c.867.072 1.445.389 1.849 1.014.414.641.388-.021.371 9.228l-.015 8.316-.178.377c-.235.497-.629.914-1.054 1.116l-.336.16H15.1l-13.248-.001zm10.874-.64c.016-.027-.14-.119-.347-.205-.942-.391-1.747-.928-2.535-1.689l-.31-.299-4.087.014-4.087.014-.017.448c-.009.246.013.556.05.689.138.497.613.947 1.079 1.024.345.056 10.221.06 10.255.004zm15.858-.148c.372-.186.658-.511.754-.856.032-.115.058-.414.058-.664v-.456l-1.068-.041c-.588-.023-2.421-.022-4.074.001l-3.006.042-.393.362a7.83 7.83 0 0 1-2.352 1.504c-.245.099-.456.209-.467.244-.016.047 1.313.059 5.096.048l5.117-.015zm-12.324-.426a7 7 0 0 0 2.199-.638c.832-.399 1.389-.788 2.004-1.401 2.322-2.314 2.757-5.931 1.06-8.804-.782-1.323-2.136-2.427-3.7-3.016-.645-.243-1.375-.366-2.378-.402s-1.318.006-2.258.302c-1.866.586-3.493 2-4.284 3.721-.713 1.551-.872 2.937-.534 4.643.116.587.222.896.529 1.541 1.338 2.81 4.281 4.431 7.363 4.056zm-2.102-1.559c-2.153-.454-3.922-2.277-4.345-4.476-.114-.594-.1-1.667.029-2.253.258-1.167.741-2.039 1.597-2.881a5.51 5.51 0 0 1 3.036-1.572c.879-.166 2.076-.04 2.956.31 2.506.998 3.995 3.649 3.535 6.291-.391 2.243-2.026 3.985-4.276 4.556-.672.171-1.791.182-2.532.025zm1.911-.813c1.369-.206 2.54-.92 3.26-1.986.57-.844.85-1.756.845-2.75-.009-1.899-.997-3.485-2.706-4.341-1.858-.93-4.168-.479-5.63 1.1-.705.761-1.105 1.67-1.223 2.782-.186 1.741.652 3.511 2.104 4.442.726.466 1.263.664 2.09.77.566.073.669.071 1.26-.018zm-1.625-.594a4.17 4.17 0 0 1-2.195-1.274 3.86 3.86 0 0 1-1.096-2.568c-.055-.968.11-1.71.544-2.44 1.182-1.99 3.637-2.698 5.66-1.632 1.675.883 2.54 2.665 2.212 4.557-.169.972-.785 1.982-1.562 2.56-1.064.791-2.334 1.075-3.563.798zm-1.628-3.854c.216-.216.261-.419.146-.66-.122-.256-.416-.386-.677-.3a.5.5 0 0 0-.394.543c0 .212.028.276.183.414.249.222.522.223.743.003zm1.11-1.451c.441-.202.643-.89.389-1.327-.328-.565-1.009-.687-1.505-.269-.339.285-.423.743-.214 1.173.245.506.779.676 1.331.422zM2.187 20.476c.022-.036 1.099-.056 3.047-.056l3.044-.031c.017-.017-.141-.369-.352-.783-.694-1.363-.917-2.27-.918-3.751-.001-.847.02-1.101.127-1.586.254-1.147.67-2.142 1.26-3.013l.307-.454-1.325-.039c-.729-.021-2.174-.036-3.211-.032-1.251.004-1.924-.014-1.999-.054-.12-.064-.891-.083-1.04-.026-.08.031-.089.516-.089 4.92l.037 4.924c.06.06 1.073.043 1.111-.019zm7.87-10.861c.669-.545 1.298-.907 2.186-1.258 2.572-1.017 5.693-.542 7.829 1.191l.35.284h4.31c3.387 0 4.319-.015 4.355-.07.025-.039.036-.902.026-1.919-.015-1.45-.037-1.891-.1-2.045-.121-.293-.454-.61-.832-.791l-.336-.161h-12.72c-11.126 0-12.755.01-13.002.084-.367.109-.78.474-.95.838-.13.278-.131.308-.132 2.168 0 1.207.02 1.893.055 1.905.031.01 2.003.01 4.383-.001l4.327-.02zm12.577-.466c-.24-.138-.248-.19-.25-1.511l-.002-1.27.148-.116c.143-.113.208-.116 2.261-.116s2.118.003 2.261.116l.148.116v1.287 1.287l-.138.138-.137.137-2.089-.002c-1.466-.001-2.123-.021-2.201-.066zm-18.839-.5c-.818-.405-.816-1.607.005-2.004s1.721.279 1.585 1.188a1.11 1.11 0 0 1-1.59.815zm2.075-4.679l1.05-.037.009-.145c.013-.216-.011-.42-.055-.465-.021-.022-.467-.053-.991-.068a40.59 40.59 0 0 1-1.4-.063c-.34-.026-.473-.016-.552.044-.131.099-.188.538-.093.715.065.122.09.126.525.093.251-.019.929-.052 1.506-.072zm14.454-.013c.024-.023-.279-.684-.673-1.467l-.716-1.425-3.853-.014-3.853-.014-.706 1.425c-.388.784-.693 1.458-.678 1.499.023.061.96.071 5.231.057l5.246-.06zm4.929.013l1.05-.037v-.233c0-.427-.047-.45-.962-.455a21.85 21.85 0 0 1-1.315-.048c-.594-.049-.707-.025-.795.168-.072.159-.087.598-.022.665.023.024.256.028.518.01a57.98 57.98 0 0 1 1.527-.071z" fill="#c5355e"/><path d="M1.56 24.149c-.557-.259-1.041-.828-1.217-1.428-.079-.272-.089-1.177-.089-8.495L.368 5.67C.65 4.756 1.451 4.151 2.48 4.072l.492-.037.03-.428c.038-.541.237-.897.609-1.094.241-.127.282-.13 1.808-.13 1.74 0 1.8.01 2.109.362.237.27.292.417.337.898l.036.392h.475.475l.913-1.821.981-1.889c.052-.052 1.067-.07 4.348-.074l4.379.096c.055.056.504.915.999 1.909l.9 1.807h.447c.523 0 .563-.036.563-.517 0-.398.179-.747.495-.967l.243-.169 1.577-.017c1.757-.018 1.918.006 2.199.34.207.246.26.402.298.881l.034.42.483.04c.867.072 1.445.389 1.849 1.014.414.641.388-.021.371 9.228l-.015 8.316-.178.377c-.235.497-.629.914-1.054 1.116l-.336.16H15.1l-13.248-.001zm10.874-.64c.016-.027-.14-.119-.347-.205-.942-.391-1.747-.928-2.535-1.689l-.31-.299-4.087.014-4.087.014-.017.448c-.009.246.013.556.05.689.138.497.613.947 1.079 1.024.345.056 10.221.06 10.255.004zm15.858-.148c.372-.186.658-.511.754-.856.032-.115.058-.414.058-.664v-.456l-1.068-.041c-.588-.023-2.421-.022-4.074.001l-3.006.042-.393.362a7.83 7.83 0 0 1-2.352 1.504c-.245.099-.456.209-.467.244-.016.047 1.313.059 5.096.048l5.117-.015zm-12.324-.426a7 7 0 0 0 2.199-.638c.832-.399 1.389-.788 2.004-1.401 2.322-2.314 2.757-5.931 1.06-8.804-.782-1.323-2.136-2.427-3.7-3.016-.645-.243-1.375-.366-2.378-.402s-1.318.006-2.258.302c-1.866.586-3.493 2-4.284 3.721-.713 1.551-.872 2.937-.534 4.643.116.587.222.896.529 1.541 1.338 2.81 4.281 4.431 7.363 4.056zm-2.102-1.559c-2.153-.454-3.922-2.277-4.345-4.476-.114-.594-.1-1.667.029-2.253.258-1.167.741-2.039 1.597-2.881a5.51 5.51 0 0 1 3.036-1.572c.879-.166 2.076-.04 2.956.31 2.506.998 3.995 3.649 3.535 6.291-.391 2.243-2.026 3.985-4.276 4.556-.672.171-1.791.182-2.532.025zm1.911-.813c1.369-.206 2.54-.92 3.26-1.986.57-.844.85-1.756.845-2.75-.009-1.899-.997-3.485-2.706-4.341-1.858-.93-4.168-.479-5.63 1.1-.705.761-1.105 1.67-1.223 2.782-.186 1.741.652 3.511 2.104 4.442.726.466 1.263.664 2.09.77.566.073.669.071 1.26-.018zm-1.625-.594a4.17 4.17 0 0 1-2.195-1.274 3.86 3.86 0 0 1-1.096-2.568c-.055-.968.11-1.71.544-2.44 1.182-1.99 3.637-2.698 5.66-1.632 1.675.883 2.54 2.665 2.212 4.557-.169.972-.785 1.982-1.562 2.56-1.064.791-2.334 1.075-3.563.798zm-1.628-3.854c.216-.216.261-.419.146-.66-.122-.256-.416-.386-.677-.3a.5.5 0 0 0-.394.543c0 .212.028.276.183.414.249.222.522.223.743.003zm1.11-1.451c.441-.202.643-.89.389-1.327-.328-.565-1.009-.687-1.505-.269-.339.285-.423.743-.214 1.173.245.506.779.676 1.331.422zM2.187 20.476c.022-.036 1.099-.056 3.047-.056l3.044-.031c.017-.017-.141-.369-.352-.783-.694-1.363-.917-2.27-.918-3.751-.001-.847.02-1.101.127-1.586.254-1.147.67-2.142 1.26-3.013l.307-.454-1.325-.039c-.729-.021-2.174-.036-3.211-.032-1.251.004-1.924-.014-1.999-.054-.12-.064-.891-.083-1.04-.026-.08.031-.089.516-.089 4.92l.037 4.924c.06.06 1.073.043 1.111-.019zm7.87-10.861c.669-.545 1.298-.907 2.186-1.258 2.572-1.017 5.693-.542 7.829 1.191l.35.284h4.31c3.387 0 4.319-.015 4.355-.07.025-.039.036-.902.026-1.919-.015-1.45-.037-1.891-.1-2.045-.121-.293-.454-.61-.832-.791l-.336-.161h-12.72c-11.126 0-12.755.01-13.002.084-.367.109-.78.474-.95.838-.13.278-.131.308-.132 2.168 0 1.207.02 1.893.055 1.905.031.01 2.003.01 4.383-.001l4.327-.02zm12.577-.466c-.24-.138-.248-.19-.25-1.511l-.002-1.27.148-.116c.143-.113.208-.116 2.261-.116s2.118.003 2.261.116l.148.116v1.287 1.287l-.138.138-.137.137-2.089-.002c-1.466-.001-2.123-.021-2.201-.066zm3.697-1.501v-.644h-1.541-1.541l-.016.584c-.009.321-.003.618.013.659.023.06.324.072 1.557.06l1.528-.015zM3.795 8.649c-.818-.405-.816-1.607.005-2.004s1.721.279 1.585 1.188a1.11 1.11 0 0 1-1.59.815zm.803-.691c.193-.193.183-.442-.026-.651-.193-.193-.303-.203-.55-.052-.157.096-.182.142-.182.338 0 .286.193.502.448.502.109 0 .224-.051.311-.137zm1.272-3.988l1.05-.037.009-.145c.013-.216-.011-.42-.055-.465-.021-.022-.467-.053-.991-.068a40.59 40.59 0 0 1-1.4-.063c-.34-.026-.473-.016-.552.044-.131.099-.188.538-.093.715.065.122.09.126.525.093.251-.019.929-.052 1.506-.072zm14.454-.013c.024-.023-.279-.684-.673-1.467l-.716-1.425-3.853-.014-3.853-.014-.706 1.425c-.388.784-.693 1.458-.678 1.499.023.061.96.071 5.231.057l5.246-.06zm4.929.013l1.05-.037v-.233c0-.427-.047-.45-.962-.455a21.85 21.85 0 0 1-1.315-.048c-.594-.049-.707-.025-.795.168-.072.159-.087.598-.022.665.023.024.256.028.518.01a57.98 57.98 0 0 1 1.527-.071z" fill="#37699f"/><path d="M1.56 24.149c-.557-.259-1.041-.828-1.217-1.428-.079-.272-.089-1.177-.089-8.495L.368 5.67C.65 4.756 1.451 4.151 2.48 4.072l.492-.037.03-.428c.038-.541.237-.897.609-1.094.241-.127.282-.13 1.808-.13 1.74 0 1.8.01 2.109.362.237.27.292.417.337.898l.036.392h.475.475l.913-1.821.981-1.889c.052-.052 1.067-.07 4.348-.074l4.379.096c.055.056.504.915.999 1.909l.9 1.807h.447c.523 0 .563-.036.563-.517 0-.398.179-.747.495-.967l.243-.169 1.577-.017c1.757-.018 1.918.006 2.199.34.207.246.26.402.298.881l.034.42.483.04c.867.072 1.445.389 1.849 1.014.414.641.388-.021.371 9.228l-.015 8.316-.178.377c-.235.497-.629.914-1.054 1.116l-.336.16H15.1l-13.248-.001zm10.874-.64c.016-.027-.14-.119-.347-.205-.942-.391-1.747-.928-2.535-1.689l-.31-.299-4.087.014-4.087.014-.017.448c-.009.246.013.556.05.689.138.497.613.947 1.079 1.024.345.056 10.221.06 10.255.004zm15.858-.148c.372-.186.658-.511.754-.856.032-.115.058-.414.058-.664v-.456l-1.068-.041c-.588-.023-2.421-.022-4.074.001l-3.006.042-.393.362a7.83 7.83 0 0 1-2.352 1.504c-.245.099-.456.209-.467.244-.016.047 1.313.059 5.096.048l5.117-.015zm-12.324-.426a7 7 0 0 0 2.199-.638c.832-.399 1.389-.788 2.004-1.401 2.322-2.314 2.757-5.931 1.06-8.804-.782-1.323-2.136-2.427-3.7-3.016-.645-.243-1.375-.366-2.378-.402s-1.318.006-2.258.302c-1.866.586-3.493 2-4.284 3.721-.713 1.551-.872 2.937-.534 4.643.116.587.222.896.529 1.541 1.338 2.81 4.281 4.431 7.363 4.056zm-2.102-1.559c-2.153-.454-3.922-2.277-4.345-4.476-.114-.594-.1-1.667.029-2.253.258-1.167.741-2.039 1.597-2.881a5.51 5.51 0 0 1 3.036-1.572c.879-.166 2.076-.04 2.956.31 2.506.998 3.995 3.649 3.535 6.291-.391 2.243-2.026 3.985-4.276 4.556-.672.171-1.791.182-2.532.025zm1.911-.813c1.369-.206 2.54-.92 3.26-1.986.57-.844.85-1.756.845-2.75-.009-1.899-.997-3.485-2.706-4.341-1.858-.93-4.168-.479-5.63 1.1-.705.761-1.105 1.67-1.223 2.782-.186 1.741.652 3.511 2.104 4.442.726.466 1.263.664 2.09.77.566.073.669.071 1.26-.018zm-1.625-.594a4.17 4.17 0 0 1-2.195-1.274 3.86 3.86 0 0 1-1.096-2.568c-.055-.968.11-1.71.544-2.44 1.182-1.99 3.637-2.698 5.66-1.632 1.675.883 2.54 2.665 2.212 4.557-.169.972-.785 1.982-1.562 2.56-1.064.791-2.334 1.075-3.563.798zm-1.628-3.854c.216-.216.261-.419.146-.66-.122-.256-.416-.386-.677-.3a.5.5 0 0 0-.394.543c0 .212.028.276.183.414.249.222.522.223.743.003zm1.11-1.451c.441-.202.643-.89.389-1.327-.328-.565-1.009-.687-1.505-.269-.339.285-.423.743-.214 1.173.245.506.779.676 1.331.422zm-8.072 5.814c1.579 0 2.871-.021 2.871-.047s-.112-.244-.25-.485c-.855-1.501-1.218-3.071-1.092-4.724.11-1.443.633-2.91 1.438-4.032.213-.296.282-.434.234-.463-.069-.043-7.527-.105-7.656-.064-.055.018-.07 1.049-.07 4.909l.042 4.931c.023.024.395.029.826.01s2.076-.035 3.655-.035zm22.333-.034c.08-.031.089-.51.089-4.847l-.07-4.84c-.039-.015-1.515-.02-3.282-.012l-3.212.015.271.373.747 1.024c1.281 1.753 1.825 2.957 2.105 4.658a7.04 7.04 0 0 1 .119 1.788c-.019.628-.06 1.025-.137 1.328s-.092.449-.051.49c.063.063 3.26.087 3.421.025zM10.057 9.615c.669-.545 1.298-.907 2.186-1.258 2.572-1.017 5.693-.542 7.829 1.191l.35.284h4.31c3.387 0 4.319-.015 4.355-.07.025-.039.036-.902.026-1.919-.015-1.45-.037-1.891-.1-2.045-.121-.293-.454-.61-.832-.791l-.336-.161h-12.72c-11.126 0-12.755.01-13.002.084-.367.109-.78.474-.95.838-.13.278-.131.308-.132 2.168 0 1.207.02 1.893.055 1.905.031.01 2.003.01 4.383-.001l4.327-.02zm12.577-.466c-.24-.138-.248-.19-.25-1.511l-.002-1.27.148-.116c.143-.113.208-.116 2.261-.116s2.118.003 2.261.116l.148.116v1.287 1.287l-.138.138-.137.137-2.089-.002c-1.466-.001-2.123-.021-2.201-.066zm3.697-1.501v-.644h-1.541-1.541l-.016.584c-.009.321-.003.618.013.659.023.06.324.072 1.557.06l1.528-.015zM3.795 8.649c-.818-.405-.816-1.607.005-2.004s1.721.279 1.585 1.188a1.11 1.11 0 0 1-1.59.815zm.803-.691c.193-.193.183-.442-.026-.651-.193-.193-.303-.203-.55-.052-.157.096-.182.142-.182.338 0 .286.193.502.448.502.109 0 .224-.051.311-.137zm1.272-3.988l1.05-.037.009-.145c.013-.216-.011-.42-.055-.465-.021-.022-.467-.053-.991-.068a40.59 40.59 0 0 1-1.4-.063c-.34-.026-.473-.016-.552.044-.131.099-.188.538-.093.715.065.122.09.126.525.093.251-.019.929-.052 1.506-.072zm14.454-.013c.024-.023-.279-.684-.673-1.467l-.716-1.425-3.853-.014-3.853-.014-.706 1.425c-.388.784-.693 1.458-.678 1.499.023.061.96.071 5.231.057l5.246-.06zm4.929.013l1.05-.037v-.233c0-.427-.047-.45-.962-.455a21.85 21.85 0 0 1-1.315-.048c-.594-.049-.707-.025-.795.168-.072.159-.087.598-.022.665.023.024.256.028.518.01a57.98 57.98 0 0 1 1.527-.071z" fill="#322e63"/><path d="M1.696 24.15c-.556-.229-.976-.634-1.23-1.186-.127-.275-.127-.28-.155-3.889v-8.459l.028-4.846.182-.372c.371-.759 1.067-1.212 1.947-1.266.246-.015.48-.053.518-.084s.07-.193.07-.402c0-.46.186-.842.514-1.055.236-.153.242-.154 1.276-.159 2.276-.011 2.369.001 2.658.344.218.259.269.409.308.893l.034.42.471.016c.281.01.496-.008.532-.043s.477-.884.986-1.89c.809-1.603.943-1.835 1.075-1.87.083-.021 1.986-.041 4.229-.044l4.214.064c.1.051.382.56 1.064 1.918l.929 1.849h.504.504l.044-.439c.064-.647.244-.949.671-1.127.169-.071.489-.086 1.763-.086 1.763 0 1.807.009 2.11.436.136.192.167.298.189.666.015.241.052.469.083.508s.183.07.354.07c1.065 0 1.846.528 2.207 1.494.111.297.113.424.114 8.588l-.106 8.593c-.202.574-.666 1.104-1.174 1.342l-.262.122-13.164.013-13.164.013zm10.963-.587c.044-.071-.061-.138-.444-.285-.866-.332-1.825-.944-2.589-1.651l-.397-.368-4.109.014-4.109.014-.016.468a2.6 2.6 0 0 0 .068.758c.137.47.612.939 1.061 1.046.253.06 10.498.064 10.536.004zm15.676-.137c.368-.181.675-.536.779-.9.076-.268.096-1.123.028-1.191-.026-.026-1.884-.047-4.13-.047h-4.083l-.324.315c-.728.708-1.577 1.25-2.579 1.648-.498.198-.563.242-.48.326.021.021 2.384.032 5.252.023l5.214-.015zm-11.723-.514a7.97 7.97 0 0 0 2.539-1.075c.965-.638 1.981-1.832 2.498-2.934.506-1.081.65-1.76.649-3.078 0-1.39-.154-2.054-.759-3.283-.447-.908-.774-1.341-1.55-2.048-.758-.691-1.637-1.206-2.621-1.535-.843-.282-1.552-.375-2.633-.345-.824.023-.951.041-1.573.225-1.286.38-2.318.985-3.217 1.887-.822.824-1.319 1.642-1.734 2.851-.279.812-.357 1.414-.32 2.473.038 1.115.189 1.842.545 2.634.438.972.912 1.641 1.694 2.389 1.046 1 2.144 1.571 3.596 1.872.639.132 2.223.114 2.885-.033zm-2.53-1.542c-1.034-.174-2.1-.733-2.894-1.516-.722-.712-1.107-1.328-1.447-2.32l-.211-.616v-1.036c0-1.138.056-1.45.415-2.311.527-1.267 1.759-2.484 2.996-2.961 1.08-.417 1.984-.524 3.028-.36 1.794.282 3.306 1.396 4.146 3.055a5.78 5.78 0 0 1 .504 3.492c-.109.626-.202.899-.535 1.578-.709 1.446-2.039 2.502-3.674 2.916-.451.114-.663.136-1.302.13a9.83 9.83 0 0 1-1.025-.051zm2.222-.804c.843-.23 1.595-.65 2.203-1.231.583-.558.976-1.208 1.276-2.109.149-.447.158-.535.16-1.428.001-.901-.007-.976-.156-1.399-.086-.246-.274-.674-.418-.952-.351-.682-1.156-1.5-1.86-1.894-1.326-.741-2.76-.85-4.145-.316-.706.272-1.108.543-1.738 1.172-.467.466-.637.681-.821 1.037-.484.938-.692 1.974-.581 2.886.185 1.525.932 2.761 2.148 3.553.583.38.948.545 1.468.665l.504.117c.25.06 1.635-.011 1.961-.1zm-2.126-.687a4.17 4.17 0 0 1-2.474-1.621c-.538-.753-.756-1.472-.755-2.482.002-1.163.367-2.049 1.181-2.862a5.3 5.3 0 0 1 .84-.688 4.86 4.86 0 0 1 1.883-.576 4.18 4.18 0 0 1 3.898 2.188 3.69 3.69 0 0 1 .478 1.767c.036.84-.067 1.365-.402 2.042-.555 1.123-1.515 1.898-2.744 2.212a4.71 4.71 0 0 1-1.907.021zm-1.625-3.736c.24-.24.291-.441.176-.684-.192-.403-.686-.512-.993-.218-.213.204-.26.458-.135.722.192.404.643.49.952.18zm1.074-1.419c.108-.051.269-.192.356-.313.638-.881-.33-2.017-1.298-1.523a1.04 1.04 0 0 0-.003 1.815 1.2 1.2 0 0 0 .945.02zm-5.117 5.75c.027-.026-.039-.191-.148-.373-.5-.83-.806-1.562-1.038-2.481-.137-.543-.149-.683-.15-1.739-.001-1.262.038-1.52.395-2.633.214-.667.522-1.297.908-1.862.411-.602.436-.649.375-.709s-7.699-.105-7.801-.042c-.087.054-.101 9.784-.014 9.871.067.067 7.401.035 7.473-.033zm20.542-.001c.106-.057.108-.17.108-4.898l-.07-4.885c-.039-.025-1.79-.054-3.893-.065-3.362-.018-3.827-.01-3.855.064-.02.051.113.28.336.58.655.883.996 1.678 1.275 2.977.184.853.182 2.226-.003 3.149-.19.949-.577 1.932-1.056 2.681-.106.165-.179.336-.162.378.025.065.615.077 3.62.077 2.368 0 3.628-.02 3.699-.058zM10.278 9.506c2.718-2.041 6.351-2.177 9.164-.343a9.4 9.4 0 0 1 .708.509l.26.217h4.341c3.691 0 4.351-.012 4.407-.08.049-.059.062-.569.049-1.947-.017-1.819-.021-1.873-.147-2.129-.155-.315-.491-.631-.844-.794l-.259-.12H15.1l-13.067.074c-.343.122-.802.582-.936.941-.11.293-.115.407-.101 2.168l.015 1.859.364.028c.2.015 2.172.02 4.382.011l4.018-.017zm12.308-.462l-.148-.116V7.672c0-1.182.007-1.263.112-1.368s.187-.112 2.241-.112 2.133.004 2.241.112.112.187.112 1.372-.007 1.267-.112 1.372-.187.112-2.205.112c-2.033 0-2.097-.003-2.241-.116zm3.783-.711c.028-.028.043-.351.034-.718l-.016-.668h-1.597-1.597l-.016.672c-.013.543 0 .683.068.733.102.075 3.047.057 3.123-.019zm-22.501.3c-.348-.155-.644-.615-.644-1 0-.269.244-.718.477-.875.208-.141.641-.215.891-.152.203.051.524.35.658.613.24.47.019 1.139-.455 1.381-.256.131-.675.146-.926.034zm.761-.645c.38-.38.006-1.03-.484-.843-.275.105-.361.218-.361.478a.39.39 0 0 0 .172.383c.233.196.463.19.672-.019zm2.362-3.964c.023-.014.042-.171.042-.349 0-.51.037-.497-1.598-.54-1.344-.036-1.405-.033-1.538.074-.122.099-.137.151-.128.463.006.215.038.371.082.401.07.048 3.054.001 3.139-.05zm13.304.059c.069-.019.126-.075.125-.126s-.324-.734-.718-1.52l-.717-1.428h-3.889-3.889l-.398.784c-.676 1.332-1.045 2.149-1.012 2.237.029.074.647.085 5.202.086l5.296-.033zm6.077-.098c.06-.091.052-.529-.012-.648a.36.36 0 0 0-.154-.142c-.124-.05-2.629-.101-2.806-.057-.231.058-.374.607-.229.878.06.112.088.113 1.611.073 1.041-.027 1.563-.061 1.591-.104z" fill="#0b0724"/></svg>