<svg xmlns="http://www.w3.org/2000/svg" width="136.063" height="136.063" viewBox="0 0 36 36" xmlns:v="https://vecta.io/nano"><g transform="matrix(-.265413 0 0 -.265413 44.167503 48.772886)"><path d="M97.372 182.709c-.788-.446-8.408-8.172-18.954-19.215-6.602-6.914-6.532-6.829-6.532-7.893 0-.497.155-1.125.345-1.396.685-.978 1.37-1.083 7.06-1.083h5.302l-.056-5.98-.056-5.98-17.78-.106c-15.94-.095-17.871-.142-18.655-.458-2.881-1.16-5.15-3.796-5.766-6.696-.17-.801-.238-9.855-.238-31.659l.341-31.687c1.186-3.996 3.964-6.323 8.182-6.854l1.955-.246-.064-.589c-.112-1.029.384-2.819 1.025-3.705a5.38 5.38 0 0 1 1.523-1.338c.864-.461 1.144-.485 6.548-.547 6.357-.074 6.96.013 8.263 1.188 1.151 1.038 1.638 2.156 1.644 3.776.005 1.539.082 1.593 1.982 1.416l1.348-.126 3.361-6.769c1.984-3.995 3.569-6.933 3.869-7.169.488-.384 1.143-.4 16.45-.4 11.919 0 16.083.064 16.498.253.448.204 1.212 1.589 3.957 7.174 3.275 6.665 3.426 6.925 4.065 7.029.365.059 1.113.057 1.662-.005l.999-.113v-1.059c0-2.237.977-3.863 2.843-4.732 1.041-.485 1.238-.5 6.577-.501 3.194-.001 5.839.092 6.303.221 1.865.518 3.116 2.332 3.116 4.517 0 .754.096 1.431.213 1.503s1.03.216 2.03.319c3.121.322 5.451 1.732 6.943 4.202s1.397.147 1.397 34.207c0 33.594.061 31.896-1.224 34.268-.821 1.516-2.349 2.954-4.004 3.769l-1.43.704-17.891.106-17.891.106v5.927 5.927l5.503.106c5.757.111 6.104.168 6.762 1.107.437.624.415 2.041-.043 2.726-.551.824-24.385 25.444-24.901 25.723-.968.522-1.7.531-2.581.032zm-47.711-47.553c0-1.265.088-1.952.27-2.103s4.898-.223 14.835-.22l14.632-.067c.037-.039-.671-.746-1.573-1.572l-1.64-1.502-13.209-.074-15.22-.086-2.011-.012.033 1.865c.028 1.587.122 2.044.635 3.069.63 1.261 2.084 2.58 2.841 2.58.371 0 .407-.166.407-1.879zm95.57-2.659c.834-.348 1.583-1.432 1.585-2.291l.001-.585-7.097.056-7.097.056-.847 1.535-.847 1.535h6.787c5.428 0 6.933-.061 7.517-.305zm-43.448-.551c2.941-.558 4.983-1.234 7.409-2.451 2.652-1.331 4.272-2.526 6.192-4.567 3.733-3.968 5.663-8.105 6.472-13.871.713-5.077-.938-11.749-4.059-16.402-2.826-4.213-6.939-7.356-11.903-9.093-1.3-.455-2.757-1.106-3.238-1.447s-1.766-1.059-2.858-1.597c-1.978-.974-1.99-.976-3.678-.852-5.879.431-12.321 3.468-16.749 7.896-3.964 3.964-6.762 9.776-7.49 15.557-.336 2.673-.201 5.95.287 6.96.475.981 2.345 3.081 3.087 3.464.384.199.662.59.839 1.178 1.528 5.099 5.767 10.037 11.075 12.9 1.787.964 5.358 2.248 7.03 2.528 1.997.334 5.203.249 7.582-.203zm-4.92-1.611c-4.383-.418-8.244-1.839-11.363-4.184-1.565-1.177-4.037-3.78-5.161-5.434-4.309-6.345-4.911-14.687-1.57-21.741 1.218-2.572 2.393-4.189 4.577-6.301 2.174-2.102 3.907-3.288 6.361-4.352 2.973-1.289 4.772-1.703 7.908-1.82 6.267-.232 11.364 1.673 15.891 5.94 1.936 1.825 4.215 5.033 5.077 7.148 1.311 3.215 1.598 4.56 1.714 8.023.13 3.907-.168 5.763-1.444 8.974-1.409 3.545-3.288 6.15-6.227 8.628-2.2 1.856-4.207 2.992-7.066 3.999-2.867 1.01-5.842 1.393-8.7 1.121zm-8.202-21.264c.568-.685.48-1.764-.187-2.289-1.21-.951-2.617-.285-2.617 1.239 0 1.56 1.816 2.24 2.805 1.05zm4.264-5.324c2.217-1.271 2.164-4.791-.088-5.923-2.325-1.168-4.861.351-4.863 2.913-.001 1.419.555 2.405 1.695 3.008 1.147.606 2.2.607 3.256.002zm-43.316 3.813l-.054-18.256H47.65h-1.905l-.055 17.992.046 18.256c.07.185.678.265 2.014.265h1.913zm29.976-23.268c3.11-2.524 7.89-4.808 12.179-5.821 3.304-.78 8.284-.913 11.766-.313 5.41.931 10.423 3.174 14.325 6.409l.99.821h13.961 13.961l.093-8.837.012-8.996c-.045-.087-21.864-.158-48.487-.157l-48.406.002-1.058.501c-1.251.592-2.267 1.603-2.791 2.776-.332.743-.387 1.669-.45 7.585l.023 6.985c.071.186 4.098.229 16.34.172l16.245-.075zm46.693-1.028c-.777-.832-.891-1.781-.803-6.697.067-3.741.083-3.861.585-4.396.284-.302.856-.649 1.27-.771.484-.143 3.496-.198 8.423-.155l7.669.067.692.692.692.692v4.987 4.987l-.691.618-.691.618h-8.273-8.273zm-69.692-1.141c-1.988-.534-3.32-2.158-3.494-4.259-.113-1.365.226-2.446 1.07-3.407.947-1.079 2.159-1.64 3.543-1.64 3.939 0 6.108 4.7 3.582 7.762-1.189 1.441-2.942 2.017-4.701 1.544zm74.949-18.507c.189-.12.256-.568.212-1.426-.062-1.196-.09-1.253-.66-1.319a1.96 1.96 0 0 0-1.111.269c-.428.28-.515.511-.515 1.356 0 .56.064 1.082.141 1.159.199.199 1.603.17 1.934-.041zm-72.984-1.296c0-1.164-.041-1.276-.514-1.395-.584-.147-1.421.063-1.652.414-.086.13-.157.688-.159 1.241l-.003 1.005h1.164 1.164zm23.516-.289c.419-.797.876-1.52 1.016-1.607s6.842-.177 14.894-.201l14.713-.117c.04-.04-.457-1.129-1.104-2.42s-1.177-2.495-1.177-2.677c0-.639-.828-1.952-1.313-2.082-.694-.186-24.568-.161-24.853.026-.245.161-5.16 10.129-5.16 10.466 0 .104.5.161 1.111.126l1.111-.064z" fill="#9a95ae"/><path d="M97.594 182.765c-.423-.171-8.911-8.804-18.22-18.53-7.455-7.789-7.276-7.579-7.276-8.575 0-.906.42-1.749 1.018-2.044.197-.097 2.882-.224 5.967-.282l5.609-.106.056-5.901c.04-4.177-.014-5.986-.185-6.191-.201-.242-3.139-.29-17.533-.29-18.818 0-18.384.025-20.469-1.194-1.303-.762-2.767-2.443-3.529-4.05l-.674-1.423v-31.75-31.75l.766-1.588c1.597-3.309 4.8-5.292 8.545-5.292h.893l.121-1.595c.181-2.392 1.18-3.847 3.094-4.507.481-.166 2.583-.247 6.35-.243 5.028.004 5.721.047 6.477.397 1.659.768 2.646 2.347 2.646 4.231 0 1.692.029 1.717 1.935 1.717h1.678l3.381-6.826c1.86-3.754 3.581-6.993 3.826-7.197.415-.346 1.518-.37 16.461-.37 14.349 0 16.067.035 16.5.339.299.209 1.778 2.97 3.861 7.205l3.377 6.866 1.742-.061 1.742-.061.119-1.482c.142-1.767.627-2.868 1.624-3.69 1.222-1.008 1.965-1.101 8.221-1.031l5.731.064.872.577c1.288.853 1.96 2.143 2.103 4.04l.118 1.563 2.055.223c3.236.352 5.403 1.628 6.859 4.038 1.497 2.477 1.401.131 1.401 34.344l-.399 32.127c-.219.705-.64 1.693-.935 2.196-.753 1.285-2.487 2.839-3.912 3.508l-1.21.567-17.764.058-18.045.291c-.22.183-.281 1.453-.281 5.905 0 3.119.058 5.822.128 6.007.112.293.799.335 5.517.335 3.552 0 5.546.081 5.851.236 1.255.642 1.603 2.316.727 3.5-.418.566-13.447 14.116-21.521 22.383-3.27 3.348-4.093 3.85-5.423 3.312zM50.04 135.289l.061-1.852h15.144l15.073-.191c-.039-.105-.939-1.007-2.001-2.005l-1.93-1.813-15.3-.019c-12.41-.016-15.335.033-15.486.258-.294.439.041 3.566.499 4.642.635 1.495 2.439 2.998 3.456 2.881.382-.044.429-.229.484-1.901zm95.432-2.29c1.147-.555 1.818-1.594 1.728-2.677l-.066-.8-7.091-.059c-3.9-.032-7.295-.009-7.544.051-.277.067-.676.542-1.029 1.223-.317.612-.708 1.263-.87 1.447s-.294.541-.294.794v.46h7.13c6.779 0 7.174-.022 8.035-.438zm-43.246-.543c3.301-.621 7.165-2.19 9.924-4.032 1.534-1.024 5.253-4.689 6.18-6.09 1.06-1.603 2.558-4.695 3.056-6.309.955-3.092 1.409-8.054.978-10.687-.76-4.645-1.897-7.647-4.189-11.059-1.953-2.906-4.476-5.249-7.827-7.265-1.88-1.131-2.656-1.484-4.594-2.091-.756-.237-2.617-1.077-4.135-1.867-3.281-1.707-4.172-1.886-6.986-1.4-9.193 1.588-16.633 7.007-20.312 14.795-2.589 5.481-3.383 10.574-2.444 15.681.504 2.741 1.175 5.128 1.499 5.327.113.07.206-.016.206-.191s.227-.582.505-.905c.435-.506.552-.548.847-.303.188.156.342.371.342.477 0 .499 2.572 5.318 3.562 6.674 2.009 2.752 5.365 5.562 8.543 7.153 4.843 2.424 9.549 3.087 14.848 2.091zm-7.938-2.737c-6.115-1.106-12.153-5.688-15.046-11.416-.846-1.675-1.783-4.522-2.066-6.277-.381-2.363-.172-6.813.426-9.069 1.013-3.82 3.039-7.249 5.955-10.078 2.959-2.872 5.805-4.457 10.124-5.639 2.178-.596 6.753-.641 9.305-.091 9.913 2.136 17.16 11.137 17.16 21.311 0 10.24-7.296 19.156-17.416 21.285-1.821.383-6.256.369-8.442-.027zm-5.88-19.995c.477-.255 1.047-1.274 1.047-1.872 0-.572-.942-1.645-1.585-1.806-.799-.201-1.897.352-2.212 1.115-.711 1.717 1.129 3.432 2.751 2.564zm4.44-5.762c2.3-1.161 2.577-4.427.508-6.005-.684-.522-.991-.61-2.124-.61-1.486 0-2.157.358-3.014 1.607-.415.605-.482.927-.416 2 .096 1.553.63 2.401 1.914 3.037 1.155.572 1.955.564 3.131-.03zm-43.081 3.545V89.092l-1.886-.062c-1.037-.034-1.972.025-2.078.131-.155.155-.21 12.416-.165 36.292l.001.59 2.064-.061 2.064-.061zm30.085-23.041c7.893-6.322 18.784-8.125 28.759-4.762 3.034 1.023 7.208 3.374 9.222 5.193l.796.719 14.226-.013 14.411-.127c.102-.063.185-4.097.185-8.966 0-7.213-.053-8.896-.288-9.091-.213-.177-12.993-.225-48.948-.185l-48.659.055-.861.461c-1.031.552-2.346 1.957-2.761 2.949-.237.568-.302 2.172-.309 7.703l.089 7.144c.054.087 7.451.125 16.439.083l16.341-.075zm47.143-.981c-1.062-.429-1.134-.804-1.134-5.957v-4.802l.651-.548.651-.548h8.011 8.011l.651.548.651.548v4.866 4.866l-.619.619-.619.619-7.901-.013c-4.345-.007-8.105-.096-8.354-.196zm-71.191-1.96c-1.872-.957-2.873-3.059-2.366-4.974.945-3.571 5.308-4.631 7.603-1.846 1.436 1.743 1.439 4.096.006 5.727-1.389 1.582-3.446 2.011-5.243 1.093zm2.863-17.993c.056-.146.125-.789.152-1.429l.05-1.162-1.158-.066c-.91-.052-1.216.014-1.429.305-.281.384-.378 2.229-.13 2.477.262.262 2.407.155 2.514-.125zm23.009-.104c.182-.204.555-.847.83-1.429l.499-1.058 15.128-.106c13.831-.097 15.134-.136 15.195-.455.037-.192-.462-1.371-1.108-2.621s-1.176-2.402-1.176-2.562c0-.215.352-.29 1.373-.29h1.373l-.448-.922-.448-.922-2.777-.148c-3.646-.195-25.25-.386-25.748-.228-.384.122-5.498 10.179-5.498 10.812 0 .472 2.374.411 2.805-.072zm50.368-.794c.085-.582.103-1.225.041-1.428-.135-.438-.937-.68-1.658-.499-.892.224-1.179.699-1.179 1.953v1.159l1.321-.063 1.321-.063z" fill="#8e7bb1"/><path d="M97.603 182.669c-.521-.23-10.968-10.852-20.213-20.552-5.775-6.058-5.293-5.467-5.293-6.498 0-.769.116-1.049.648-1.559l.648-.622 5.649-.106 5.649-.106v-6.138-6.138l-17.897-.106-17.897-.106-1.613-.797c-1.713-.847-3.222-2.279-3.992-3.789-1.074-2.106-1.04-.997-1.04-33.725 0-32.877-.041-31.607 1.081-33.805 1.45-2.842 4.936-4.824 8.483-4.824.444 0 .817-.071.829-.159s.053-.749.091-1.471.229-1.648.424-2.059c.478-1.008 1.796-2.161 2.783-2.435 1.063-.295 11.131-.297 12.192-.002.941.261 2.15 1.264 2.638 2.188.191.361.4 1.361.465 2.222.145 1.917.29 2.037 2.207 1.832l1.421-.152 3.48-6.958c2.06-4.119 3.649-7.048 3.894-7.179.277-.148 5.675-.221 16.385-.221 14.9 0 16.001.025 16.416.37.244.204 1.963 3.437 3.82 7.184l3.375 6.814.786.148c.433.081 1.225.063 1.76-.041l.974-.188.116-1.486c.153-1.959.805-3.15 2.196-4.009l1.042-.644h6.049c5.724 0 6.095.024 6.896.442a5.01 5.01 0 0 1 1.466 1.319c.517.731.64 1.156.743 2.559.068.925.185 1.743.259 1.818s1.007.218 2.071.317c3.572.335 5.892 1.919 7.382 5.037l.779 1.631.056 31.096c.062 34.369.133 32.449-1.281 34.807-.922 1.537-2.646 3.071-4.12 3.667l-1.216.491-17.886.106-17.886.106v6.138 6.138l5.68.106 5.68.106.617.691c.463.519.617.902.617 1.536 0 .986-.266 1.305-5.906 7.092l-11.31 11.69c-8.574 8.89-8.611 8.921-10.195 8.221zM87.5 137.155c.032-.032-.396-.23-.951-.438s-1.951-.913-3.102-1.565c-1.945-1.103-2.733-1.725-5.835-4.606l-1.175-1.092-15.24-.065c-8.382-.036-15.372.017-15.534.117-.23.142-.267.567-.169 1.949.181 2.563.903 4.027 2.58 5.23.59.423.958.463 5.186.561 4.463.104 34.124.024 34.24-.091zm60.178-.124c.603-.162 1.246-.595 1.988-1.336 1.261-1.261 1.596-2.215 1.596-4.55v-1.469l-4.036-.155c-2.22-.085-9.05-.084-15.178.002l-11.142.158-1.605 1.414c-2.631 2.319-3.878 3.168-6.896 4.694l-2.87 1.452 5.676.056c12.821.127 31.578-.026 32.467-.265zm-44.148-2.226c5.293-.942 9.999-3.427 14.001-7.39 4.651-4.606 7.26-10.348 7.7-16.944.381-5.716-.675-10.477-3.441-15.518-2.878-5.244-8.689-9.944-14.81-11.98-2.55-.848-9.459-1.757-11.436-1.505-9.437 1.204-18.001 7.373-21.529 15.507-1.729 3.986-2.549 7.64-2.551 11.367-.003 4.89 1.814 10.621 4.783 15.083 3.049 4.582 7.749 8.29 12.931 10.2 1.574.58 4.879 1.372 6.626 1.588 1.369.169 5.804-.065 7.726-.407zm-8.467-4.976c-7.022-1.089-13.702-6.359-16.43-12.963-1.266-3.064-1.552-4.589-1.557-8.3-.005-3.994.402-5.949 1.905-9.151 3.278-6.982 9.214-11.361 16.929-12.489 3.953-.578 8.167.137 12.065 2.047 6.287 3.08 10.803 9.288 11.864 16.312.387 2.563.384 4.063-.016 6.527-1.365 8.419-7.342 15.105-15.659 17.516-1.554.451-2.45.566-4.868.625-1.63.04-3.535-.016-4.233-.124zm-6.386-20.32c1.104-.868.933-2.644-.316-3.29-.904-.467-1.623-.368-2.31.319-.811.811-.837 1.841-.071 2.752.674.801 1.836.895 2.696.219zm4.155-5.489c1.218-.621 1.779-1.54 1.873-3.065.066-1.073-.001-1.395-.416-2-.763-1.112-1.51-1.56-2.78-1.665-1.302-.108-2.025.185-3.007 1.217-.585.615-.635.788-.635 2.188 0 1.819.505 2.713 1.884 3.34 1.123.51 2.061.505 3.081-.015zm-43.011 3.541l-.054-18.468-1.993-.061c-1.452-.045-2.04.013-2.166.212-.206.324-.244 36.439-.039 36.644.078.078 1.078.141 2.224.141h2.083zm30.387-23.31c3.709-2.783 8.172-4.781 12.633-5.657 3.119-.612 7.755-.653 10.901-.096 5.023.89 10.153 3.225 14.04 6.392l1.147.934 14.208-.086 14.843-.19c.349-.057 1.235-.117 1.968-.132l1.333-.027-.063-7.144-.063-7.144-.572-.972c-.631-1.073-1.471-1.783-2.935-2.482l-.966-.461H98.311 49.94l-1.284.641c-1.324.661-2.138 1.518-2.761 2.904-.304.677-.367 1.768-.429 7.435-.04 3.653-.015 6.868.054 7.144l.126.502 16.241-.001 16.241-.001zm47.006-.763c-.246-.099-.651-.44-.9-.756-.431-.548-.453-.796-.453-5.22v-4.644l.619-.619.619-.619h8.076 8.076l.619.619.619.619v4.687c0 2.81-.087 4.85-.218 5.094-.534.999-.962 1.047-9.032 1.033-4.168-.007-7.779-.095-8.025-.194zm-70.885-1.755c-1.894-.775-2.928-2.25-2.928-4.176 0-4.518 5.76-6.077 8.046-2.177 1.611 2.748-.246 6.362-3.364 6.547-.615.036-1.404-.051-1.754-.194zm75.729-18.077c.143-.089.736-.164 1.318-.168l1.058-.007.063-1.199.063-1.199-1.439-.131c-2.859-.26-3.261-.239-3.577.194-.373.511-.397 2.571-.031 2.736.338.152 2.204-.014 2.545-.226zm-70.702-.21c.087-.053.159-.606.159-1.23v-1.134l-1.535-.129c-3.044-.255-3.357-.239-3.673.194-.311.425-.41 2.254-.137 2.532.158.161 4.885-.05 5.186-.232zm56.658.015c.055-.055-.724-1.739-1.731-3.744l-2.57-5.289-.74-1.644-1.864-.036c-1.025-.02-7.532-.042-14.458-.049l-12.594-.013-2.673 5.398c-1.47 2.969-2.646 5.445-2.613 5.503.076.134 39.109.009 39.243-.125z" fill="#3e8ebc"/><path d="M97.603 182.669c-.521-.23-10.968-10.852-20.213-20.552-5.775-6.058-5.293-5.467-5.293-6.498 0-.769.116-1.049.648-1.559l.648-.622 5.649-.106 5.649-.106v-6.138-6.138l-17.897-.106-17.897-.106-1.613-.797c-1.713-.847-3.222-2.279-3.992-3.789-1.074-2.106-1.04-.997-1.04-33.725 0-32.877-.041-31.607 1.081-33.805 1.45-2.842 4.936-4.824 8.483-4.824.444 0 .817-.071.829-.159s.053-.749.091-1.471.229-1.648.424-2.059c.478-1.008 1.796-2.161 2.783-2.435 1.063-.295 11.131-.297 12.192-.002.941.261 2.15 1.264 2.638 2.188.191.361.4 1.361.465 2.222.145 1.917.29 2.037 2.207 1.832l1.421-.152 3.48-6.958c2.06-4.119 3.649-7.048 3.894-7.179.277-.148 5.675-.221 16.385-.221 14.9 0 16.001.025 16.416.37.244.204 1.963 3.437 3.82 7.184l3.375 6.814.786.148c.433.081 1.225.063 1.76-.041l.974-.188.116-1.486c.153-1.959.805-3.15 2.196-4.009l1.042-.644h6.049c5.724 0 6.095.024 6.896.442a5.01 5.01 0 0 1 1.466 1.319c.517.731.64 1.156.743 2.559.068.925.185 1.743.259 1.818s1.007.218 2.071.317c3.572.335 5.892 1.919 7.382 5.037l.779 1.631.056 31.096c.062 34.369.133 32.449-1.281 34.807-.922 1.537-2.646 3.071-4.12 3.667l-1.216.491-17.886.106-17.886.106v6.138 6.138l5.68.106 5.68.106.617.691c.463.519.617.902.617 1.536 0 .986-.266 1.305-5.906 7.092l-11.31 11.69c-8.574 8.89-8.611 8.921-10.195 8.221zM87.5 137.155c.032-.032-.396-.23-.951-.438s-1.951-.913-3.102-1.565c-1.945-1.103-2.733-1.725-5.835-4.606l-1.175-1.092-15.24-.065c-8.382-.036-15.372.017-15.534.117-.23.142-.267.567-.169 1.949.181 2.563.903 4.027 2.58 5.23.59.423.958.463 5.186.561 4.463.104 34.124.024 34.24-.091zm60.178-.124c.603-.162 1.246-.595 1.988-1.336 1.261-1.261 1.596-2.215 1.596-4.55v-1.469l-4.036-.155c-2.22-.085-9.05-.084-15.178.002l-11.142.158-1.605 1.414c-2.631 2.319-3.878 3.168-6.896 4.694l-2.87 1.452 5.676.056c12.821.127 31.578-.026 32.467-.265zm-44.148-2.226c5.293-.942 9.999-3.427 14.001-7.39 4.651-4.606 7.26-10.348 7.7-16.944.381-5.716-.675-10.477-3.441-15.518-2.878-5.244-8.689-9.944-14.81-11.98-2.55-.848-9.459-1.757-11.436-1.505-9.437 1.204-18.001 7.373-21.529 15.507-1.729 3.986-2.549 7.64-2.551 11.367-.003 4.89 1.814 10.621 4.783 15.083 3.049 4.582 7.749 8.29 12.931 10.2 1.574.58 4.879 1.372 6.626 1.588 1.369.169 5.804-.065 7.726-.407zm-8.467-4.976c-7.022-1.089-13.702-6.359-16.43-12.963-1.266-3.064-1.552-4.589-1.557-8.3-.005-3.994.402-5.949 1.905-9.151 3.278-6.982 9.214-11.361 16.929-12.489 3.953-.578 8.167.137 12.065 2.047 6.287 3.08 10.803 9.288 11.864 16.312.387 2.563.384 4.063-.016 6.527-1.365 8.419-7.342 15.105-15.659 17.516-1.554.451-2.45.566-4.868.625-1.63.04-3.535-.016-4.233-.124zm-6.386-20.32c1.104-.868.933-2.644-.316-3.29-.904-.467-1.623-.368-2.31.319-.811.811-.837 1.841-.071 2.752.674.801 1.836.895 2.696.219zm4.155-5.489c1.218-.621 1.779-1.54 1.873-3.065.066-1.073-.001-1.395-.416-2-.763-1.112-1.51-1.56-2.78-1.665-1.302-.108-2.025.185-3.007 1.217-.585.615-.635.788-.635 2.188 0 1.819.505 2.713 1.884 3.34 1.123.51 2.061.505 3.081-.015zm-20.163 21.689c.163-.053-.274-1.117-1.215-2.964-2.597-5.096-3.438-8.516-3.46-14.073-.013-3.348.055-4.233.471-6.105.976-4.392 2.573-8.17 4.895-11.576l1.033-1.516-4.587-.144c-2.523-.079-7.968-.152-12.101-.162l-9.711-.12c-1.699-.079-2.238-.038-2.378.183-.181.285-.272 36.431-.092 36.611.115.115 26.784-.015 27.146-.132zm7.539-41.459c3.709-2.783 8.172-4.781 12.633-5.657 3.119-.612 7.755-.653 10.901-.096 5.023.89 10.153 3.225 14.04 6.392l1.147.934 14.208-.086 14.843-.19c.349-.057 1.235-.117 1.968-.132l1.333-.027-.063-7.144-.063-7.144-.572-.972c-.631-1.073-1.471-1.783-2.935-2.482l-.966-.461H98.311 49.94l-1.284.641c-1.324.661-2.138 1.518-2.761 2.904-.304.677-.367 1.768-.429 7.435-.04 3.653-.015 6.868.054 7.144l.126.502 16.241-.001 16.241-.001zm47.006-.763c-.246-.099-.651-.44-.9-.756-.431-.548-.453-.796-.453-5.22v-4.644l.619-.619.619-.619h8.076 8.076l.619.619.619.619v4.687c0 2.81-.087 4.85-.218 5.094-.534.999-.962 1.047-9.032 1.033-4.168-.007-7.779-.095-8.025-.194zm-70.885-1.755c-1.894-.775-2.928-2.25-2.928-4.176 0-4.518 5.76-6.077 8.046-2.177 1.611 2.748-.246 6.362-3.364 6.547-.615.036-1.404-.051-1.754-.194zm75.729-18.077c.143-.089.736-.164 1.318-.168l1.058-.007.063-1.199.063-1.199-1.439-.131c-2.859-.26-3.261-.239-3.577.194-.373.511-.397 2.571-.031 2.736.338.152 2.204-.014 2.545-.226zm-70.702-.21c.087-.053.159-.606.159-1.23v-1.134l-1.535-.129c-3.044-.255-3.357-.239-3.673.194-.311.425-.41 2.254-.137 2.532.158.161 4.885-.05 5.186-.232zm56.658.015c.055-.055-.724-1.739-1.731-3.744l-2.57-5.289-.74-1.644-1.864-.036c-1.025-.02-7.532-.042-14.458-.049l-12.594-.013-2.673 5.398c-1.47 2.969-2.646 5.445-2.613 5.503.076.134 39.109.009 39.243-.125z" fill="#d33860"/><path d="M97.603 182.669c-.521-.23-10.968-10.852-20.213-20.552-5.775-6.058-5.293-5.467-5.293-6.498 0-.769.116-1.049.648-1.559l.648-.622 5.649-.106 5.649-.106v-6.138-6.138l-17.897-.106-17.897-.106-1.613-.797c-1.713-.847-3.222-2.279-3.992-3.789-1.074-2.106-1.04-.997-1.04-33.725 0-32.877-.041-31.607 1.081-33.805 1.45-2.842 4.936-4.824 8.483-4.824.444 0 .817-.071.829-.159s.053-.749.091-1.471.229-1.648.424-2.059c.478-1.008 1.796-2.161 2.783-2.435 1.063-.295 11.131-.297 12.192-.002.941.261 2.15 1.264 2.638 2.188.191.361.4 1.361.465 2.222.145 1.917.29 2.037 2.207 1.832l1.421-.152 3.48-6.958c2.06-4.119 3.649-7.048 3.894-7.179.277-.148 5.675-.221 16.385-.221 14.9 0 16.001.025 16.416.37.244.204 1.963 3.437 3.82 7.184l3.375 6.814.786.148c.433.081 1.225.063 1.76-.041l.974-.188.116-1.486c.153-1.959.805-3.15 2.196-4.009l1.042-.644h6.049c5.724 0 6.095.024 6.896.442a5.01 5.01 0 0 1 1.466 1.319c.517.731.64 1.156.743 2.559.068.925.185 1.743.259 1.818s1.007.218 2.071.317c3.572.335 5.892 1.919 7.382 5.037l.779 1.631.056 31.096c.062 34.369.133 32.449-1.281 34.807-.922 1.537-2.646 3.071-4.12 3.667l-1.216.491-17.886.106-17.886.106v6.138 6.138l5.68.106 5.68.106.617.691c.463.519.617.902.617 1.536 0 .986-.266 1.305-5.906 7.092l-11.31 11.69c-8.574 8.89-8.611 8.921-10.195 8.221zm1.918-4.624c.756-.847 4.677-4.928 15.396-16.024 2.531-2.62 4.511-4.834 4.411-4.933s-2.25-.238-4.78-.308c-3.76-.104-4.674-.189-5.008-.464-.365-.301-.419-.707-.509-3.829l-.241-7.342-.141-3.85-5.206-.088c-9.372-.159-14.932-.14-15.124.053-.104.104-.233 3.458-.288 7.454-.076 5.618-.162 7.331-.378 7.557s-1.371.303-5.284.347c-2.753.031-5.057.108-5.121.172-.212.212.498 1.003 5.988 6.674l15.274 15.482c.114 0 .568-.405 1.01-.9zM87.5 137.155c.032-.032-.396-.23-.951-.438s-1.951-.913-3.102-1.565c-1.945-1.103-2.733-1.725-5.835-4.606l-1.175-1.092-15.24-.065c-8.382-.036-15.372.017-15.534.117-.23.142-.267.567-.169 1.949.181 2.563.903 4.027 2.58 5.23.59.423.958.463 5.186.561 4.463.104 34.124.024 34.24-.091zm60.178-.124c.603-.162 1.246-.595 1.988-1.336 1.261-1.261 1.596-2.215 1.596-4.55v-1.469l-4.036-.155c-2.22-.085-9.05-.084-15.178.002l-11.142.158-1.605 1.414c-2.631 2.319-3.878 3.168-6.896 4.694l-2.87 1.452 5.676.056c12.821.127 31.578-.026 32.467-.265zm-44.148-2.226c5.293-.942 9.999-3.427 14.001-7.39 4.651-4.606 7.26-10.348 7.7-16.944.381-5.716-.675-10.477-3.441-15.518-2.878-5.244-8.689-9.944-14.81-11.98-2.55-.848-9.459-1.757-11.436-1.505-9.437 1.204-18.001 7.373-21.529 15.507-1.729 3.986-2.549 7.64-2.551 11.367-.003 4.89 1.814 10.621 4.783 15.083 3.049 4.582 7.749 8.29 12.931 10.2 1.574.58 4.879 1.372 6.626 1.588 1.369.169 5.804-.065 7.726-.407zm-8.467-4.976c-7.022-1.089-13.702-6.359-16.43-12.963-1.266-3.064-1.552-4.589-1.557-8.3-.005-3.994.402-5.949 1.905-9.151 3.278-6.982 9.214-11.361 16.929-12.489 3.953-.578 8.167.137 12.065 2.047 6.287 3.08 10.803 9.288 11.864 16.312.387 2.563.384 4.063-.016 6.527-1.365 8.419-7.342 15.105-15.659 17.516-1.554.451-2.45.566-4.868.625-1.63.04-3.535-.016-4.233-.124zm-6.386-20.32c1.104-.868.933-2.644-.316-3.29-.904-.467-1.623-.368-2.31.319-.811.811-.837 1.841-.071 2.752.674.801 1.836.895 2.696.219zm4.155-5.489c1.218-.621 1.779-1.54 1.873-3.065.066-1.073-.001-1.395-.416-2-.763-1.112-1.51-1.56-2.78-1.665-1.302-.108-2.025.185-3.007 1.217-.585.615-.635.788-.635 2.188 0 1.819.505 2.713 1.884 3.34 1.123.51 2.061.505 3.081-.015zm-20.163 21.689c.163-.053-.274-1.117-1.215-2.964-2.597-5.096-3.438-8.516-3.46-14.073-.013-3.348.055-4.233.471-6.105.976-4.392 2.573-8.17 4.895-11.576l1.033-1.516-4.587-.144c-2.523-.079-7.968-.152-12.101-.162l-9.711-.12c-1.699-.079-2.238-.038-2.378.183-.181.285-.272 36.431-.092 36.611.115.115 26.784-.015 27.146-.132zm7.539-41.459c3.709-2.783 8.172-4.781 12.633-5.657 3.119-.612 7.755-.653 10.901-.096 5.023.89 10.153 3.225 14.04 6.392l1.147.934 14.208-.086 14.843-.19c.349-.057 1.235-.117 1.968-.132l1.333-.027-.063-7.144-.063-7.144-.572-.972c-.631-1.073-1.471-1.783-2.935-2.482l-.966-.461H98.311 49.94l-1.284.641c-1.324.661-2.138 1.518-2.761 2.904-.304.677-.367 1.768-.429 7.435-.04 3.653-.015 6.868.054 7.144l.126.502 16.241-.001 16.241-.001zm47.006-.763c-.246-.099-.651-.44-.9-.756-.431-.548-.453-.796-.453-5.22v-4.644l.619-.619.619-.619h8.076 8.076l.619.619.619.619v4.687c0 2.81-.087 4.85-.218 5.094-.534.999-.962 1.047-9.032 1.033-4.168-.007-7.779-.095-8.025-.194zm13.782-5.931v-2.434l-5.7-.056c-4.419-.044-5.739.004-5.871.212-.199.313-.237 3.991-.047 4.487.115.3.774.332 5.874.282l5.744-.056zm-84.667 4.176c-1.894-.775-2.928-2.25-2.928-4.176 0-4.518 5.76-6.077 8.046-2.177 1.611 2.748-.246 6.362-3.364 6.547-.615.036-1.404-.051-1.754-.194zm2.511-3.04c1.312-1.312-.013-3.41-1.767-2.798-1.173.409-1.462 1.917-.542 2.837.694.694 1.591.679 2.309-.038zm73.218-15.036c.143-.089.736-.164 1.318-.168l1.058-.007.063-1.199.063-1.199-1.439-.131c-2.859-.26-3.261-.239-3.577.194-.373.511-.397 2.571-.031 2.736.338.152 2.204-.014 2.545-.226zm-70.702-.21c.087-.053.159-.606.159-1.23v-1.134l-1.535-.129c-3.044-.255-3.357-.239-3.673.194-.311.425-.41 2.254-.137 2.532.158.161 4.885-.05 5.186-.232zm56.658.015c.055-.055-.724-1.739-1.731-3.744l-2.57-5.289-.74-1.644-1.864-.036c-1.025-.02-7.532-.042-14.458-.049l-12.594-.013-2.673 5.398c-1.47 2.969-2.646 5.445-2.613 5.503.076.134 39.109.009 39.243-.125z" fill="#705a90"/><path d="M96.29 181.432c-.761-.728-4.972-5.038-9.359-9.578-15.595-16.14-15.19-15.666-14.612-17.062.485-1.17.908-1.248 6.817-1.248 3.891 0 5.435-.07 5.62-.254s.254-1.816.254-6.015c0-3.169-.058-5.912-.128-6.096-.116-.301-1.83-.335-17.198-.338-18.265-.003-18.527-.017-20.59-1.069-1.147-.585-2.557-1.908-3.329-3.124-1.377-2.17-1.3-.143-1.3-34.237l.429-32.338c.719-2.329 2.175-3.962 4.583-5.141 1.245-.61 1.857-.77 3.387-.886l1.867-.142.115-1.619c.145-2.044.894-3.39 2.3-4.133.912-.482 1.064-.493 6.833-.493 6.573 0 6.801.039 7.968 1.368.895 1.02 1.104 1.577 1.273 3.395l.138 1.482h1.796 1.796l3.451-6.879 3.708-7.137c.197-.197 4.032-.263 16.428-.279 15.377-.021 16.19-.003 16.547.363.207.212 1.906 3.457 3.775 7.212l3.399 6.826h1.688c1.977 0 2.127-.138 2.127-1.952 0-1.503.676-2.824 1.87-3.654l.917-.638 5.959-.063c6.639-.07 7.249.024 8.308 1.283.783.931.982 1.519 1.128 3.33l.127 1.587 1.827.152c3.277.273 5.458 1.47 6.986 3.833 1.566 2.423 1.465-.079 1.403 34.867l-.056 31.422-.678 1.431c-1.288 2.718-3.537 4.48-6.417 5.026-.681.129-7.711.211-18.125.211h-17.013l.056 6.297.056 6.297 5.609.106c3.085.058 5.779.189 5.987.29.622.303 1.053 1.36.896 2.198-.11.588-.793 1.415-3.253 3.943l-9.549 9.867c-12.95 13.417-12.41 12.912-13.797 12.912-.496 0-.95-.297-2.022-1.323zm3.231-3.387c.773-.866 5.997-6.301 15.494-16.119 2.536-2.622 4.42-4.732 4.317-4.835s-2.253-.241-4.782-.311c-3.76-.104-4.674-.189-5.008-.464-.365-.301-.419-.707-.509-3.829l-.241-7.342-.141-3.85-5.206-.088-15.22-.049c-.048.048-.132 3.403-.185 7.455-.096 7.222-.107 7.375-.554 7.758-.393.337-.672.37-2.013.245-1.883-.176-8.294.087-8.294.34 0 .363 20.942 21.978 21.301 21.985.132.003.601-.4 1.043-.895zm-11.038-40.558c.062-.1-.528-.448-1.31-.774-3.559-1.479-6.602-3.506-9.58-6.382l-1.172-1.132-15.444.054-15.444.054-.064 1.693c-.035.931.05 2.103.189 2.603.523 1.879 2.316 3.58 4.075 3.868 1.305.213 38.618.227 38.75.014zm59.92-.559c1.405-.702 2.486-1.93 2.848-3.233.12-.434.219-1.563.22-2.51l.001-1.722-4.036-.155c-2.22-.085-9.147-.084-15.394.002l-11.358.158-1.486 1.367c-2.675 2.46-5.694 4.391-8.887 5.683-.927.375-1.722.79-1.765.921-.059.177 4.963.224 19.254.182l19.334-.057zm-46.567-1.609c2.939-.358 5.698-1.159 8.309-2.41 3.146-1.508 5.247-2.977 7.571-5.294 8.773-8.743 10.418-22.41 4.004-33.267-2.954-5.001-8.071-9.172-13.98-11.396-2.438-.918-5.197-1.384-8.987-1.52s-4.979.023-8.533 1.139c-7.049 2.214-13.2 7.556-16.188 14.059-2.703 5.884-3.3 11.07-2.017 17.544.439 2.219.84 3.384 2 5.821 5.056 10.619 16.177 16.744 27.821 15.324zm-7.942-5.892c-8.135-1.717-14.821-8.604-16.418-16.912-.432-2.244-.379-6.299.111-8.514.975-4.411 2.801-7.704 6.034-10.887 3.302-3.252 6.79-5.058 11.473-5.941 3.323-.627 7.843-.152 11.169 1.173 9.469 3.772 15.097 13.788 13.355 23.772-1.478 8.476-7.655 15.057-16.158 17.214-2.541.644-6.766.687-9.566.096zm7.22-3.073c5.159-.778 9.456-3.383 12.254-7.432 1.295-1.873 2.097-3.667 2.787-6.23.646-2.401.647-6.104.003-8.514-1.508-5.636-4.682-9.58-9.756-12.121-7.02-3.515-15.751-1.808-21.274 4.158-2.664 2.877-4.174 6.311-4.622 10.512-.703 6.579 2.465 13.266 7.951 16.785 2.744 1.76 4.773 2.507 7.898 2.908 2.14.275 2.528.269 4.76-.067zm-6.139-2.246c-3.243-.732-6.01-2.338-8.292-4.814-2.664-2.89-3.921-5.836-4.141-9.705-.208-3.656.417-6.461 2.055-9.218 4.484-7.548 13.702-10.186 21.454-6.141 2.502 1.306 5.367 4.071 6.522 6.297 2.555 4.921 2.731 10.218.49 14.811-1.718 3.522-4.131 5.872-7.841 7.635-3.299 1.568-6.672 1.942-10.248 1.135zm-6.151-14.564c.816-.816.985-1.583.55-2.495-.461-.968-1.571-1.459-2.559-1.133-1.05.347-1.489.952-1.489 2.053 0 .803.106 1.042.691 1.565.94.84 1.973.843 2.807.01zm4.194-5.484c.954-.438 1.767-1.72 1.888-2.978.241-2.513-2.129-4.52-4.571-3.869-2.357.629-3.425 3.019-2.345 5.25.926 1.912 2.943 2.552 5.028 1.596zm-43.252 21.967c.085-.137 4.153-.212 11.513-.212l11.501-.118c.065-.065-.537-1.405-1.339-2.977s-1.742-3.781-2.09-4.909c-1.176-3.811-1.342-4.926-1.359-9.141-.013-3.348.055-4.233.471-6.105.976-4.392 2.573-8.17 4.895-11.576l1.033-1.516-4.587-.144c-2.523-.079-7.99-.137-12.149-.128-4.898.01-7.708-.062-7.977-.206-.444-.237-3.361-.307-3.917-.093-.302.116-.335 1.951-.335 18.591l.141 18.604c.227.227 4.054.162 4.198-.07zm29.736-41.039c2.526-2.059 4.903-3.427 8.258-4.753 9.717-3.841 21.511-2.046 29.581 4.502l1.324 1.074h16.285c12.796 0 16.321-.057 16.456-.265.094-.146.138-3.408.097-7.25-.058-5.49-.139-7.144-.38-7.726-.459-1.107-1.717-2.303-3.144-2.988l-1.27-.61H98.647c-42.04 0-48.196.039-49.129.316-1.387.412-2.948 1.79-3.59 3.168-.49 1.052-.497 1.162-.499 8.193-.001 4.56.074 7.152.209 7.197.116.039 7.568.037 16.559-.004l16.348-.075zm47.523-1.761c-.906-.52-.939-.718-.946-5.709l-.007-4.8.558-.439c.542-.426.785-.439 8.544-.439s8.002.012 8.544.439l.558.439v4.863 4.863l-.52.52-.52.52-7.894-.006c-5.539-.004-8.02-.079-8.318-.249zm13.97-5.671v-2.434h-5.821-5.821l-.061 2.208c-.033 1.215-.012 2.335.048 2.49.087.228 1.225.271 5.882.226l5.773-.056zM55.842 81.34c-3.092-1.531-3.082-6.071.018-7.571 2.357-1.141 4.996-.012 5.836 2.497 1.189 3.551-2.49 6.739-5.854 5.074zm2.997-2.648c1.312-1.312-.013-3.41-1.767-2.798-1.173.409-1.462 1.917-.542 2.837.694.694 1.591.679 2.309-.038zm4.844-15.031l3.969-.141.033-.549c.05-.834-.044-1.589-.22-1.769-.087-.089-1.724-.205-3.637-.257l-5.278-.226c-1.372-.1-1.892-.061-2.191.164-.495.372-.709 2.03-.35 2.701.246.461.339.477 1.982.351.948-.073 3.509-.196 5.692-.273zm54.613-.048c.089-.088-1.054-2.583-2.541-5.544l-2.704-5.384-14.557-.054-14.557-.054-2.668 5.384c-1.467 2.961-2.619 5.51-2.56 5.664.088.229 3.628.268 19.766.214l19.821-.226zm18.623.048l3.969-.139v-.88c0-1.614-.179-1.699-3.634-1.721-1.668-.011-3.905-.091-4.971-.18-2.245-.186-2.671-.095-3.005.636-.273.599-.329 2.261-.085 2.514.087.091.968.107 1.958.036s3.585-.191 5.768-.268z" fill="#37699f"/><path d="M96.29 181.432c-.761-.728-4.972-5.038-9.359-9.578-15.595-16.14-15.19-15.666-14.612-17.062.485-1.17.908-1.248 6.817-1.248 3.891 0 5.435-.07 5.62-.254s.254-1.816.254-6.015c0-3.169-.058-5.912-.128-6.096-.116-.301-1.83-.335-17.198-.338-18.265-.003-18.527-.017-20.59-1.069-1.147-.585-2.557-1.908-3.329-3.124-1.377-2.17-1.3-.143-1.3-34.237l.429-32.338c.719-2.329 2.175-3.962 4.583-5.141 1.245-.61 1.857-.77 3.387-.886l1.867-.142.115-1.619c.145-2.044.894-3.39 2.3-4.133.912-.482 1.064-.493 6.833-.493 6.573 0 6.801.039 7.968 1.368.895 1.02 1.104 1.577 1.273 3.395l.138 1.482h1.796 1.796l3.451-6.879 3.708-7.137c.197-.197 4.032-.263 16.428-.279 15.377-.021 16.19-.003 16.547.363.207.212 1.906 3.457 3.775 7.212l3.399 6.826h1.688c1.977 0 2.127-.138 2.127-1.952 0-1.503.676-2.824 1.87-3.654l.917-.638 5.959-.063c6.639-.07 7.249.024 8.308 1.283.783.931.982 1.519 1.128 3.33l.127 1.587 1.827.152c3.277.273 5.458 1.47 6.986 3.833 1.566 2.423 1.465-.079 1.403 34.867l-.056 31.422-.678 1.431c-1.288 2.718-3.537 4.48-6.417 5.026-.681.129-7.711.211-18.125.211h-17.013l.056 6.297.056 6.297 5.609.106c3.085.058 5.779.189 5.987.29.622.303 1.053 1.36.896 2.198-.11.588-.793 1.415-3.253 3.943l-9.549 9.867c-12.95 13.417-12.41 12.912-13.797 12.912-.496 0-.95-.297-2.022-1.323zm3.231-3.387c.773-.866 5.997-6.301 15.494-16.119 2.536-2.622 4.42-4.732 4.317-4.835s-2.253-.241-4.782-.311c-3.76-.104-4.674-.189-5.008-.464-.365-.301-.419-.707-.509-3.829l-.241-7.342-.141-3.85-5.206-.088-15.22-.049c-.048.048-.132 3.403-.185 7.455-.096 7.222-.107 7.375-.554 7.758-.393.337-.672.37-2.013.245-1.883-.176-8.294.087-8.294.34 0 .363 20.942 21.978 21.301 21.985.132.003.601-.4 1.043-.895zm-11.038-40.558c.062-.1-.528-.448-1.31-.774-3.559-1.479-6.602-3.506-9.58-6.382l-1.172-1.132-15.444.054-15.444.054-.064 1.693c-.035.931.05 2.103.189 2.603.523 1.879 2.316 3.58 4.075 3.868 1.305.213 38.618.227 38.75.014zm59.92-.559c1.405-.702 2.486-1.93 2.848-3.233.12-.434.219-1.563.22-2.51l.001-1.722-4.036-.155c-2.22-.085-9.147-.084-15.394.002l-11.358.158-1.486 1.367c-2.675 2.46-5.694 4.391-8.887 5.683-.927.375-1.722.79-1.765.921-.059.177 4.963.224 19.254.182l19.334-.057zm-46.567-1.609c2.939-.358 5.698-1.159 8.309-2.41 3.146-1.508 5.247-2.977 7.571-5.294 8.773-8.743 10.418-22.41 4.004-33.267-2.954-5.001-8.071-9.172-13.98-11.396-2.438-.918-5.197-1.384-8.987-1.52s-4.979.023-8.533 1.139c-7.049 2.214-13.2 7.556-16.188 14.059-2.703 5.884-3.3 11.07-2.017 17.544.439 2.219.84 3.384 2 5.821 5.056 10.619 16.177 16.744 27.821 15.324zm-7.942-5.892c-8.135-1.717-14.821-8.604-16.418-16.912-.432-2.244-.379-6.299.111-8.514.975-4.411 2.801-7.704 6.034-10.887 3.302-3.252 6.79-5.058 11.473-5.941 3.323-.627 7.843-.152 11.169 1.173 9.469 3.772 15.097 13.788 13.355 23.772-1.478 8.476-7.655 15.057-16.158 17.214-2.541.644-6.766.687-9.566.096zm7.22-3.073c5.159-.778 9.456-3.383 12.254-7.432 1.295-1.873 2.097-3.667 2.787-6.23.646-2.401.647-6.104.003-8.514-1.508-5.636-4.682-9.58-9.756-12.121-7.02-3.515-15.751-1.808-21.274 4.158-2.664 2.877-4.174 6.311-4.622 10.512-.703 6.579 2.465 13.266 7.951 16.785 2.744 1.76 4.773 2.507 7.898 2.908 2.14.275 2.528.269 4.76-.067zm-6.139-2.246c-3.243-.732-6.01-2.338-8.292-4.814-2.664-2.89-3.921-5.836-4.141-9.705-.208-3.656.417-6.461 2.055-9.218 4.484-7.548 13.702-10.186 21.454-6.141 2.502 1.306 5.367 4.071 6.522 6.297 2.555 4.921 2.731 10.218.49 14.811-1.718 3.522-4.131 5.872-7.841 7.635-3.299 1.568-6.672 1.942-10.248 1.135zm-6.151-14.564c.816-.816.985-1.583.55-2.495-.461-.968-1.571-1.459-2.559-1.133-1.05.347-1.489.952-1.489 2.053 0 .803.106 1.042.691 1.565.94.84 1.973.843 2.807.01zm4.194-5.484c.954-.438 1.767-1.72 1.888-2.978.241-2.513-2.129-4.52-4.571-3.869-2.357.629-3.425 3.019-2.345 5.25.926 1.912 2.943 2.552 5.028 1.596zM62.52 126.029c5.966 0 10.848-.08 10.848-.176s-.425-.921-.943-1.831c-3.22-5.65-4.603-11.598-4.134-17.784.418-5.514 2.38-11.029 5.444-15.299.804-1.12 1.066-1.639.885-1.751-.261-.161-28.442-.395-28.927-.24-.209.067-.265 3.964-.265 18.548l.159 18.63c.087.092 1.492.108 3.122.036s7.845-.132 13.811-.132zm84.385-.129c.302-.116.335-1.927.335-18.316l-.265-18.289c-.146-.056-5.726-.076-12.402-.046l-12.137.055.813 1.125 2.863 3.916c4.975 6.771 7.057 11.342 8.126 17.836.486 2.954.542 3.787.451 6.756-.073 2.374-.228 3.874-.518 5.016s-.348 1.697-.192 1.852c.239.239 12.318.327 12.926.094zM79.503 84.989c2.526-2.059 4.903-3.427 8.258-4.753 9.717-3.841 21.511-2.046 29.581 4.502l1.324 1.074h16.285c12.796 0 16.321-.057 16.456-.265.094-.146.138-3.408.097-7.25-.058-5.49-.139-7.144-.38-7.726-.459-1.107-1.717-2.303-3.144-2.988l-1.27-.61H98.647c-42.04 0-48.196.039-49.129.316-1.387.412-2.948 1.79-3.59 3.168-.49 1.052-.497 1.162-.499 8.193-.001 4.56.074 7.152.209 7.197.116.039 7.568.037 16.559-.004l16.348-.075zm47.523-1.761c-.906-.52-.939-.718-.946-5.709l-.007-4.8.558-.439c.542-.426.785-.439 8.544-.439s8.002.012 8.544.439l.558.439v4.863 4.863l-.52.52-.52.52-7.894-.006c-5.539-.004-8.02-.079-8.318-.249zm13.97-5.671v-2.434h-5.821-5.821l-.061 2.208c-.033 1.215-.012 2.335.048 2.49.087.228 1.225.271 5.882.226l5.773-.056zM55.842 81.34c-3.092-1.531-3.082-6.071.018-7.571 2.357-1.141 4.996-.012 5.836 2.497 1.189 3.551-2.49 6.739-5.854 5.074zm2.997-2.648c1.312-1.312-.013-3.41-1.767-2.798-1.173.409-1.462 1.917-.542 2.837.694.694 1.591.679 2.309-.038zm4.844-15.031l3.969-.141.033-.549c.05-.834-.044-1.589-.22-1.769-.087-.089-1.724-.205-3.637-.257l-5.278-.226c-1.372-.1-1.892-.061-2.191.164-.495.372-.709 2.03-.35 2.701.246.461.339.477 1.982.351.948-.073 3.509-.196 5.692-.273zm54.613-.048c.089-.088-1.054-2.583-2.541-5.544l-2.704-5.384-14.557-.054-14.557-.054-2.668 5.384c-1.467 2.961-2.619 5.51-2.56 5.664.088.229 3.628.268 19.766.214l19.821-.226zm18.623.048l3.969-.139v-.88c0-1.614-.179-1.699-3.634-1.721-1.668-.011-3.905-.091-4.971-.18-2.245-.186-2.671-.095-3.005.636-.273.599-.329 2.261-.085 2.514.087.091.968.107 1.958.036s3.585-.191 5.768-.268z" fill="#322e63"/><path d="M94.966 179.845l-15.148-15.609-5.76-6.045c-1.63-1.705-1.995-2.519-1.524-3.403.535-1.004.622-1.017 6.589-1.025l5.783-.223c.19-.307.211-12.349.023-12.654-.119-.193-4.236-.253-17.278-.253-11.718 0-17.476-.074-18.244-.235-2.554-.534-4.937-2.435-6.075-4.845l-.55-1.164-.106-13.653V88.775l.106-18.309.688-1.406c1.403-2.868 4.032-4.578 7.356-4.785.931-.058 1.812-.2 1.958-.317.16-.128.265-.728.265-1.52 0-1.739.703-3.183 1.941-3.986l.896-.581h5.997c6.618 0 6.936.051 7.972 1.282.822.977 1.018 1.545 1.165 3.374l.127 1.587 1.779.062c1.061.037 1.873-.029 2.011-.164.127-.124 1.803-3.338 3.724-7.143 3.058-6.056 3.563-6.935 4.063-7.064.314-.081 7.505-.157 15.981-.168 11.904-.016 15.527.04 15.923.243.377.193 1.443 2.115 4.022 7.248l3.509 6.985h1.905 1.905l.164-1.66c.242-2.444.921-3.584 2.535-4.259.638-.266 1.847-.326 6.663-.326 6.663 0 6.827.034 7.972 1.649.515.727.629 1.128.714 2.518.056.909.185 1.759.288 1.888s.972.286 1.932.348c3.891.253 6.47 2.108 7.773 5.592.421 1.124.427 1.584.43 32.458l-.401 32.467c-.815 2.32-2.674 4.33-4.834 5.227l-1.223.508-17.886.106-17.886.106-.056 6.336c-.044 4.928.003 6.373.212 6.506.147.094 2.744.174 5.771.18 3.988.007 5.596.081 5.839.268.569.437.878 1.227.743 1.901-.153.764-.388 1.027-7.327 8.199l-11.434 11.816-6.372 6.403c-.201.108-.725.196-1.164.196-.743 0-.983-.188-3.454-2.699zm12.922-9.948l10.846-11.203c.917-.952 1.605-1.833 1.528-1.958-.094-.151-1.781-.227-5.055-.227-3.948 0-5.001-.06-5.352-.307-.423-.296-.443-.554-.589-7.673-.083-4.051-.217-7.429-.297-7.505-.217-.205-20.425-.443-20.711-.244-.173.12-.287 2.385-.388 7.685-.126 6.594-.186 7.547-.489 7.783-.252.196-.839.232-2.166.131-2.435-.184-8.459.102-8.459.402 0 .125.783 1.044 1.74 2.041l13.365 13.833 6.691 6.713c.088 0 4.29-4.262 9.338-9.472zm-18.554-32.202c.165-.268-.23-.521-1.679-1.077-3.271-1.254-6.897-3.567-9.783-6.238l-1.501-1.39-15.525.054-15.525.054-.062 1.767c-.039 1.123.054 2.167.257 2.863.516 1.776 2.313 3.548 4.008 3.952.956.228 39.668.242 39.809.014zm59.232-.518c1.39-.683 2.552-2.025 2.942-3.4.288-1.014.364-4.242.106-4.502-.097-.098-7.119-.178-15.604-.178h-15.427l-1.224 1.19c-2.751 2.674-5.957 4.723-9.744 6.226-1.883.748-2.129.915-1.814 1.23.079.079 9.009.119 19.844.088l19.699-.056zm-44.295-1.94c2.21-.492 3.814-1.049 6.037-2.097 2.841-1.339 4.825-2.73 7.266-5.095 3.857-3.735 6.374-8.153 7.665-13.446.65-2.666.729-8.858.147-11.549-1.007-4.661-3.257-9.291-6.061-12.475-1.339-1.52-3.803-3.644-5.609-4.833-5.163-3.4-9.952-4.712-16.537-4.528-3.114.087-3.592.155-5.943.849-4.86 1.436-8.759 3.723-12.154 7.129-3.938 3.951-6.555 9.029-7.53 14.612-.501 2.87-.311 8.141.406 11.221 1.14 4.901 3.806 9.419 7.824 13.26 3.951 3.777 8.1 5.938 13.588 7.075 2.414.5 8.4.432 10.901-.124zm-10.395-6.024c-3.616-.763-7.325-2.794-10.102-5.531-2.729-2.69-4.181-5.018-5.467-8.765l-.799-2.328v-3.916c0-4.3.212-5.478 1.567-8.733 1.992-4.786 6.646-9.385 11.32-11.187 4.082-1.574 7.496-1.98 11.44-1.359 6.78 1.067 12.492 5.276 15.666 11.542 1.964 3.878 2.673 8.788 1.905 13.193-.412 2.364-.762 3.396-2.021 5.963-2.68 5.463-7.705 9.452-13.883 11.019-2.59.657-6.784.702-9.625.102zm9.231-2.841c3.187-.868 6.026-2.455 8.322-4.652 2.201-2.107 3.689-4.566 4.82-7.967.561-1.688.599-2.021.603-5.397.005-3.404-.027-3.689-.588-5.286-2.255-6.423-6.654-10.726-12.776-12.5-3.782-1.096-7.723-.908-11.492.548-2.672 1.032-4.189 2.055-6.57 4.432-1.766 1.762-2.409 2.574-3.1 3.917-3.35 6.499-2.984 13.729.992 19.579 2.492 3.666 6.764 6.476 11.427 7.514 1.805.402 6.591.295 8.361-.187zm-8.032-2.598a15.75 15.75 0 0 1-9.346-6.126c-2.032-2.847-2.857-5.564-2.851-9.379.008-4.379 1.4-7.756 4.46-10.816 2.101-2.101 3.806-3.158 6.481-4.017 3.945-1.267 8.042-.972 11.624.837 4.004 2.022 6.501 4.931 8.091 9.424.706 1.995.884 5.63.394 8.053-.676 3.339-3.107 7.183-5.823 9.207-3.636 2.71-8.56 3.774-13.03 2.816zm-6.141-14.116c.906-.906 1.101-1.667.663-2.586-.727-1.524-2.593-1.934-3.752-.824-.804.771-.984 1.73-.51 2.729.725 1.528 2.43 1.851 3.599.681zm4.007-5.309c.397-.166 1.008-.697 1.359-1.182 2.446-3.376-1.172-7.691-4.866-5.805-2.706 1.382-2.713 5.433-.012 6.86.927.49 2.515.547 3.52.127zM73.662 126.02c.108-.103-.086-.612-.458-1.197-1.73-2.722-3.143-6.081-4.03-9.581-.522-2.059-.566-2.568-.567-6.571-.001-4.472.09-5.219 1.047-8.575.983-3.446 2.755-7.058 4.797-9.774.366-.487.612-1.026.546-1.198-.104-.27-2.067-.323-14.474-.391-7.895-.043-14.569-.007-14.831.082l-.476.161v18.484l.206 18.69c.257.257 27.967.13 28.24-.13zm77.613.001c.4-.214.409-.643.409-18.508l-.265-18.458c-.146-.093-6.764-.204-14.709-.247-16.269-.087-15.324-.188-13.971 1.495 2.844 3.536 4.436 7.135 5.599 12.654.58 2.752.523 8.23-.118 11.43-.719 3.588-2.181 7.299-3.989 10.132-.399.625-.675 1.268-.613 1.429.094.245 2.324.293 13.68.293 8.947 0 13.707-.075 13.977-.219zM80.336 84.577c10.268-7.711 23.998-8.225 34.624-1.296.931.607 2.135 1.473 2.675 1.923l.982.819h16.402c13.947 0 16.439-.045 16.652-.302.185-.223.233-2.149.185-7.355-.064-6.873-.078-7.079-.555-8.045-.586-1.19-1.854-2.383-3.19-3.001l-.978-.452H98.556l-49.373.281c-1.297.459-3.029 2.201-3.536 3.555-.414 1.107-.434 1.537-.381 8.191l.056 7.022 1.376.106c.757.058 8.208.077 16.559.041L78.44 86zm46.506-1.744l-.558-.439v-4.747c0-4.465.025-4.772.423-5.17.408-.408.706-.423 8.42-.423 6.895 0 8.061.045 8.467.33.463.324.47.407.47 5.186 0 4.574-.025 4.881-.423 5.28-.408.408-.706.423-8.332.423-7.681 0-7.925-.013-8.467-.439zm14.365-5.276v-2.646h-6.032-6.032l-.06 2.538c-.047 1.967.006 2.586.232 2.752.189.138 2.347.177 6.093.108l5.8-.106zm-85.09 3.722c-1.314-.587-2.434-2.325-2.434-3.779 0-1.018.924-2.714 1.802-3.308.787-.532 2.422-.811 3.368-.573.766.192 1.978 1.321 2.485 2.315.906 1.775.072 4.303-1.721 5.218-.969.494-2.55.552-3.501.128zm2.874-2.435c1.434-1.434.024-3.891-1.829-3.186-1.039.395-1.362.824-1.362 1.808 0 .746.112.995.651 1.449.882.742 1.751.718 2.54-.071zm8.927-14.977c.087-.051.159-.644.159-1.317 0-1.924.141-1.876-6.036-2.042-5.083-.137-5.31-.126-5.811.28-.463.375-.518.571-.485 1.752.023.814.143 1.401.31 1.514.265.179 11.54.001 11.862-.187zm50.271.224c.262-.071.475-.284.472-.475s-1.223-2.775-2.714-5.743l-2.71-5.398H98.541 83.845l-1.504 2.963c-2.554 5.033-3.95 8.12-3.822 8.453.108.281 2.446.32 19.658.323l20.011-.125zm22.963-.371c.226-.345.197-2-.044-2.449a1.36 1.36 0 0 0-.582-.537c-.469-.19-9.934-.383-10.603-.216-.872.218-1.415 2.294-.867 3.318.227.423.333.428 6.085.276 3.934-.104 5.906-.232 6.01-.392z" fill="#0b0724"/></g></svg>