<?xml version="1.0" encoding="UTF-8" standalone="no"?>
<!-- Created with Inkscape (http://www.inkscape.org/) -->

<svg
   width="30.5mm"
   height="54mm"
   viewBox="0 0 30.499998 54"
   version="1.1"
   id="svg1"
   xml:space="preserve"
   inkscape:version="1.4.2 (f4327f4, 2025-05-13)"
   sodipodi:docname="Cam19.svg"
   xmlns:inkscape="http://www.inkscape.org/namespaces/inkscape"
   xmlns:sodipodi="http://sodipodi.sourceforge.net/DTD/sodipodi-0.dtd"
   xmlns="http://www.w3.org/2000/svg"
   xmlns:svg="http://www.w3.org/2000/svg"><sodipodi:namedview
     id="namedview1"
     pagecolor="#ffffff"
     bordercolor="#000000"
     borderopacity="0.25"
     inkscape:showpageshadow="2"
     inkscape:pageopacity="0.0"
     inkscape:pagecheckerboard="0"
     inkscape:deskcolor="#d1d1d1"
     inkscape:document-units="mm"
     inkscape:zoom="2.1442755"
     inkscape:cx="194.93764"
     inkscape:cy="158.79489"
     inkscape:window-width="1920"
     inkscape:window-height="1111"
     inkscape:window-x="-9"
     inkscape:window-y="-9"
     inkscape:window-maximized="1"
     inkscape:current-layer="layer1" /><defs
     id="defs1" /><g
     inkscape:label="Layer 1"
     inkscape:groupmode="layer"
     id="layer1"><g
       style="fill:none"
       id="g1"
       transform="matrix(0,-2.5,2.5,0,-12.43525,87.005128)"><g
         stroke="#000000"
         stroke-width="2"
         id="g2"
         transform="translate(10.31545,-0.88841195)"><path
           d="M 16,16 V 8 A 1,1 0 0 0 15,7 H 5 A 1,1 0 0 0 4,8 v 8 a 1,1 0 0 0 1,1 h 10 a 1,1 0 0 0 1,-1 z"
           id="path1" /><path
           stroke-linejoin="round"
           d="m 20,7 -4,3 v 4 l 4,3 z"
           id="path2" /></g></g><g
       style="fill:#000000;fill-opacity:1"
       id="g12"
       transform="matrix(0.58333333,0,0,0.56250002,10.833333,-2.9505151e-7)"><path
         d="M 6,8 H 2 V 6 L 8,5.24536e-7 14,6 v 2 h -4 v 8 H 6 Z"
         fill="#000000"
         id="path1-6"
         style="fill:#000000;fill-opacity:1" /></g></g></svg>
