<?xml version="1.0" encoding="UTF-8"?>
<!-- Created with Inkscape (http://www.inkscape.org/) -->
<svg width="30.1mm" height="31.3mm" version="1.1" viewBox="0 0 30.1 31.3" xml:space="preserve" xmlns="http://www.w3.org/2000/svg"><g transform="matrix(-.033482 0 0 -.033482 32.238 36.952)"><path d="m910.3 851.7h-736.7c-27.4 0-49.7-22.3-49.7-49.7v-496.5c0-27.4 22.3-49.7 49.7-49.7h736.7c27.4 0 49.7 22.3 49.7 49.7v496.5c0 27.4-22.3 49.7-49.7 49.7z" fill="#a7b8c6"/><path d="m913.7 235.6c0-27.4-22.3-49.7-49.7-49.7h-736.7c-27.4 0-49.7 22.3-49.7 49.7v326.8h836.1z" fill="#e7e2d3"/><path d="m127.3 781.7h736.7c27.4 0 49.7-22.3 49.7-49.7v-251h-836.2v251c0 27.4 22.3 49.7 49.8 49.7z" fill="#4c4b4c"/><path d="m864 795.3h-736.7c-34.9 0-63.3-28.4-63.3-63.3v-496.4c0-34.9 28.4-63.3 63.3-63.3h736.7c34.9 0 63.3 28.4 63.3 63.3v496.4c-0.1 34.9-28.4 63.3-63.3 63.3zm-736.7-595.9c-19.9 0-36.2 16.2-36.2 36.2v496.4c0 19.9 16.2 36.2 36.2 36.2h736.7c19.9 0 36.2-16.2 36.2-36.2v-496.4c0-19.9-16.2-36.2-36.2-36.2z" fill="#3e3a39"/><path d="m495.6 459.9m-187.6 0a187.6 187.6 0 1 0 375.2 0 187.6 187.6 0 1 0-375.2 0z" fill="#e7e2d3"/><path d="m495.6 655.1c-107.6 0-195.1-87.5-195.1-195.1s87.5-195.1 195.1-195.1 195.1 87.5 195.1 195.1c0 107.5-87.5 195.1-195.1 195.1zm0-375.2c-99.3 0-180.1 80.8-180.1 180.1s80.8 180 180.1 180 180.1-80.8 180.1-180.1-80.8-180-180.1-180z" fill="#595757"/><path d="m495.6 459.9m-159 0a159 159 0 1 0 318 0 159 159 0 1 0-318 0z" fill="#666765"/><path d="m495.6 459.9m-97.8 0a97.8 97.8 0 1 0 195.6 0 97.8 97.8 0 1 0-195.6 0z" fill="#95d4eb"/><path d="m495.6 563.7c-57.2 0-103.8-46.6-103.8-103.8s46.6-103.8 103.8-103.8 103.8 46.6 103.8 103.8-46.6 103.8-103.8 103.8zm0-195.5c-50.6 0-91.7 41.2-91.7 91.7s41.2 91.7 91.7 91.7c50.6 0 91.7-41.2 91.7-91.7s-41.1-91.7-91.7-91.7z" fill="#595757"/><path d="m539.1 419.9m-26.7 0a26.7 26.7 0 1 0 53.4 0 26.7 26.7 0 1 0-53.4 0z" fill="#fff"/><path d="m351.5 701h281.1c11.4 0 21.7 5.3 28.4 13.5 9-3.4 15.5-12.2 15.5-22.4 0-13.2-10.8-24-24-24h-317.9c-13.2 0-24 10.8-24 24 0 9.4 5.5 17.5 13.3 21.5 6.8-7.7 16.6-12.6 27.6-12.6z" fill="#1a1a1a"/><path d="m669.1 737.2c0-8.6-3-16.4-8.1-22.6-2.6 1-5.5 1.6-8.5 1.6h-317.9c-3.8 0-7.4-0.9-10.6-2.5-5.5 6.3-8.9 14.6-8.9 23.6l-14.1 63.3c0 19.9 17.7 36.2 39.4 36.2h303.5c21.7 0 39.4-16.3 39.4-36.2z" fill="#e7e2d3"/><path d="m652.5 716.1c3 0 5.8-0.6 8.5-1.6-6.7-8.2-16.9-13.5-28.4-13.5h-281.1c-11 0-20.8 4.9-27.5 12.6 3.2 1.6 6.8 2.5 10.6 2.5z" fill="#717071"/><path d="m792.4 413.5m-33 0a33 33 0 1 0 66 0 33 33 0 1 0-66 0z" fill="#717071"/><path d="m792.4 449.4c-19.8 0-36-16.1-36-36 0-19.8 16.1-36 36-36 19.8 0 36 16.1 36 36s-16.1 36-36 36zm0-65.9c-16.5 0-30 13.4-30 30 0 16.5 13.4 30 30 30s30-13.4 30-30-13.5-30-30-30z" fill="#595757"/><path d="m800.19 406.23a12.4 9.3 55.105 1 0 15.256-10.641 12.4 9.3 55.105 1 0-15.256 10.641z" fill="#b4b4b5"/><path d="m173.4 413.5m-33.1 0a33.1 33.1 0 1 0 66.2 0 33.1 33.1 0 1 0-66.2 0z" fill="#da8080"/><path d="m173.4 451.1c-20.8 0-37.7-16.9-37.7-37.7s16.9-37.7 37.7-37.7 37.7 16.9 37.7 37.7-16.9 37.7-37.7 37.7zm0-66.3c-15.8 0-28.6 12.8-28.6 28.6s12.8 28.6 28.6 28.6 28.6-12.8 28.6-28.6-12.8-28.6-28.6-28.6z" fill="#fff"/><path d="m212.6 336.3h-78.4c-2 0-3.6-1.6-3.6-3.6v-47.7c0-2 1.6-3.6 3.6-3.6h78.4c2 0 3.6 1.6 3.6 3.6v47.7c0 2-1.6 3.6-3.6 3.6z" fill="#4c4b4c"/><path d="m822.5 336.3h-52.4c-1.7 0-3-1.4-3-3v-52.4c0-1.7 1.4-3 3-3h52.4c1.7 0 3 1.4 3 3v52.4c0 1.6-1.3 3-3 3z" fill="#656767"/><path d="m816.4 339.3h-40.2c-6.7 0-12.1-5.4-12.1-12.1v-40.2c0-6.7 5.4-12.1 12.1-12.1h40.2c6.7 0 12.1 5.4 12.1 12.1v40.2c0.1 6.7-5.4 12.1-12.1 12.1zm-40.2-58.4c-3.4 0-6.1 2.7-6.1 6.1v40.2c0 3.4 2.7 6.1 6.1 6.1h40.2c3.4 0 6.1-2.7 6.1-6.1v-40.2c0-3.4-2.7-6.1-6.1-6.1z" fill="#3e3a39"/></g><g transform="matrix(.58333 0 0 .5625 10.833 -2.9505e-7)" fill="#dcdcc2"><path d="m6 8h-4v-2l6-6 6 6v2h-4v8h-4z" fill="#dcdcc2"/></g></svg>
