<?xml version="1.0" encoding="UTF-8"?>
<!-- Created with Inkscape (http://www.inkscape.org/) -->
<svg width="30.1mm" height="32.8mm" version="1.1" viewBox="0 0 30.1 32.8" xml:space="preserve" xmlns="http://www.w3.org/2000/svg"><g transform="matrix(-.023193 0 0 -.023193 30.04 32.744)"><path d="m287.53 260.58 42.846-223.66a12.126 12.126 0 0 1 11.857-9.9705h609.01a12.126 12.126 0 0 1 11.857 9.9705l42.846 223.66z" fill="#fdca89"/><path d="m939.12 53.895 34.223 179.74h-653.2l34.223-179.74h584.76m12.396-53.895h-609.28a39.074 39.074 0 0 0-38.265 31.798l-49.044 255.73h783.63l-48.775-255.73a39.074 39.074 0 0 0-38.535-31.798z" fill="#5c2d51"/><path d="m26.947 188.63h1239.6v808.42h-1239.6z" fill="#9fdbad"/><path d="m1212.6 215.58a26.947 26.947 0 0 1 26.947 26.947v700.63a26.947 26.947 0 0 1-26.947 26.947h-1131.8a26.947 26.947 0 0 1-26.947-26.947v-700.63a26.947 26.947 0 0 1 26.947-26.947h1131.8m0-53.895h-1131.8a80.842 80.842 0 0 0-80.842 80.842v700.63a80.842 80.842 0 0 0 80.842 80.842h1131.8a80.842 80.842 0 0 0 80.842-80.842v-700.63a80.842 80.842 0 0 0-80.842-80.842z" fill="#5c2d51"/><path d="m646.74 883.33a290.49 290.49 0 1 1 290.49-290.49 291.03 291.03 0 0 1-290.49 290.49z" fill="#fff"/><path d="m646.74 329.3a263.55 263.55 0 1 1-263.55 263.55 263.81 263.81 0 0 1 263.55-263.55m0-53.895a317.44 317.44 0 1 0 317.44 317.44 317.44 317.44 0 0 0-317.44-317.44z" fill="#5c2d51"/><path d="m646.74 592.84m-120.19 0a120.19 120.19 0 1 0 240.37 0 120.19 120.19 0 1 0-240.37 0z" fill="#9fdbad"/><path d="m646.74 499.6a93.238 93.238 0 1 1-93.238 93.238 93.238 93.238 0 0 1 93.238-93.238m0-53.895a147.13 147.13 0 1 0 147.13 147.13 147.13 147.13 0 0 0-147.13-147.13z" fill="#5c2d51"/><path d="m1007.3 280.79h169.5v88.926h-169.5z" fill="#f05071"/><path d="m1149.8 307.74v35.032h-115.6v-35.032h115.6m4.3116-53.895h-123.96a49.583 49.583 0 0 0-49.583 49.583v43.385a49.583 49.583 0 0 0 49.583 49.583h123.96a49.583 49.583 0 0 0 49.583-49.583v-43.385a49.583 49.583 0 0 0-49.583-49.583z" fill="#5c2d51"/></g><g transform="matrix(.58333 0 0 .5625 10.833 -2.9505e-7)" fill="#52024f" fill-opacity=".88276"><path d="m6 8h-4v-2l6-6 6 6v2h-4v8h-4z" fill="#52024f" fill-opacity=".88276"/></g></svg>
