<?xml version="1.0" encoding="UTF-8" standalone="no"?>
<!-- Created with Inkscape (http://www.inkscape.org/) -->

<svg
   width="30mm"
   height="29.5mm"
   viewBox="0 0 30 29.500001"
   version="1.1"
   id="svg1"
   xml:space="preserve"
   inkscape:version="1.4.2 (f4327f4, 2025-05-13)"
   sodipodi:docname="Cam13.svg"
   xmlns:inkscape="http://www.inkscape.org/namespaces/inkscape"
   xmlns:sodipodi="http://sodipodi.sourceforge.net/DTD/sodipodi-0.dtd"
   xmlns="http://www.w3.org/2000/svg"
   xmlns:svg="http://www.w3.org/2000/svg"><sodipodi:namedview
     id="namedview1"
     pagecolor="#ffffff"
     bordercolor="#000000"
     borderopacity="0.25"
     inkscape:showpageshadow="2"
     inkscape:pageopacity="0.0"
     inkscape:pagecheckerboard="0"
     inkscape:deskcolor="#d1d1d1"
     inkscape:document-units="mm"
     inkscape:zoom="4.288551"
     inkscape:cx="75.549993"
     inkscape:cy="69.603929"
     inkscape:window-width="1920"
     inkscape:window-height="1111"
     inkscape:window-x="-9"
     inkscape:window-y="-9"
     inkscape:window-maximized="1"
     inkscape:current-layer="layer1" /><defs
     id="defs1" /><g
     inkscape:label="Layer 1"
     inkscape:groupmode="layer"
     id="layer1"><g
       id="g1"
       transform="matrix(-0.01992188,0,0,-0.01992188,30.08425,29.375576)"><path
         d="M 45.176471,168.96 H 1471.8494 V 987.55765 H 45.176471 Z"
         fill="#ffffff"
         id="path1" /><path
         d="M 218.65412,45.477647 H 435.80235 V 133.42118 H 218.65412 Z M 45.176471,504.47059 H 1472.1506 v 143.36 H 45.176471 Z"
         fill="#ea5d5c"
         id="path2" /><path
         d="m 766.49412,577.65647 m -330.39059,0 a 330.39059,330.39059 0 1 0 660.78117,0 330.39059,330.39059 0 1 0 -660.78117,0 z"
         fill="#4c66af"
         id="path3" /><path
         d="M 1385.7129,120.47059 H 482.18353 V 30.117647 A 30.117647,30.117647 0 0 0 452.06588,0 H 211.12471 A 30.117647,30.117647 0 0 0 181.00706,30.117647 V 120.47059 H 120.77177 A 120.47059,120.47059 0 0 0 0.301176,240.94118 V 903.52941 A 120.47059,120.47059 0 0 0 120.77177,1024 H 1385.7129 A 120.47059,120.47059 0 0 0 1506.1835,903.52941 V 240.94118 A 120.47059,120.47059 0 0 0 1385.7129,120.47059 Z M 241.24235,60.235294 H 421.94824 V 120.47059 H 241.24235 Z M 60.536471,512 H 418.93647 a 337.61882,337.61882 0 0 0 0,120.47059 H 60.536471 Z M 1445.9482,903.52941 a 60.235294,60.235294 0 0 1 -60.2353,60.2353 H 120.77176 A 60.235294,60.235294 0 0 1 60.536471,903.52941 V 692.70588 H 434.59765 a 361.41176,361.41176 0 0 0 680.95995,0 h 331.2942 V 903.52941 Z M 473.75059,572.23529 A 301.17647,301.17647 0 1 1 774.92706,873.41176 301.17647,301.17647 0 0 1 473.44941,572.23529 Z m 972.19761,60.2353 h -315.3317 a 337.61882,337.61882 0 0 0 0,-120.47059 h 315.3317 z m 0,-180.70588 h -331.2941 a 361.41176,361.41176 0 0 0 -680.95998,0 H 60.536471 V 240.94118 a 60.235294,60.235294 0 0 1 60.235299,-60.2353 H 1385.7129 a 60.235294,60.235294 0 0 1 60.2353,60.2353 z"
         fill="#3f4651"
         id="path4" /><path
         d="m 1204.7059,237.32706 h 180.7059 V 327.68 h -180.7059 z"
         fill="#3f4651"
         id="path5" /></g><g
       style="fill:#444444;fill-opacity:1"
       id="g12"
       transform="matrix(0.58333333,0,0,0.56250002,10.833333,-2.9505151e-7)"><path
         d="M 6,8 H 2 V 6 L 8,5.24536e-7 14,6 v 2 h -4 v 8 H 6 Z"
         fill="#000000"
         id="path1-6"
         style="fill:#444444;fill-opacity:1" /></g></g></svg>
