<?xml version="1.0" encoding="UTF-8"?>
<!-- Created with Inkscape (http://www.inkscape.org/) -->
<svg width="30.2mm" height="32mm" version="1.1" viewBox="0 0 30.2 32" xml:space="preserve" xmlns="http://www.w3.org/2000/svg"><g transform="matrix(-.036987 0 0 -.036987 34.007 39.323)"><path d="m850 232.8h-129.9c-9.5 0-20.2 8.4-22.4 17.7l-7.7 32h192.6l-8.9-31.7c-2.6-9.4-13.9-18-23.7-18zm37.5 79.7h-751v478.7h510.3l240.8-240.8v-237.9zm-479.4 411.4c-94.1 0-170.7-76.6-170.7-170.7s76.6-170.7 170.7-170.7 170.7 76.6 170.7 170.7c0 94.2-76.6 170.7-170.7 170.7zm441.5-325.9c0 6.6-5.4 12-12 12h-68.5c-6.6 0-12-5.4-12-12v-33.2c0-6.6 5.4-12 12-12h68.5c6.6 0 12 5.4 12 12zm-81.5 393.2 119.4-119.4v-79l-198.4 198.4zm119.4 0v-77l-76.9 77z" fill="#ffbc00"/><path d="m916.4 301.5c0.4-4.9 0-9.9-1.4-15l-12.3-43.9c-6.3-22.3-29.4-39.8-52.5-39.8h-130.1c-23.4 0-46.1 17.9-51.6 40.7l-9.4 39h-370.5v-29.6c0-14.9-12.1-27-27-27h-94.5c-14.9 0-27 12.1-27 27v29.5h-6.7c-14.9 0-27 12.1-27 27v484.7c0 14.9 12.1 27 27 27h757.1c14.9 0 27-12.1 27-27v-484.6c0-2.8-0.4-5.5-1.1-8zm-226.4-19 7.7-32c2.2-9.3 12.9-17.7 22.4-17.7h129.9c9.8 0 21 8.5 23.7 17.9l8.9 31.7h-192.6zm-519.8-26.7h88.5v22.2h-88.5zm717.3 535.4h-77l77-77zm0-119.4-119.4 119.4h-79l198.4-198.4zm-240.8 119.4h-510.2v-478.7h751.1v237.9z" fill="#46287c"/><path d="m548.8 553.3c0-77.6-63.1-140.7-140.7-140.7s-140.7 63.1-140.7 140.7 63.1 140.7 140.7 140.7c77.6-0.1 140.7-63.2 140.7-140.7zm-140.7 74.4c-41.1 0-74.4-33.3-74.4-74.4s33.3-74.4 74.4-74.4 74.4 33.3 74.4 74.4-33.3 74.4-74.4 74.4z" fill="#ffbc00"/><path d="m408.1 382.6c-94.1 0-170.7 76.6-170.7 170.7s76.6 170.7 170.7 170.7 170.7-76.6 170.7-170.7-76.6-170.7-170.7-170.7zm-140.6 170.7c0-77.6 63.1-140.7 140.7-140.7s140.7 63.1 140.7 140.7-63.1 140.7-140.7 140.7c-77.6-0.1-140.7-63.2-140.7-140.7z" fill="#46287c"/><path d="m408.1 553.3m-74.4 0a74.4 74.4 0 1 0 148.8 0 74.4 74.4 0 1 0-148.8 0z" fill="#fff"/><path d="m837.6 352.9h-68.5c-6.6 0-12 5.4-12 12v33.1c0 6.6 5.4 12 12 12h68.5c6.6 0 12-5.4 12-12v-33.2c0-6.5-5.4-11.9-12-11.9z" fill="#fff"/><path d="m170.2 255.8h88.5v22.2h-88.5z" fill="#ffbc00"/></g><g transform="matrix(.58333 0 0 .5625 10.833 -2.9505e-7)" fill="#470084"><path d="m6 8h-4v-2l6-6 6 6v2h-4v8h-4z" fill="#470084"/></g></svg>
