<?xml version="1.0" encoding="UTF-8"?>
<!-- Created with Inkscape (http://www.inkscape.org/) -->
<svg width="30.3mm" height="36.5mm" version="1.1" viewBox="0 0 30.3 36.5" xml:space="preserve" xmlns="http://www.w3.org/2000/svg" xmlns:xlink="http://www.w3.org/1999/xlink"><defs><linearGradient id="paint0_linear_103_1788" x1="16" x2="16" y2="29.091" gradientUnits="userSpaceOnUse"><stop stop-color="#FFC300" offset="0"/><stop stop-color="#fb0" offset="1"/></linearGradient><linearGradient id="paint1_linear_103_1788" x1="16" x2="16" y2="29.091" gradientUnits="userSpaceOnUse"><stop stop-color="#FFE500" offset="0"/><stop stop-color="#fb0" offset="1"/></linearGradient><linearGradient id="linearGradient1" x1="16" x2="16" y2="29.091" gradientUnits="userSpaceOnUse" xlink:href="#paint1_linear_103_1788"/></defs><g transform="matrix(-.9375 0 0 -.9375 30.166 36.216)"><path d="m10.182 0h-2.9091c-0.80333 0-1.4546 0.65122-1.4546 1.4546v2.9091c0 0.80332 0.65122 1.4545 1.4546 1.4545h2.9091c0.8033 0 1.4546-0.65122 1.4546-1.4545v-2.9091c0-0.80333-0.6513-1.4546-1.4546-1.4546z" fill="url(#paint0_linear_103_1788)"/><path d="m26.182 2.9091h-20.364c-3.2133 0-5.8182 2.6049-5.8182 5.8182v14.545c0 3.2133 2.6049 5.8182 5.8182 5.8182h20.364c3.2133 0 5.8182-2.6049 5.8182-5.8182v-14.545c0-3.2133-2.6049-5.8182-5.8182-5.8182z" fill="url(#linearGradient1)"/><path d="m16 23.273c4.0166 0 7.2727-3.2561 7.2727-7.2727s-3.2561-7.2727-7.2727-7.2727-7.2727 3.2561-7.2727 7.2727 3.2561 7.2727 7.2727 7.2727z" fill="#fff"/><path d="m16 20.364c2.41 0 4.3636-1.9536 4.3636-4.3636s-1.9536-4.3636-4.3636-4.3636-4.3636 1.9536-4.3636 4.3636 1.9536 4.3636 4.3636 4.3636z" fill="url(#linearGradient1)"/><path d="m16 16c0.8033 0 1.4545-0.6512 1.4545-1.4545 0-0.8034-0.6512-1.4546-1.4545-1.4546s-1.4545 0.6512-1.4545 1.4546c0 0.8033 0.6512 1.4545 1.4545 1.4545z" fill="#fff"/></g><g transform="matrix(.58333 0 0 .5625 10.833 -2.9505e-7)" fill="#ffc000"><path d="m6 8h-4v-2l6-6 6 6v2h-4v8h-4z" fill="#ffc000"/></g></svg>
