<?xml version="1.0" encoding="UTF-8" standalone="no"?>
<!-- Created with Inkscape (http://www.inkscape.org/) -->

<svg
   width="30.200001mm"
   height="37.200001mm"
   viewBox="0 0 30.200001 37.200002"
   version="1.1"
   id="svg1"
   xml:space="preserve"
   inkscape:version="1.4.2 (f4327f4, 2025-05-13)"
   sodipodi:docname="Cam20.svg"
   xmlns:inkscape="http://www.inkscape.org/namespaces/inkscape"
   xmlns:sodipodi="http://sodipodi.sourceforge.net/DTD/sodipodi-0.dtd"
   xmlns="http://www.w3.org/2000/svg"
   xmlns:svg="http://www.w3.org/2000/svg"><sodipodi:namedview
     id="namedview1"
     pagecolor="#ffffff"
     bordercolor="#000000"
     borderopacity="0.25"
     inkscape:showpageshadow="2"
     inkscape:pageopacity="0.0"
     inkscape:pagecheckerboard="0"
     inkscape:deskcolor="#d1d1d1"
     inkscape:document-units="mm"
     inkscape:zoom="3.0324635"
     inkscape:cx="69.910157"
     inkscape:cy="113.93377"
     inkscape:window-width="1920"
     inkscape:window-height="1111"
     inkscape:window-x="-9"
     inkscape:window-y="-9"
     inkscape:window-maximized="1"
     inkscape:current-layer="layer1" /><defs
     id="defs1" /><g
     inkscape:label="Layer 1"
     inkscape:groupmode="layer"
     id="layer1"><g
       id="g1"
       transform="matrix(-0.46875,0,0,-0.46875,30.056942,37.987172)">
	<path
   fill="#231f20"
   d="M 60,10 H 49.656 L 42.828,3.172 C 42.078,2.422 41.062,2 40,2 H 24 C 22.938,2 21.922,2.422 21.172,3.172 L 14.344,10 H 4 c -2.211,0 -4,1.789 -4,4 v 44 c 0,2.211 1.789,4 4,4 h 56 c 2.211,0 4,-1.789 4,-4 V 14 c 0,-2.211 -1.789,-4 -4,-4 z M 32,50 c -8.836,0 -16,-7.164 -16,-16 0,-8.836 7.164,-16 16,-16 8.836,0 16,7.164 16,16 0,8.836 -7.164,16 -16,16 z"
   id="path1" />
	<circle
   fill="#231f20"
   cx="32"
   cy="34"
   r="8"
   id="circle1" />
</g><g
       style="fill:#231f20;fill-opacity:1"
       id="g12"
       transform="matrix(0.58333333,0,0,0.56250002,10.833333,-2.9505151e-7)"><path
         d="M 6,8 H 2 V 6 L 8,5.24536e-7 14,6 v 2 h -4 v 8 H 6 Z"
         fill="#000000"
         id="path1-6"
         style="fill:#231f20;fill-opacity:1" /></g></g></svg>
