<?xml version="1.0" encoding="UTF-8"?>
<!-- Created with Inkscape (http://www.inkscape.org/) -->
<svg width="30.2mm" height="32.6mm" version="1.1" viewBox="0 0 30.2 32.6" xml:space="preserve" xmlns="http://www.w3.org/2000/svg" xmlns:xlink="http://www.w3.org/1999/xlink"><defs><linearGradient id="linearGradient2" x1="8" x2="8" y1="2" y2="14" gradientUnits="userSpaceOnUse"><stop stop-color="#f1c348" offset=".44598"/><stop stop-color="#f14848" stop-opacity="0" offset="1"/></linearGradient></defs><g transform="matrix(-.034843 0 0 -.034843 32.229 35.723)"><path d="m845 166-49-13 49-13 13-48 13 48 48 13-48 13-13 49zm47 53-18-4 18-5 5-19 4 19 19 5-19 4-4 19z" fill="#fdcd60"/><path d="m79 711-20-5 20-5 5-20 5 20 21 5-21 5-5 21zm69 151-33-8 33-7 7-33 8 33 33 7-33 8-8 33z" fill="#fdcd60"/><path d="m143 169m-9 0a9 9 0 1 0 18 0 9 9 0 1 0-18 0z" fill="#5546cb"/><path d="m889 854a25 25 0 1 1 25-25 25 25 0 0 1-25 25zm0-36a10 10 0 1 0 10 10 10 10 0 0 0-10-10z" fill="#5546cb"/><path d="m166 400v347a31 31 0 0 0 31 31h629a31 31 0 0 0 31-31v-347zm362 358c-92 0-168-75-168-168s75-168 168-168 168 75 168 168-76 168-168 168zm330-378v-63a31 31 0 0 0-31-31h-629a31 31 0 0 0-31 31v63zm-140-58h71v20h-71z" fill="#fdcd60"/><path d="m826 266h-40l-15-59h-118l-15 59h-440a51 51 0 0 0-51 51v430a51 51 0 0 0 51 51h628a51 51 0 0 0 51-51v-430a51 51 0 0 0-51-51zm-157-39h86l10 37h-105zm-471 59h628a31 31 0 0 1 31 31v63h-691v-63a31 31 0 0 1 32-31zm628 492h-628a31 31 0 0 1-31-31v-347h691v347a31 31 0 0 1-32 31z" fill="#5546cb"/><path d="m528 443c-81 0-148 66-148 148s66 148 148 148 148-66 148-148-67-148-148-148zm0 264a116 116 0 1 1 116-117 116 116 0 0 1-116 116z" fill="#fff"/><path d="m528 423c-92 0-168 75-168 168s75 168 168 168 168-75 168-168-76-168-168-168zm0 315c-81 0-148-66-148-148s66-148 148-148 148 66 148 148-67 148-148 148z" fill="#5546cb"/><path d="m528 494a96 96 0 1 0 96 96 96 96 0 0 0-96-96zm43 81a18 18 0 1 1 18-18 18 18 0 0 1-18 18z" fill="#ff8859"/><path d="m528 474a116 116 0 1 0 116 116 116 116 0 0 0-116-116zm0 212a96 96 0 1 1 96-96 96 96 0 0 1-96 96z" fill="#5546cb"/><path d="m571 558m-18 0a18 18 0 1 0 36 0 18 18 0 1 0-36 0z" fill="#fff"/><path d="m755 227h-86l-9 37h105z" fill="#afbcf3"/><path d="m718 322h71v20h-71z" fill="#5546cb"/></g><g transform="matrix(.58333 0 0 .5625 9.9878 .091193)"><path d="m6 8h-4v-2l6-6 6 6v2h-4v8h-4z" fill="url(#linearGradient2)"/></g></svg>
