<?xml version="1.0" encoding="UTF-8" standalone="no"?>
<!-- Created with Inkscape (http://www.inkscape.org/) -->

<svg
   width="30mm"
   height="34.400002mm"
   viewBox="0 0 30 34.400002"
   version="1.1"
   id="svg1"
   xml:space="preserve"
   inkscape:version="1.4.2 (f4327f4, 2025-05-13)"
   sodipodi:docname="Cam7.svg"
   xmlns:inkscape="http://www.inkscape.org/namespaces/inkscape"
   xmlns:sodipodi="http://sodipodi.sourceforge.net/DTD/sodipodi-0.dtd"
   xmlns:xlink="http://www.w3.org/1999/xlink"
   xmlns="http://www.w3.org/2000/svg"
   xmlns:svg="http://www.w3.org/2000/svg"><sodipodi:namedview
     id="namedview1"
     pagecolor="#ffffff"
     bordercolor="#000000"
     borderopacity="0.25"
     inkscape:showpageshadow="2"
     inkscape:pageopacity="0.0"
     inkscape:pagecheckerboard="0"
     inkscape:deskcolor="#d1d1d1"
     inkscape:document-units="mm"
     inkscape:zoom="6.064927"
     inkscape:cx="108.16288"
     inkscape:cy="52.020412"
     inkscape:window-width="1920"
     inkscape:window-height="1111"
     inkscape:window-x="-9"
     inkscape:window-y="-9"
     inkscape:window-maximized="1"
     inkscape:current-layer="layer1" /><defs
     id="defs1"><path
       id="camera-a"
       d="M 5.7638935,3 C 6.313214,3.6137494 7.1115002,4 8,4 8.8884998,4 9.686786,3.6137494 10.236107,3 H 16 V 7 H 0 V 3 Z M 8,2 C 7.4477152,2 7,1.5522847 7,1 7,0.44771525 7.4477152,0 8,0 8.5522848,0 9,0.44771525 9,1 9,1.5522847 8.5522848,2 8,2 Z" /><path
       id="camera-c"
       d="M 2,4 V 15 H 18 V 4 H 14 L 12,2 H 8 L 6,4 Z M 5.1715729,2 6.5857864,0.58578644 C 6.9608592,0.21071368 7.469567,0 8,0 h 4 c 0.530433,0 1.039141,0.21071368 1.414214,0.58578644 L 14.828427,2 H 18 c 1.104569,0 2,0.8954305 2,2 v 11 c 0,1.104569 -0.895431,2 -2,2 H 2 C 0.8954305,17 0,16.104569 0,15 V 4 C 0,2.8954305 0.8954305,2 2,2 Z M 10,13 c 2.209139,0 4,-1.790861 4,-4 C 14,6.790861 12.209139,5 10,5 7.790861,5 6,6.790861 6,9 c 0,2.209139 1.790861,4 4,4 z m 0,-2 C 8.8954305,11 8,10.10457 8,9 8,7.8954305 8.8954305,7 10,7 c 1.10457,0 2,0.8954305 2,2 0,1.10457 -0.89543,2 -2,2 z" /></defs><g
     inkscape:label="Layer 1"
     inkscape:groupmode="layer"
     id="layer1"><g
       fill="none"
       fill-rule="evenodd"
       transform="matrix(-1.5,0,0,-1.5,30.056542,34.362565)"
       id="g5"><g
         transform="translate(2,8)"
         id="g3"><mask
           id="camera-b"
           fill="#ffffff"><use
             xlink:href="#camera-a"
             id="use1" /></mask><use
           fill="#d8d8d8"
           xlink:href="#camera-a"
           id="use2" /><g
           fill="#ffa0a0"
           mask="url(#camera-b)"
           id="g2"><rect
             width="24"
             height="24"
             transform="translate(-4,-11)"
             id="rect2"
             x="0"
             y="0" /></g></g><mask
         id="camera-d"
         fill="#ffffff"><use
           xlink:href="#camera-c"
           id="use3" /></mask><use
         fill="#000000"
         fill-rule="nonzero"
         xlink:href="#camera-c"
         id="use4" /><g
         fill="#7600ff"
         mask="url(#camera-d)"
         id="g4"><rect
           width="24"
           height="24"
           transform="translate(-2,-3)"
           id="rect4"
           x="0"
           y="0" /></g></g><g
       style="fill:#7600ff;fill-opacity:1"
       id="g12"
       transform="matrix(0.58333333,0,0,0.56250002,10.833333,-2.9505151e-7)"><path
         d="M 6,8 H 2 V 6 L 8,5.24536e-7 14,6 v 2 h -4 v 8 H 6 Z"
         fill="#000000"
         id="path1-6"
         style="fill:#7600ff;fill-opacity:1" /></g></g></svg>
