<?xml version="1.0" encoding="UTF-8" standalone="no"?>
<!-- Created with Inkscape (http://www.inkscape.org/) -->

<svg
   width="30.200001mm"
   height="22.9mm"
   viewBox="0 0 30.200001 22.9"
   version="1.1"
   id="svg1"
   xml:space="preserve"
   inkscape:version="1.4.2 (f4327f4, 2025-05-13)"
   sodipodi:docname="Cam15.svg"
   xmlns:inkscape="http://www.inkscape.org/namespaces/inkscape"
   xmlns:sodipodi="http://sodipodi.sourceforge.net/DTD/sodipodi-0.dtd"
   xmlns="http://www.w3.org/2000/svg"
   xmlns:svg="http://www.w3.org/2000/svg"><sodipodi:namedview
     id="namedview1"
     pagecolor="#ffffff"
     bordercolor="#000000"
     borderopacity="0.25"
     inkscape:showpageshadow="2"
     inkscape:pageopacity="0.0"
     inkscape:pagecheckerboard="0"
     inkscape:deskcolor="#d1d1d1"
     inkscape:document-units="mm"
     inkscape:zoom="6.064927"
     inkscape:cx="73.702454"
     inkscape:cy="43.941172"
     inkscape:window-width="1920"
     inkscape:window-height="1111"
     inkscape:window-x="-9"
     inkscape:window-y="-9"
     inkscape:window-maximized="1"
     inkscape:current-layer="layer1" /><defs
     id="defs1" /><g
     inkscape:label="Layer 1"
     inkscape:groupmode="layer"
     id="layer1"><g
       id="g1"
       transform="matrix(0.03698681,0,0,0.03698681,-3.9353966,-7.5009251)"><path
         d="M 850,232.8 H 720.1 c -9.5,0 -20.2,8.4 -22.4,17.7 l -7.7,32 h 192.6 l -8.9,-31.7 c -2.6,-9.4 -13.9,-18 -23.7,-18 z m 37.5,79.7 h -751 V 791.2 H 646.8 L 887.6,550.4 V 312.5 Z M 408.1,723.9 c -94.1,0 -170.7,-76.6 -170.7,-170.7 0,-94.1 76.6,-170.7 170.7,-170.7 94.1,0 170.7,76.6 170.7,170.7 0,94.2 -76.6,170.7 -170.7,170.7 z M 849.6,398 c 0,6.6 -5.4,12 -12,12 h -68.5 c -6.6,0 -12,-5.4 -12,-12 v -33.2 c 0,-6.6 5.4,-12 12,-12 h 68.5 c 6.6,0 12,5.4 12,12 z M 768.1,791.2 887.5,671.8 v -79 L 689.1,791.2 Z m 119.4,0 v -77 l -76.9,77 z"
         fill="#ffbc00"
         id="path1" /><path
         d="m 916.4,301.5 c 0.4,-4.9 0,-9.9 -1.4,-15 l -12.3,-43.9 c -6.3,-22.3 -29.4,-39.8 -52.5,-39.8 H 720.1 c -23.4,0 -46.1,17.9 -51.6,40.7 l -9.4,39 H 288.6 v -29.6 c 0,-14.9 -12.1,-27 -27,-27 h -94.5 c -14.9,0 -27,12.1 -27,27 v 29.5 h -6.7 c -14.9,0 -27,12.1 -27,27 v 484.7 c 0,14.9 12.1,27 27,27 h 757.1 c 14.9,0 27,-12.1 27,-27 V 309.5 c 0,-2.8 -0.4,-5.5 -1.1,-8 z m -226.4,-19 7.7,-32 c 2.2,-9.3 12.9,-17.7 22.4,-17.7 H 850 c 9.8,0 21,8.5 23.7,17.9 l 8.9,31.7 H 690 Z M 170.2,255.8 h 88.5 V 278 h -88.5 z m 717.3,535.4 h -77 l 77,-77 z m 0,-119.4 -119.4,119.4 h -79 L 887.5,592.8 Z M 646.7,791.2 H 136.5 V 312.5 h 751.1 v 237.9 z"
         fill="#46287c"
         id="path2" /><path
         d="m 548.8,553.3 c 0,-77.6 -63.1,-140.7 -140.7,-140.7 -77.6,0 -140.7,63.1 -140.7,140.7 0,77.6 63.1,140.7 140.7,140.7 77.6,-0.1 140.7,-63.2 140.7,-140.7 z m -140.7,74.4 c -41.1,0 -74.4,-33.3 -74.4,-74.4 0,-41.1 33.3,-74.4 74.4,-74.4 41.1,0 74.4,33.3 74.4,74.4 0,41.1 -33.3,74.4 -74.4,74.4 z"
         fill="#ffbc00"
         id="path3" /><path
         d="m 408.1,382.6 c -94.1,0 -170.7,76.6 -170.7,170.7 0,94.1 76.6,170.7 170.7,170.7 94.1,0 170.7,-76.6 170.7,-170.7 0,-94.1 -76.6,-170.7 -170.7,-170.7 z M 267.5,553.3 c 0,-77.6 63.1,-140.7 140.7,-140.7 77.6,0 140.7,63.1 140.7,140.7 0,77.6 -63.1,140.7 -140.7,140.7 -77.6,-0.1 -140.7,-63.2 -140.7,-140.7 z"
         fill="#46287c"
         id="path4" /><path
         d="m 408.1,553.3 m -74.4,0 a 74.4,74.4 0 1 0 148.8,0 74.4,74.4 0 1 0 -148.8,0 z"
         fill="#ffffff"
         id="path5" /><path
         d="m 837.6,352.9 h -68.5 c -6.6,0 -12,5.4 -12,12 V 398 c 0,6.6 5.4,12 12,12 h 68.5 c 6.6,0 12,-5.4 12,-12 v -33.2 c 0,-6.5 -5.4,-11.9 -12,-11.9 z"
         fill="#ffffff"
         id="path6" /><path
         d="m 170.2,255.8 h 88.5 V 278 h -88.5 z"
         fill="#ffbc00"
         id="path7" /></g></g></svg>
