<?xml version="1.0" encoding="UTF-8" standalone="no"?>
<!-- Created with Inkscape (http://www.inkscape.org/) -->

<svg
   width="30.1mm"
   height="24.4mm"
   viewBox="0 0 30.1 24.400001"
   version="1.1"
   id="svg1"
   xml:space="preserve"
   inkscape:version="1.4.2 (f4327f4, 2025-05-13)"
   sodipodi:docname="Cam11.svg"
   xmlns:inkscape="http://www.inkscape.org/namespaces/inkscape"
   xmlns:sodipodi="http://sodipodi.sourceforge.net/DTD/sodipodi-0.dtd"
   xmlns="http://www.w3.org/2000/svg"
   xmlns:svg="http://www.w3.org/2000/svg"><sodipodi:namedview
     id="namedview1"
     pagecolor="#ffffff"
     bordercolor="#000000"
     borderopacity="0.25"
     inkscape:showpageshadow="2"
     inkscape:pageopacity="0.0"
     inkscape:pagecheckerboard="0"
     inkscape:deskcolor="#d1d1d1"
     inkscape:document-units="mm"
     inkscape:zoom="4.288551"
     inkscape:cx="98.401535"
     inkscape:cy="48.151462"
     inkscape:window-width="1920"
     inkscape:window-height="1111"
     inkscape:window-x="-9"
     inkscape:window-y="-9"
     inkscape:window-maximized="1"
     inkscape:current-layer="layer1" /><defs
     id="defs1" /><g
     inkscape:label="Layer 1"
     inkscape:groupmode="layer"
     id="layer1"><g
       id="g1"
       transform="matrix(0.03662109,0,0,0.03662109,-4.1718746,-6.1874994)"><path
         d="m 395.52,258.56 h -217.6 l 25.6,-76.8 h 166.4 z"
         fill="#e96a60"
         id="path1" /><path
         d="m 395.52,271.36 h -217.6 c -3.84,0 -7.68,-2.56 -10.24,-5.12 -2.56,-3.84 -2.56,-7.68 -1.28,-11.52 l 25.6,-76.8 c 1.28,-5.12 6.4,-8.96 11.52,-8.96 h 166.4 c 5.12,0 10.24,3.84 11.52,8.96 l 25.6,76.8 c 1.28,3.84 1.28,7.68 -1.28,11.52 -2.56,3.84 -6.4,5.12 -10.24,5.12 z M 195.84,245.76 H 377.6 l -16.64,-51.2 H 212.48 Z"
         fill="#231c1c"
         id="path2" /><path
         d="m 920.32,796.16 c 0,14.08 -11.52,25.6 -25.6,25.6 h -742.4 c -14.08,0 -25.6,-11.52 -25.6,-25.6 v -537.6 c 0,-14.08 11.52,-25.6 25.6,-25.6 h 742.4 c 14.08,0 25.6,11.52 25.6,25.6 z"
         fill="#fac546"
         id="path3" /><path
         d="m 894.72,834.56 h -742.4 c -21.76,0 -38.4,-16.64 -38.4,-38.4 v -537.6 c 0,-21.76 16.64,-38.4 38.4,-38.4 h 742.4 c 21.76,0 38.4,16.64 38.4,38.4 v 537.6 c 0,21.76 -17.92,38.4 -38.4,38.4 z m -742.4,-588.8 c -7.68,0 -12.8,5.12 -12.8,12.8 v 537.6 c 0,7.68 5.12,12.8 12.8,12.8 h 742.4 c 7.68,0 12.8,-5.12 12.8,-12.8 v -537.6 c 0,-7.68 -5.12,-12.8 -12.8,-12.8 z"
         fill="#231c1c"
         id="path4" /><path
         d="m 920.32,796.16 c 0,14.08 -11.52,25.6 -25.6,25.6 h -742.4 c -14.08,0 -25.6,-11.52 -25.6,-25.6 v -12.8 c 0,-14.08 -1.28,-51.2 12.8,-51.2 h 768 c 14.08,0 12.8,37.12 12.8,51.2 z"
         fill="#faf1c7"
         id="path5" /><path
         d="m 894.72,834.56 h -742.4 c -21.76,0 -38.4,-16.64 -38.4,-38.4 v -16.64 c 0,-23.04 0,-43.52 11.52,-55.04 3.84,-3.84 8.96,-6.4 14.08,-6.4 h 768 c 5.12,0 10.24,2.56 14.08,6.4 10.24,10.24 11.52,32 11.52,55.04 v 16.64 c 0,21.76 -17.92,38.4 -38.4,38.4 z m -752.64,-89.6 c -1.28,3.84 -2.56,12.8 -2.56,34.56 v 16.64 c 0,7.68 5.12,12.8 12.8,12.8 h 742.4 c 7.68,0 12.8,-5.12 12.8,-12.8 v -16.64 c 0,-21.76 -1.28,-30.72 -2.56,-34.56 z"
         fill="#231c1c"
         id="path6" /><path
         d="m 126.72,245.76 v 128 h 793.6 v -128"
         fill="#faf1c7"
         id="path7" /><path
         d="m 920.32,386.56 h -793.6 c -7.68,0 -12.8,-5.12 -12.8,-12.8 v -128 h 25.6 v 115.2 h 768 v -115.2 h 25.6 v 128 c 0,7.68 -6.4,12.8 -12.8,12.8 z"
         fill="#231c1c"
         id="path8" /><path
         d="m 510.72,552.96 m -204.8,0 a 204.8,204.8 0 1 0 409.6,0 204.8,204.8 0 1 0 -409.6,0 z"
         fill="#f7e6a3"
         id="path9" /><path
         d="m 510.72,770.56 c -120.32,0 -217.6,-97.28 -217.6,-217.6 0,-120.32 97.28,-217.6 217.6,-217.6 120.32,0 217.6,97.28 217.6,217.6 0,120.32 -97.28,217.6 -217.6,217.6 z m 0,-409.6 c -106.24,0 -192,85.76 -192,192 0,106.24 85.76,192 192,192 106.24,0 192,-85.76 192,-192 0,-106.24 -85.76,-192 -192,-192 z"
         fill="#231c1c"
         id="path10" /><path
         d="m 510.72,552.96 m -140.8,0 a 140.8,140.8 0 1 0 281.6,0 140.8,140.8 0 1 0 -281.6,0 z"
         fill="#e96a60"
         id="path11" /><path
         d="m 510.72,706.56 c -84.48,0 -153.6,-69.12 -153.6,-153.6 0,-84.48 69.12,-153.6 153.6,-153.6 84.48,0 153.6,69.12 153.6,153.6 0,84.48 -69.12,153.6 -153.6,153.6 z m 0,-281.6 c -70.4,0 -128,57.6 -128,128 0,70.4 57.6,128 128,128 70.4,0 128,-57.6 128,-128 0,-70.4 -57.6,-128 -128,-128 z"
         fill="#231c1c"
         id="path12" /></g></g></svg>
