<?xml version="1.0" encoding="UTF-8" standalone="no"?>
<!-- Created with Inkscape (http://www.inkscape.org/) -->

<svg
   width="30.200001mm"
   height="26.120001mm"
   viewBox="0 0 30.200001 26.120002"
   version="1.1"
   id="svg1"
   xml:space="preserve"
   inkscape:version="1.4.2 (f4327f4, 2025-05-13)"
   sodipodi:docname="Cam18.svg"
   xmlns:inkscape="http://www.inkscape.org/namespaces/inkscape"
   xmlns:sodipodi="http://sodipodi.sourceforge.net/DTD/sodipodi-0.dtd"
   xmlns="http://www.w3.org/2000/svg"
   xmlns:svg="http://www.w3.org/2000/svg"><sodipodi:namedview
     id="namedview1"
     pagecolor="#ffffff"
     bordercolor="#000000"
     borderopacity="0.25"
     inkscape:showpageshadow="2"
     inkscape:pageopacity="0.0"
     inkscape:pagecheckerboard="0"
     inkscape:deskcolor="#d1d1d1"
     inkscape:document-units="mm"
     inkscape:zoom="4.288551"
     inkscape:cx="93.271597"
     inkscape:cy="71.236182"
     inkscape:window-width="1920"
     inkscape:window-height="1111"
     inkscape:window-x="-9"
     inkscape:window-y="-9"
     inkscape:window-maximized="1"
     inkscape:current-layer="layer1" /><defs
     id="defs1" /><g
     inkscape:label="Layer 1"
     inkscape:groupmode="layer"
     id="layer1"><g
       id="g1"
       transform="matrix(0.04016602,0,0,0.04016602,-5.4264293,-5.6754586)"><path
         d="m 356.4,168.9 h 318.1 c 15.3,0 27.7,12.4 27.7,27.7 v 83 H 328.7 v -83 c 0,-15.3 12.4,-27.7 27.7,-27.7 z"
         fill="#ffffff"
         id="path1" /><path
         d="M 729.8,307.2 H 301 V 196.6 c 0,-30.5 24.8,-55.3 55.3,-55.3 h 318.1 c 30.5,0 55.3,24.8 55.3,55.3 V 307.2 Z M 356.4,251.9 H 674.5 V 196.6 H 356.3 Z"
         fill="#333333"
         id="path2" /><path
         d="m 162.8,238.1 h 691.5 c 15.3,0 27.7,12.4 27.7,27.7 v 497.9 c 0,15.3 -12.4,27.7 -27.7,27.7 H 162.8 c -15.3,0 -27.7,-12.4 -27.7,-27.7 V 265.8 c 0,-15.4 12.4,-27.7 27.7,-27.7 z"
         fill="#ffffff"
         id="path3" /><path
         d="M 826.6,791.3 H 190.4 c -30.5,0 -55.3,-24.8 -55.3,-55.3 V 293.4 c 0,-30.5 24.8,-55.3 55.3,-55.3 h 636.2 c 30.5,0 55.3,24.8 55.3,55.3 v 442.5 c 0,30.5 -24.8,55.4 -55.3,55.4 z M 190.4,293.4 V 735.9 H 826.6 V 293.3 H 190.4 Z"
         fill="#333333"
         id="path4" /><path
         d="m 328.7,514.7 a 186.7,179.8 0 1 0 373.4,0 186.7,179.8 0 1 0 -373.4,0 z"
         fill="#8caaff"
         id="path5" /><path
         d="m 515.4,722.1 c -118.2,0 -214.4,-93 -214.4,-207.4 0,-114.4 96.2,-207.4 214.4,-207.4 118.2,0 214.4,93.1 214.4,207.4 0,114.3 -96.2,207.4 -214.4,207.4 z m 0,-359.6 c -87.7,0 -159,68.2 -159,152.1 0,83.9 71.3,152.2 159,152.2 87.7,0 159,-68.2 159,-152.1 0,-83.9 -71.3,-152.2 -159,-152.2 z"
         fill="#333333"
         id="path6" /><path
         d="m 439.3,514.7 a 76.1,69.1 0 1 0 152.2,0 76.1,69.1 0 1 0 -152.2,0 z"
         fill="#ffffff"
         id="path7" /><path
         d="m 515.4,611.5 c -57.2,0 -103.7,-43.4 -103.7,-96.8 0,-53.4 46.5,-96.8 103.7,-96.8 57.2,0 103.7,43.4 103.7,96.8 0,53.4 -46.5,96.8 -103.7,96.8 z m 0,-138.3 c -26.7,0 -48.4,18.6 -48.4,41.5 0,22.9 21.7,41.5 48.4,41.5 26.7,0 48.4,-18.6 48.4,-41.5 0,-22.9 -21.7,-41.5 -48.4,-41.5 z"
         fill="#333333"
         id="path8" /></g></g></svg>
