<?xml version="1.0" encoding="UTF-8" standalone="no"?>
<!-- Created with Inkscape (http://www.inkscape.org/) -->

<svg
   width="30.1mm"
   height="24.34mm"
   viewBox="0 0 30.1 24.34"
   version="1.1"
   id="svg1"
   xml:space="preserve"
   inkscape:version="1.4.2 (f4327f4, 2025-05-13)"
   sodipodi:docname="Cam16.svg"
   xmlns:inkscape="http://www.inkscape.org/namespaces/inkscape"
   xmlns:sodipodi="http://sodipodi.sourceforge.net/DTD/sodipodi-0.dtd"
   xmlns="http://www.w3.org/2000/svg"
   xmlns:svg="http://www.w3.org/2000/svg"><sodipodi:namedview
     id="namedview1"
     pagecolor="#ffffff"
     bordercolor="#000000"
     borderopacity="0.25"
     inkscape:showpageshadow="2"
     inkscape:pageopacity="0.0"
     inkscape:pagecheckerboard="0"
     inkscape:deskcolor="#d1d1d1"
     inkscape:document-units="mm"
     inkscape:zoom="4.288551"
     inkscape:cx="93.971134"
     inkscape:cy="59.577232"
     inkscape:window-width="1920"
     inkscape:window-height="1111"
     inkscape:window-x="-9"
     inkscape:window-y="-9"
     inkscape:window-maximized="1"
     inkscape:current-layer="layer1" /><defs
     id="defs1" /><g
     inkscape:label="Layer 1"
     inkscape:groupmode="layer"
     id="layer1"><g
       id="g1"
       transform="matrix(0.03348214,0,0,0.03348214,-2.142857,-6.9642851)"><path
         d="m 960,336.384 a 22.464,22.464 0 0 0 -22.4,-22.4 H 714.944 L 691.968,230.4 c 0,-12.288 -12.544,-22.4 -24.896,-22.4 H 358.976 c -12.288,0 -22.4,6.016 -25.536,22.4 l -24.384,83.584 H 86.4 a 22.528,22.528 0 0 0 -22.4,22.4 v 576 c 0,12.288 10.112,22.4 22.4,22.4 h 851.2 c 12.288,0 22.4,-10.048 22.4,-22.4 V 659.968 h -0.32 c 0,-0.576 0.32,-1.088 0.32,-1.6 a 22.432,22.432 0 0 0 -44.864,0 c 0,0.576 0.32,1.088 0.32,1.6 H 915.2 v -58.944 a 22.4,22.4 0 1 0 44.8,0 V 558.72 h -0.064 a 22.4,22.4 0 0 0 -44.736,0 v -75.968 h 0.384 c -0.064,0.64 -0.384,1.152 -0.384,1.792 a 22.4,22.4 0 1 0 44.8,0 c 0,-0.64 -0.32,-1.216 -0.384,-1.792 H 960 Z"
         fill=""
         id="path1" /><path
         d="m 108.8,358.784 h 806.4 v 531.2 H 108.8 Z"
         fill="#ededed"
         id="path2" /><path
         d="m 108.8,417.344 h 806.4 v 44.8 H 108.8 Z m 0,368.64 H 915.2 V 830.72 H 108.8 Z"
         fill="#9b5f00"
         id="path3" /><path
         d="m 108.8,462.144 h 806.4 v 323.84 H 108.8 Z"
         fill="#d87b00"
         id="path4" /><path
         d="m 512,624.384 m -205.312,0 a 205.312,205.312 0 1 0 410.624,0 205.312,205.312 0 1 0 -410.624,0 z"
         fill=""
         id="path5" /><path
         d="m 512,624.384 m -160.512,0 a 160.512,160.512 0 1 0 321.024,0 160.512,160.512 0 1 0 -321.024,0 z"
         fill="#515151"
         id="path6" /><path
         d="m 512,624.384 m -86.656,0 a 86.656,86.656 0 1 0 173.312,0 86.656,86.656 0 1 0 -173.312,0 z"
         fill=""
         id="path7" /><path
         d="m 491.008,601.024 m -35.008,0 a 35.008,35.008 0 1 0 70.016,0 35.008,35.008 0 1 0 -70.016,0 z"
         fill="#ededed"
         id="path8" /><path
         d="M 358.784,313.984 373.568,252.8 h 278.08 l 16.128,61.184 z"
         fill="#ededed"
         id="path9" /><path
         d="m 598.656,284.992 a 9.6,9.6 0 0 1 -9.6,9.6 H 434.944 a 9.6,9.6 0 1 1 0,-19.2 h 154.048 c 5.312,0 9.664,4.352 9.664,9.6 z"
         fill=""
         id="path10" /></g></g></svg>
