<?xml version="1.0" encoding="UTF-8" standalone="no"?>
<!-- Created with Inkscape (http://www.inkscape.org/) -->

<svg
   width="30.200001mm"
   height="24.129999mm"
   viewBox="0 0 30.2 24.129999"
   version="1.1"
   id="svg1"
   xml:space="preserve"
   inkscape:version="1.4.2 (f4327f4, 2025-05-13)"
   sodipodi:docname="Cam14.svg"
   xmlns:inkscape="http://www.inkscape.org/namespaces/inkscape"
   xmlns:sodipodi="http://sodipodi.sourceforge.net/DTD/sodipodi-0.dtd"
   xmlns="http://www.w3.org/2000/svg"
   xmlns:svg="http://www.w3.org/2000/svg"><sodipodi:namedview
     id="namedview1"
     pagecolor="#ffffff"
     bordercolor="#000000"
     borderopacity="0.25"
     inkscape:showpageshadow="2"
     inkscape:pageopacity="0.0"
     inkscape:pagecheckerboard="0"
     inkscape:deskcolor="#d1d1d1"
     inkscape:document-units="mm"
     inkscape:zoom="4.288551"
     inkscape:cx="114.72406"
     inkscape:cy="32.29529"
     inkscape:window-width="1920"
     inkscape:window-height="1111"
     inkscape:window-x="-9"
     inkscape:window-y="-9"
     inkscape:window-maximized="1"
     inkscape:current-layer="layer1" /><defs
     id="defs1" /><g
     inkscape:label="Layer 1"
     inkscape:groupmode="layer"
     id="layer1"><g
       id="g1"
       transform="matrix(0.03033674,0,0,0.03033674,-0.5369603,-3.59187)"><path
         d="m 327.3,261.6 h -99.7 c -35.8,0 -65.1,-29.3 -65.1,-65.1 0,-35.8 29.3,-65.1 65.1,-65.1 h 99.7 c 35.8,0 65.1,29.3 65.1,65.1 0,35.8 -29.3,65.1 -65.1,65.1 z"
         fill="#fafcfb"
         id="path1" /><path
         d="m 327.3,274.6 h -99.7 c -43.1,0 -78.1,-35 -78.1,-78.1 0,-43.1 35,-78.1 78.1,-78.1 h 99.7 c 43.1,0 78.1,35 78.1,78.1 0,43.1 -35,78.1 -78.1,78.1 z M 227.6,144.4 c -28.7,0 -52.1,23.4 -52.1,52.1 0,28.7 23.4,52.1 52.1,52.1 h 99.7 c 28.7,0 52.1,-23.4 52.1,-52.1 0,-28.7 -23.4,-52.1 -52.1,-52.1 z"
         fill="#0f0f0f"
         id="path2" /><path
         d="M 908.8,900.8 H 117.2 c -46.9,0 -84.8,-38 -84.8,-84.8 V 279.4 c 0,-46.9 38,-84.8 84.8,-84.8 h 791.6 c 46.9,0 84.8,38 84.8,84.8 V 816 c 0,46.8 -37.9,84.8 -84.8,84.8 z"
         fill="#fafcfb"
         id="path3" /><path
         d="M 908.8,913.8 H 117.2 C 63.3,913.8 19.4,869.9 19.4,816 V 279.4 c 0,-53.9 43.9,-97.8 97.8,-97.8 h 791.6 c 53.9,0 97.8,43.9 97.8,97.8 V 816 c 0,53.9 -43.9,97.8 -97.8,97.8 z M 117.2,207.5 c -39.6,0 -71.8,32.2 -71.8,71.8 V 816 c 0,39.6 32.2,71.8 71.8,71.8 h 791.6 c 39.6,0 71.8,-32.2 71.8,-71.8 V 279.4 c 0,-39.6 -32.2,-71.8 -71.8,-71.8 H 117.2 Z"
         fill="#0f0f0f"
         id="path4" /><path
         d="M 30.7,468.4 H 992 V 745.9 H 30.7 Z"
         fill="#9dc6af"
         id="path5" /><path
         d="M 1005,759 H 17.7 V 455.4 H 1005 Z M 43.7,733 H 979 V 481.4 H 43.7 Z"
         fill="#191919"
         id="path6" /><path
         d="M 511.3,604 M 299,604 a 212.3,212.3 0 1 0 424.6,0 212.3,212.3 0 1 0 -424.6,0 z"
         fill="#fafcfb"
         id="path7" /><path
         d="m 511.3,829.3 c -60.2,0 -116.8,-23.4 -159.3,-66 -42.6,-42.6 -66,-99.1 -66,-159.3 0,-60.2 23.4,-116.8 66,-159.3 42.6,-42.6 99.1,-66 159.3,-66 60.2,0 116.8,23.4 159.3,66 42.6,42.6 66,99.1 66,159.3 0,60.2 -23.4,116.8 -66,159.3 -42.5,42.6 -99.1,66 -159.3,66 z m 0,-424.6 C 401.4,404.7 312,494.1 312,604 c 0,109.9 89.4,199.3 199.3,199.3 109.9,0 199.3,-89.4 199.3,-199.3 0,-109.9 -89.4,-199.3 -199.3,-199.3 z"
         fill="#0f0f0f"
         id="path8" /><path
         d="m 511.3,604 m -141.9,0 a 141.9,141.9 0 1 0 283.8,0 141.9,141.9 0 1 0 -283.8,0 z"
         fill="#d39e33"
         id="path9" /><path
         d="m 511.3,759 c -85.4,0 -154.9,-69.5 -154.9,-154.9 0,-85.4 69.5,-154.9 154.9,-154.9 85.4,0 155,69.4 155,154.8 0,85.4 -69.5,155 -155,155 z m 0,-283.9 c -71.1,0 -128.9,57.8 -128.9,128.9 0,71.1 57.8,129 128.9,129 71.1,0 128.9,-57.8 128.9,-128.9 0,-71.1 -57.8,-129 -128.9,-129 z"
         fill="#0c0c0c"
         id="path10" /><path
         d="m 874.6,317.4 h -79 c -15.3,0 -27.9,-12.6 -27.9,-27.9 0,-15.3 12.6,-27.9 27.9,-27.9 h 79 c 15.3,0 27.9,12.6 27.9,27.9 0,15.3 -12.5,27.9 -27.9,27.9 z"
         fill="#9dc6af"
         id="path11" /><path
         d="m 874.6,330.4 h -79 c -22.5,0 -40.9,-18.3 -40.9,-40.9 0,-22.6 18.3,-40.9 40.9,-40.9 h 79 c 22.5,0 40.9,18.3 40.9,40.9 0,22.6 -18.3,40.9 -40.9,40.9 z m -79,-55.8 c -8.2,0 -14.9,6.7 -14.9,14.9 0,8.2 6.7,14.9 14.9,14.9 h 79 c 8.2,0 14.9,-6.7 14.9,-14.9 0,-8.2 -6.7,-14.9 -14.9,-14.9 z"
         fill="#191919"
         id="path12" /></g></g></svg>
