<?xml version="1.0" encoding="UTF-8" standalone="no"?>
<svg
   width="136.063"
   height="93"
   viewBox="0 0 36 24.606248"
   version="1.1"
   id="svg8"
   sodipodi:docname="Cam1.svg"
   inkscape:version="1.4.2 (f4327f4, 2025-05-13)"
   xmlns:inkscape="http://www.inkscape.org/namespaces/inkscape"
   xmlns:sodipodi="http://sodipodi.sourceforge.net/DTD/sodipodi-0.dtd"
   xmlns="http://www.w3.org/2000/svg"
   xmlns:svg="http://www.w3.org/2000/svg">
  <defs
     id="defs8" />
  <sodipodi:namedview
     id="namedview8"
     pagecolor="#ffffff"
     bordercolor="#000000"
     borderopacity="0.25"
     inkscape:showpageshadow="2"
     inkscape:pageopacity="0.0"
     inkscape:pagecheckerboard="0"
     inkscape:deskcolor="#d1d1d1"
     inkscape:zoom="4.4225679"
     inkscape:cx="53.814889"
     inkscape:cy="65.68582"
     inkscape:window-width="1920"
     inkscape:window-height="1111"
     inkscape:window-x="-9"
     inkscape:window-y="-9"
     inkscape:window-maximized="1"
     inkscape:current-layer="svg8" />
  <g
     transform="matrix(0.265413,0,0,0.265413,-7.9101348,-12.814508)"
     id="g8">
    <path
       d="m 97.372,182.709 c -0.788,-0.446 -8.408,-8.172 -18.954,-19.215 -6.602,-6.914 -6.532,-6.829 -6.532,-7.893 0,-0.497 0.155,-1.125 0.345,-1.396 0.685,-0.978 1.37,-1.083 7.06,-1.083 h 5.302 l -0.056,-5.98 -0.056,-5.98 -17.78,-0.106 c -15.94,-0.095 -17.871,-0.142 -18.655,-0.458 -2.881,-1.16 -5.15,-3.796 -5.766,-6.696 -0.17,-0.801 -0.238,-9.855 -0.238,-31.659 l 0.341,-31.687 c 1.186,-3.996 3.964,-6.323 8.182,-6.854 l 1.955,-0.246 -0.064,-0.589 c -0.112,-1.029 0.384,-2.819 1.025,-3.705 a 5.38,5.38 0 0 1 1.523,-1.338 c 0.864,-0.461 1.144,-0.485 6.548,-0.547 6.357,-0.074 6.96,0.013 8.263,1.188 1.151,1.038 1.638,2.156 1.644,3.776 0.005,1.539 0.082,1.593 1.982,1.416 l 1.348,-0.126 3.361,-6.769 c 1.984,-3.995 3.569,-6.933 3.869,-7.169 0.488,-0.384 1.143,-0.4 16.45,-0.4 11.919,0 16.083,0.064 16.498,0.253 0.448,0.204 1.212,1.589 3.957,7.174 3.275,6.665 3.426,6.925 4.065,7.029 0.365,0.059 1.113,0.057 1.662,-0.005 l 0.999,-0.113 v -1.059 c 0,-2.237 0.977,-3.863 2.843,-4.732 1.041,-0.485 1.238,-0.5 6.577,-0.501 3.194,-10e-4 5.839,0.092 6.303,0.221 1.865,0.518 3.116,2.332 3.116,4.517 0,0.754 0.096,1.431 0.213,1.503 0.117,0.072 1.03,0.216 2.03,0.319 3.121,0.322 5.451,1.732 6.943,4.202 1.492,2.47 1.397,0.147 1.397,34.207 0,33.594 0.061,31.896 -1.224,34.268 -0.821,1.516 -2.349,2.954 -4.004,3.769 l -1.43,0.704 -17.891,0.106 -17.891,0.106 v 5.927 5.927 l 5.503,0.106 c 5.757,0.111 6.104,0.168 6.762,1.107 0.437,0.624 0.415,2.041 -0.043,2.726 -0.551,0.824 -24.385,25.444 -24.901,25.723 -0.968,0.522 -1.7,0.531 -2.581,0.032 z M 49.661,135.156 c 0,-1.265 0.088,-1.952 0.27,-2.103 0.182,-0.151 4.898,-0.223 14.835,-0.22 l 14.632,-0.067 c 0.037,-0.039 -0.671,-0.746 -1.573,-1.572 l -1.64,-1.502 -13.209,-0.074 -15.22,-0.086 -2.011,-0.012 0.033,1.865 c 0.028,1.587 0.122,2.044 0.635,3.069 0.63,1.261 2.084,2.58 2.841,2.58 0.371,0 0.407,-0.166 0.407,-1.879 z m 95.57,-2.659 c 0.834,-0.348 1.583,-1.432 1.585,-2.291 l 0.001,-0.585 -7.097,0.056 -7.097,0.056 -0.847,1.535 -0.847,1.535 h 6.787 c 5.428,0 6.933,-0.061 7.517,-0.305 z m -43.448,-0.551 c 2.941,-0.558 4.983,-1.234 7.409,-2.451 2.652,-1.331 4.272,-2.526 6.192,-4.567 3.733,-3.968 5.663,-8.105 6.472,-13.871 0.713,-5.077 -0.938,-11.749 -4.059,-16.402 -2.826,-4.213 -6.939,-7.356 -11.903,-9.093 -1.3,-0.455 -2.757,-1.106 -3.238,-1.447 -0.481,-0.341 -1.766,-1.059 -2.858,-1.597 -1.978,-0.974 -1.99,-0.976 -3.678,-0.852 -5.879,0.431 -12.321,3.468 -16.749,7.896 -3.964,3.964 -6.762,9.776 -7.49,15.557 -0.336,2.673 -0.201,5.95 0.287,6.96 0.475,0.981 2.345,3.081 3.087,3.464 0.384,0.199 0.662,0.59 0.839,1.178 1.528,5.099 5.767,10.037 11.075,12.9 1.787,0.964 5.358,2.248 7.03,2.528 1.997,0.334 5.203,0.249 7.582,-0.203 z m -4.92,-1.611 c -4.383,-0.418 -8.244,-1.839 -11.363,-4.184 -1.565,-1.177 -4.037,-3.78 -5.161,-5.434 -4.309,-6.345 -4.911,-14.687 -1.57,-21.741 1.218,-2.572 2.393,-4.189 4.577,-6.301 2.174,-2.102 3.907,-3.288 6.361,-4.352 2.973,-1.289 4.772,-1.703 7.908,-1.82 6.267,-0.232 11.364,1.673 15.891,5.94 1.936,1.825 4.215,5.033 5.077,7.148 1.311,3.215 1.598,4.56 1.714,8.023 0.13,3.907 -0.168,5.763 -1.444,8.974 -1.409,3.545 -3.288,6.15 -6.227,8.628 -2.2,1.856 -4.207,2.992 -7.066,3.999 -2.867,1.01 -5.842,1.393 -8.7,1.121 z m -8.202,-21.264 c 0.568,-0.685 0.48,-1.764 -0.187,-2.289 -1.21,-0.951 -2.617,-0.285 -2.617,1.239 0,1.56 1.816,2.24 2.805,1.05 z m 4.264,-5.324 c 2.217,-1.271 2.164,-4.791 -0.088,-5.923 -2.325,-1.168 -4.861,0.351 -4.863,2.913 -0.001,1.419 0.555,2.405 1.695,3.008 1.147,0.606 2.2,0.607 3.256,0.002 z M 49.609,107.56 49.555,89.304 H 47.65 45.745 l -0.055,17.992 0.046,18.256 c 0.07,0.185 0.678,0.265 2.014,0.265 h 1.913 z M 79.585,84.292 c 3.11,-2.524 7.89,-4.808 12.179,-5.821 3.304,-0.78 8.284,-0.913 11.766,-0.313 5.41,0.931 10.423,3.174 14.325,6.409 l 0.99,0.821 h 13.961 13.961 l 0.093,-8.837 0.012,-8.996 C 146.827,67.468 125.008,67.397 98.385,67.398 L 49.979,67.4 48.921,67.901 c -1.251,0.592 -2.267,1.603 -2.791,2.776 -0.332,0.743 -0.387,1.669 -0.45,7.585 l 0.023,6.985 c 0.071,0.186 4.098,0.229 16.34,0.172 l 16.245,-0.075 z m 46.693,-1.028 c -0.777,-0.832 -0.891,-1.781 -0.803,-6.697 0.067,-3.741 0.083,-3.861 0.585,-4.396 0.284,-0.302 0.856,-0.649 1.27,-0.771 0.484,-0.143 3.496,-0.198 8.423,-0.155 l 7.669,0.067 0.692,0.692 0.692,0.692 v 4.987 4.987 l -0.691,0.618 -0.691,0.618 h -8.273 -8.273 z M 56.586,82.123 c -1.988,-0.534 -3.32,-2.158 -3.494,-4.259 -0.113,-1.365 0.226,-2.446 1.07,-3.407 0.947,-1.079 2.159,-1.64 3.543,-1.64 3.939,0 6.108,4.7 3.582,7.762 -1.189,1.441 -2.942,2.017 -4.701,1.544 z m 74.949,-18.507 c 0.189,-0.12 0.256,-0.568 0.212,-1.426 -0.062,-1.196 -0.09,-1.253 -0.66,-1.319 a 1.96,1.96 0 0 0 -1.111,0.269 c -0.428,0.28 -0.515,0.511 -0.515,1.356 0,0.56 0.064,1.082 0.141,1.159 0.199,0.199 1.603,0.17 1.934,-0.041 z M 58.551,62.32 c 0,-1.164 -0.041,-1.276 -0.514,-1.395 -0.584,-0.147 -1.421,0.063 -1.652,0.414 -0.086,0.13 -0.157,0.688 -0.159,1.241 l -0.003,1.005 h 1.164 1.164 z m 23.516,-0.289 c 0.419,-0.797 0.876,-1.52 1.016,-1.607 0.14,-0.087 6.842,-0.177 14.894,-0.201 l 14.713,-0.117 c 0.04,-0.04 -0.457,-1.129 -1.104,-2.42 -0.647,-1.291 -1.177,-2.495 -1.177,-2.677 0,-0.639 -0.828,-1.952 -1.313,-2.082 -0.694,-0.186 -24.568,-0.161 -24.853,0.026 -0.245,0.161 -5.16,10.129 -5.16,10.466 0,0.104 0.5,0.161 1.111,0.126 l 1.111,-0.064 z"
       fill="#9a95ae"
       id="path1" />
    <path
       d="m 97.594,182.765 c -0.423,-0.171 -8.911,-8.804 -18.22,-18.53 -7.455,-7.789 -7.276,-7.579 -7.276,-8.575 0,-0.906 0.42,-1.749 1.018,-2.044 0.197,-0.097 2.882,-0.224 5.967,-0.282 l 5.609,-0.106 0.056,-5.901 c 0.04,-4.177 -0.014,-5.986 -0.185,-6.191 -0.201,-0.242 -3.139,-0.29 -17.533,-0.29 -18.818,0 -18.384,0.025 -20.469,-1.194 -1.303,-0.762 -2.767,-2.443 -3.529,-4.05 l -0.674,-1.423 v -31.75 -31.75 l 0.766,-1.588 c 1.597,-3.309 4.8,-5.292 8.545,-5.292 h 0.893 l 0.121,-1.595 c 0.181,-2.392 1.18,-3.847 3.094,-4.507 0.481,-0.166 2.583,-0.247 6.35,-0.243 5.028,0.004 5.721,0.047 6.477,0.397 1.659,0.768 2.646,2.347 2.646,4.231 0,1.692 0.029,1.717 1.935,1.717 h 1.678 l 3.381,-6.826 c 1.86,-3.754 3.581,-6.993 3.826,-7.197 0.415,-0.346 1.518,-0.37 16.461,-0.37 14.349,0 16.067,0.035 16.5,0.339 0.299,0.209 1.778,2.97 3.861,7.205 l 3.377,6.866 1.742,-0.061 1.742,-0.061 0.119,-1.482 c 0.142,-1.767 0.627,-2.868 1.624,-3.69 1.222,-1.008 1.965,-1.101 8.221,-1.031 l 5.731,0.064 0.872,0.577 c 1.288,0.853 1.96,2.143 2.103,4.04 l 0.118,1.563 2.055,0.223 c 3.236,0.352 5.403,1.628 6.859,4.038 1.497,2.477 1.401,0.131 1.401,34.344 l -0.399,32.127 c -0.219,0.705 -0.64,1.693 -0.935,2.196 -0.753,1.285 -2.487,2.839 -3.912,3.508 l -1.21,0.567 -17.764,0.058 -18.045,0.291 c -0.22,0.183 -0.281,1.453 -0.281,5.905 0,3.119 0.058,5.822 0.128,6.007 0.112,0.293 0.799,0.335 5.517,0.335 3.552,0 5.546,0.081 5.851,0.236 1.255,0.642 1.603,2.316 0.727,3.5 -0.418,0.566 -13.447,14.116 -21.521,22.383 -3.27,3.348 -4.093,3.85 -5.423,3.312 z m -47.554,-47.476 0.061,-1.852 h 15.144 l 15.073,-0.191 c -0.039,-0.105 -0.939,-1.007 -2.001,-2.005 l -1.93,-1.813 -15.3,-0.019 c -12.41,-0.016 -15.335,0.033 -15.486,0.258 -0.294,0.439 0.041,3.566 0.499,4.642 0.635,1.495 2.439,2.998 3.456,2.881 0.382,-0.044 0.429,-0.229 0.484,-1.901 z m 95.432,-2.29 c 1.147,-0.555 1.818,-1.594 1.728,-2.677 l -0.066,-0.8 -7.091,-0.059 c -3.9,-0.032 -7.295,-0.009 -7.544,0.051 -0.277,0.067 -0.676,0.542 -1.029,1.223 -0.317,0.612 -0.708,1.263 -0.87,1.447 -0.162,0.184 -0.294,0.541 -0.294,0.794 v 0.46 h 7.13 c 6.779,0 7.174,-0.022 8.035,-0.438 z m -43.246,-0.543 c 3.301,-0.621 7.165,-2.19 9.924,-4.032 1.534,-1.024 5.253,-4.689 6.18,-6.09 1.06,-1.603 2.558,-4.695 3.056,-6.309 0.955,-3.092 1.409,-8.054 0.978,-10.687 -0.76,-4.645 -1.897,-7.647 -4.189,-11.059 -1.953,-2.906 -4.476,-5.249 -7.827,-7.265 -1.88,-1.131 -2.656,-1.484 -4.594,-2.091 -0.756,-0.237 -2.617,-1.077 -4.135,-1.867 -3.281,-1.707 -4.172,-1.886 -6.986,-1.4 C 85.44,83.244 78,88.663 74.321,96.451 c -2.589,5.481 -3.383,10.574 -2.444,15.681 0.504,2.741 1.175,5.128 1.499,5.327 0.113,0.07 0.206,-0.016 0.206,-0.191 0,-0.175 0.227,-0.582 0.505,-0.905 0.435,-0.506 0.552,-0.548 0.847,-0.303 0.188,0.156 0.342,0.371 0.342,0.477 0,0.499 2.572,5.318 3.562,6.674 2.009,2.752 5.365,5.562 8.543,7.153 4.843,2.424 9.549,3.087 14.848,2.091 z m -7.938,-2.737 c -6.115,-1.106 -12.153,-5.688 -15.046,-11.416 -0.846,-1.675 -1.783,-4.522 -2.066,-6.277 -0.381,-2.363 -0.172,-6.813 0.426,-9.069 1.013,-3.82 3.039,-7.249 5.955,-10.078 2.959,-2.872 5.805,-4.457 10.124,-5.639 2.178,-0.596 6.753,-0.641 9.305,-0.091 9.913,2.136 17.16,11.137 17.16,21.311 0,10.24 -7.296,19.156 -17.416,21.285 -1.821,0.383 -6.256,0.369 -8.442,-0.027 z m -5.88,-19.995 c 0.477,-0.255 1.047,-1.274 1.047,-1.872 0,-0.572 -0.942,-1.645 -1.585,-1.806 -0.799,-0.201 -1.897,0.352 -2.212,1.115 -0.711,1.717 1.129,3.432 2.751,2.564 z m 4.44,-5.762 c 2.3,-1.161 2.577,-4.427 0.508,-6.005 -0.684,-0.522 -0.991,-0.61 -2.124,-0.61 -1.486,0 -2.157,0.358 -3.014,1.607 -0.415,0.605 -0.482,0.927 -0.416,2 0.096,1.553 0.63,2.401 1.914,3.037 1.155,0.572 1.955,0.564 3.131,-0.03 z m -43.081,3.545 V 89.092 L 47.881,89.03 c -1.037,-0.034 -1.972,0.025 -2.078,0.131 -0.155,0.155 -0.21,12.416 -0.165,36.292 l 0.001,0.59 2.064,-0.061 2.064,-0.061 z M 79.852,84.466 c 7.893,-6.322 18.784,-8.125 28.759,-4.762 3.034,1.023 7.208,3.374 9.222,5.193 l 0.796,0.719 14.226,-0.013 14.411,-0.127 c 0.102,-0.063 0.185,-4.097 0.185,-8.966 0,-7.213 -0.053,-8.896 -0.288,-9.091 -0.213,-0.177 -12.993,-0.225 -48.948,-0.185 l -48.659,0.055 -0.861,0.461 c -1.031,0.552 -2.346,1.957 -2.761,2.949 -0.237,0.568 -0.302,2.172 -0.309,7.703 l 0.089,7.144 c 0.054,0.087 7.451,0.125 16.439,0.083 l 16.341,-0.075 z m 47.143,-0.981 c -1.062,-0.429 -1.134,-0.804 -1.134,-5.957 v -4.802 l 0.651,-0.548 0.651,-0.548 h 8.011 8.011 l 0.651,0.548 0.651,0.548 v 4.866 4.866 l -0.619,0.619 -0.619,0.619 -7.901,-0.013 c -4.345,-0.007 -8.105,-0.096 -8.354,-0.196 z m -71.191,-1.96 c -1.872,-0.957 -2.873,-3.059 -2.366,-4.974 0.945,-3.571 5.308,-4.631 7.603,-1.846 1.436,1.743 1.439,4.096 0.006,5.727 -1.389,1.582 -3.446,2.011 -5.243,1.093 z m 2.863,-17.993 c 0.056,-0.146 0.125,-0.789 0.152,-1.429 l 0.05,-1.162 -1.158,-0.066 c -0.91,-0.052 -1.216,0.014 -1.429,0.305 -0.281,0.384 -0.378,2.229 -0.13,2.477 0.262,0.262 2.407,0.155 2.514,-0.125 z m 23.009,-0.104 c 0.182,-0.204 0.555,-0.847 0.83,-1.429 l 0.499,-1.058 15.128,-0.106 c 13.831,-0.097 15.134,-0.136 15.195,-0.455 0.037,-0.192 -0.462,-1.371 -1.108,-2.621 -0.646,-1.25 -1.176,-2.402 -1.176,-2.562 0,-0.215 0.352,-0.29 1.373,-0.29 h 1.373 l -0.448,-0.922 -0.448,-0.922 -2.777,-0.148 c -3.646,-0.195 -25.25,-0.386 -25.748,-0.228 -0.384,0.122 -5.498,10.179 -5.498,10.812 0,0.472 2.374,0.411 2.805,-0.072 z m 50.368,-0.794 c 0.085,-0.582 0.103,-1.225 0.041,-1.428 -0.135,-0.438 -0.937,-0.68 -1.658,-0.499 -0.892,0.224 -1.179,0.699 -1.179,1.953 v 1.159 l 1.321,-0.063 1.321,-0.063 z"
       fill="#8e7bb1"
       id="path2" />
    <path
       d="m 97.603,182.669 c -0.521,-0.23 -10.968,-10.852 -20.213,-20.552 -5.775,-6.058 -5.293,-5.467 -5.293,-6.498 0,-0.769 0.116,-1.049 0.648,-1.559 l 0.648,-0.622 5.649,-0.106 5.649,-0.106 v -6.138 -6.138 l -17.897,-0.106 -17.897,-0.106 -1.613,-0.797 c -1.713,-0.847 -3.222,-2.279 -3.992,-3.789 -1.074,-2.106 -1.04,-0.997 -1.04,-33.725 0,-32.877 -0.041,-31.607 1.081,-33.805 1.45,-2.842 4.936,-4.824 8.483,-4.824 0.444,0 0.817,-0.071 0.829,-0.159 0.012,-0.088 0.053,-0.749 0.091,-1.471 0.038,-0.722 0.229,-1.648 0.424,-2.059 0.478,-1.008 1.796,-2.161 2.783,-2.435 1.063,-0.295 11.131,-0.297 12.192,-0.002 0.941,0.261 2.15,1.264 2.638,2.188 0.191,0.361 0.4,1.361 0.465,2.222 0.145,1.917 0.29,2.037 2.207,1.832 l 1.421,-0.152 3.48,-6.958 c 2.06,-4.119 3.649,-7.048 3.894,-7.179 0.277,-0.148 5.675,-0.221 16.385,-0.221 14.9,0 16.001,0.025 16.416,0.37 0.244,0.204 1.963,3.437 3.82,7.184 l 3.375,6.814 0.786,0.148 c 0.433,0.081 1.225,0.063 1.76,-0.041 l 0.974,-0.188 0.116,-1.486 c 0.153,-1.959 0.805,-3.15 2.196,-4.009 l 1.042,-0.644 h 6.049 c 5.724,0 6.095,0.024 6.896,0.442 a 5.01,5.01 0 0 1 1.466,1.319 c 0.517,0.731 0.64,1.156 0.743,2.559 0.068,0.925 0.185,1.743 0.259,1.818 0.074,0.075 1.007,0.218 2.071,0.317 3.572,0.335 5.892,1.919 7.382,5.037 l 0.779,1.631 0.056,31.096 c 0.062,34.369 0.133,32.449 -1.281,34.807 -0.922,1.537 -2.646,3.071 -4.12,3.667 l -1.216,0.491 -17.886,0.106 -17.886,0.106 v 6.138 6.138 l 5.68,0.106 5.68,0.106 0.617,0.691 c 0.463,0.519 0.617,0.902 0.617,1.536 0,0.986 -0.266,1.305 -5.906,7.092 l -11.31,11.69 c -8.574,8.89 -8.611,8.921 -10.195,8.221 z M 87.5,137.155 c 0.032,-0.032 -0.396,-0.23 -0.951,-0.438 -0.555,-0.208 -1.951,-0.913 -3.102,-1.565 -1.945,-1.103 -2.733,-1.725 -5.835,-4.606 l -1.175,-1.092 -15.24,-0.065 c -8.382,-0.036 -15.372,0.017 -15.534,0.117 -0.23,0.142 -0.267,0.567 -0.169,1.949 0.181,2.563 0.903,4.027 2.58,5.23 0.59,0.423 0.958,0.463 5.186,0.561 4.463,0.104 34.124,0.024 34.24,-0.091 z m 60.178,-0.124 c 0.603,-0.162 1.246,-0.595 1.988,-1.336 1.261,-1.261 1.596,-2.215 1.596,-4.55 v -1.469 l -4.036,-0.155 c -2.22,-0.085 -9.05,-0.084 -15.178,0.002 l -11.142,0.158 -1.605,1.414 c -2.631,2.319 -3.878,3.168 -6.896,4.694 l -2.87,1.452 5.676,0.056 c 12.821,0.127 31.578,-0.026 32.467,-0.265 z m -44.148,-2.226 c 5.293,-0.942 9.999,-3.427 14.001,-7.39 4.651,-4.606 7.26,-10.348 7.7,-16.944 0.381,-5.716 -0.675,-10.477 -3.441,-15.518 -2.878,-5.244 -8.689,-9.944 -14.81,-11.98 -2.55,-0.848 -9.459,-1.757 -11.436,-1.505 -9.437,1.204 -18.001,7.373 -21.529,15.507 -1.729,3.986 -2.549,7.64 -2.551,11.367 -0.003,4.89 1.814,10.621 4.783,15.083 3.049,4.582 7.749,8.29 12.931,10.2 1.574,0.58 4.879,1.372 6.626,1.588 1.369,0.169 5.804,-0.065 7.726,-0.407 z m -8.467,-4.976 c -7.022,-1.089 -13.702,-6.359 -16.43,-12.963 -1.266,-3.064 -1.552,-4.589 -1.557,-8.3 -0.005,-3.994 0.402,-5.949 1.905,-9.151 3.278,-6.982 9.214,-11.361 16.929,-12.489 3.953,-0.578 8.167,0.137 12.065,2.047 6.287,3.08 10.803,9.288 11.864,16.312 0.387,2.563 0.384,4.063 -0.016,6.527 -1.365,8.419 -7.342,15.105 -15.659,17.516 -1.554,0.451 -2.45,0.566 -4.868,0.625 -1.63,0.04 -3.535,-0.016 -4.233,-0.124 z m -6.386,-20.32 c 1.104,-0.868 0.933,-2.644 -0.316,-3.29 -0.904,-0.467 -1.623,-0.368 -2.31,0.319 -0.811,0.811 -0.837,1.841 -0.071,2.752 0.674,0.801 1.836,0.895 2.696,0.219 z m 4.155,-5.489 c 1.218,-0.621 1.779,-1.54 1.873,-3.065 0.066,-1.073 -0.001,-1.395 -0.416,-2 -0.763,-1.112 -1.51,-1.56 -2.78,-1.665 -1.302,-0.108 -2.025,0.185 -3.007,1.217 -0.585,0.615 -0.635,0.788 -0.635,2.188 0,1.819 0.505,2.713 1.884,3.34 1.123,0.51 2.061,0.505 3.081,-0.015 z m -43.011,3.541 -0.054,-18.468 -1.993,-0.061 c -1.452,-0.045 -2.04,0.013 -2.166,0.212 -0.206,0.324 -0.244,36.439 -0.039,36.644 0.078,0.078 1.078,0.141 2.224,0.141 h 2.083 z m 30.387,-23.31 c 3.709,-2.783 8.172,-4.781 12.633,-5.657 3.119,-0.612 7.755,-0.653 10.901,-0.096 5.023,0.89 10.153,3.225 14.04,6.392 l 1.147,0.934 14.208,-0.086 14.843,-0.19 c 0.349,-0.057 1.235,-0.117 1.968,-0.132 l 1.333,-0.027 -0.063,-7.144 -0.063,-7.144 -0.572,-0.972 c -0.631,-1.073 -1.471,-1.783 -2.935,-2.482 l -0.966,-0.461 H 98.311 49.94 l -1.284,0.641 c -1.324,0.661 -2.138,1.518 -2.761,2.904 -0.304,0.677 -0.367,1.768 -0.429,7.435 -0.04,3.653 -0.015,6.868 0.054,7.144 l 0.126,0.502 16.241,-10e-4 16.241,-0.001 z m 47.006,-0.763 c -0.246,-0.099 -0.651,-0.44 -0.9,-0.756 -0.431,-0.548 -0.453,-0.796 -0.453,-5.22 v -4.644 l 0.619,-0.619 0.619,-0.619 h 8.076 8.076 l 0.619,0.619 0.619,0.619 v 4.687 c 0,2.81 -0.087,4.85 -0.218,5.094 -0.534,0.999 -0.962,1.047 -9.032,1.033 -4.168,-0.007 -7.779,-0.095 -8.025,-0.194 z M 56.329,81.733 c -1.894,-0.775 -2.928,-2.25 -2.928,-4.176 0,-4.518 5.76,-6.077 8.046,-2.177 1.611,2.748 -0.246,6.362 -3.364,6.547 -0.615,0.036 -1.404,-0.051 -1.754,-0.194 z m 75.729,-18.077 c 0.143,-0.089 0.736,-0.164 1.318,-0.168 l 1.058,-0.007 0.063,-1.199 0.063,-1.199 -1.439,-0.131 c -2.859,-0.26 -3.261,-0.239 -3.577,0.194 -0.373,0.511 -0.397,2.571 -0.031,2.736 0.338,0.152 2.204,-0.014 2.545,-0.226 z m -70.702,-0.21 c 0.087,-0.053 0.159,-0.606 0.159,-1.23 V 61.082 L 59.98,60.953 c -3.044,-0.255 -3.357,-0.239 -3.673,0.194 -0.311,0.425 -0.41,2.254 -0.137,2.532 0.158,0.161 4.885,-0.05 5.186,-0.232 z m 56.658,0.015 c 0.055,-0.055 -0.724,-1.739 -1.731,-3.744 l -2.57,-5.289 -0.74,-1.644 -1.864,-0.036 c -1.025,-0.02 -7.532,-0.042 -14.458,-0.049 l -12.594,-0.013 -2.673,5.398 c -1.47,2.969 -2.646,5.445 -2.613,5.503 0.076,0.134 39.109,0.009 39.243,-0.125 z"
       fill="#3e8ebc"
       id="path3" />
    <path
       d="m 97.603,182.669 c -0.521,-0.23 -10.968,-10.852 -20.213,-20.552 -5.775,-6.058 -5.293,-5.467 -5.293,-6.498 0,-0.769 0.116,-1.049 0.648,-1.559 l 0.648,-0.622 5.649,-0.106 5.649,-0.106 v -6.138 -6.138 l -17.897,-0.106 -17.897,-0.106 -1.613,-0.797 c -1.713,-0.847 -3.222,-2.279 -3.992,-3.789 -1.074,-2.106 -1.04,-0.997 -1.04,-33.725 0,-32.877 -0.041,-31.607 1.081,-33.805 1.45,-2.842 4.936,-4.824 8.483,-4.824 0.444,0 0.817,-0.071 0.829,-0.159 0.012,-0.088 0.053,-0.749 0.091,-1.471 0.038,-0.722 0.229,-1.648 0.424,-2.059 0.478,-1.008 1.796,-2.161 2.783,-2.435 1.063,-0.295 11.131,-0.297 12.192,-0.002 0.941,0.261 2.15,1.264 2.638,2.188 0.191,0.361 0.4,1.361 0.465,2.222 0.145,1.917 0.29,2.037 2.207,1.832 l 1.421,-0.152 3.48,-6.958 c 2.06,-4.119 3.649,-7.048 3.894,-7.179 0.277,-0.148 5.675,-0.221 16.385,-0.221 14.9,0 16.001,0.025 16.416,0.37 0.244,0.204 1.963,3.437 3.82,7.184 l 3.375,6.814 0.786,0.148 c 0.433,0.081 1.225,0.063 1.76,-0.041 l 0.974,-0.188 0.116,-1.486 c 0.153,-1.959 0.805,-3.15 2.196,-4.009 l 1.042,-0.644 h 6.049 c 5.724,0 6.095,0.024 6.896,0.442 a 5.01,5.01 0 0 1 1.466,1.319 c 0.517,0.731 0.64,1.156 0.743,2.559 0.068,0.925 0.185,1.743 0.259,1.818 0.074,0.075 1.007,0.218 2.071,0.317 3.572,0.335 5.892,1.919 7.382,5.037 l 0.779,1.631 0.056,31.096 c 0.062,34.369 0.133,32.449 -1.281,34.807 -0.922,1.537 -2.646,3.071 -4.12,3.667 l -1.216,0.491 -17.886,0.106 -17.886,0.106 v 6.138 6.138 l 5.68,0.106 5.68,0.106 0.617,0.691 c 0.463,0.519 0.617,0.902 0.617,1.536 0,0.986 -0.266,1.305 -5.906,7.092 l -11.31,11.69 c -8.574,8.89 -8.611,8.921 -10.195,8.221 z M 87.5,137.155 c 0.032,-0.032 -0.396,-0.23 -0.951,-0.438 -0.555,-0.208 -1.951,-0.913 -3.102,-1.565 -1.945,-1.103 -2.733,-1.725 -5.835,-4.606 l -1.175,-1.092 -15.24,-0.065 c -8.382,-0.036 -15.372,0.017 -15.534,0.117 -0.23,0.142 -0.267,0.567 -0.169,1.949 0.181,2.563 0.903,4.027 2.58,5.23 0.59,0.423 0.958,0.463 5.186,0.561 4.463,0.104 34.124,0.024 34.24,-0.091 z m 60.178,-0.124 c 0.603,-0.162 1.246,-0.595 1.988,-1.336 1.261,-1.261 1.596,-2.215 1.596,-4.55 v -1.469 l -4.036,-0.155 c -2.22,-0.085 -9.05,-0.084 -15.178,0.002 l -11.142,0.158 -1.605,1.414 c -2.631,2.319 -3.878,3.168 -6.896,4.694 l -2.87,1.452 5.676,0.056 c 12.821,0.127 31.578,-0.026 32.467,-0.265 z m -44.148,-2.226 c 5.293,-0.942 9.999,-3.427 14.001,-7.39 4.651,-4.606 7.26,-10.348 7.7,-16.944 0.381,-5.716 -0.675,-10.477 -3.441,-15.518 -2.878,-5.244 -8.689,-9.944 -14.81,-11.98 -2.55,-0.848 -9.459,-1.757 -11.436,-1.505 -9.437,1.204 -18.001,7.373 -21.529,15.507 -1.729,3.986 -2.549,7.64 -2.551,11.367 -0.003,4.89 1.814,10.621 4.783,15.083 3.049,4.582 7.749,8.29 12.931,10.2 1.574,0.58 4.879,1.372 6.626,1.588 1.369,0.169 5.804,-0.065 7.726,-0.407 z m -8.467,-4.976 c -7.022,-1.089 -13.702,-6.359 -16.43,-12.963 -1.266,-3.064 -1.552,-4.589 -1.557,-8.3 -0.005,-3.994 0.402,-5.949 1.905,-9.151 3.278,-6.982 9.214,-11.361 16.929,-12.489 3.953,-0.578 8.167,0.137 12.065,2.047 6.287,3.08 10.803,9.288 11.864,16.312 0.387,2.563 0.384,4.063 -0.016,6.527 -1.365,8.419 -7.342,15.105 -15.659,17.516 -1.554,0.451 -2.45,0.566 -4.868,0.625 -1.63,0.04 -3.535,-0.016 -4.233,-0.124 z m -6.386,-20.32 c 1.104,-0.868 0.933,-2.644 -0.316,-3.29 -0.904,-0.467 -1.623,-0.368 -2.31,0.319 -0.811,0.811 -0.837,1.841 -0.071,2.752 0.674,0.801 1.836,0.895 2.696,0.219 z m 4.155,-5.489 c 1.218,-0.621 1.779,-1.54 1.873,-3.065 0.066,-1.073 -0.001,-1.395 -0.416,-2 -0.763,-1.112 -1.51,-1.56 -2.78,-1.665 -1.302,-0.108 -2.025,0.185 -3.007,1.217 -0.585,0.615 -0.635,0.788 -0.635,2.188 0,1.819 0.505,2.713 1.884,3.34 1.123,0.51 2.061,0.505 3.081,-0.015 z m -20.163,21.689 c 0.163,-0.053 -0.274,-1.117 -1.215,-2.964 -2.597,-5.096 -3.438,-8.516 -3.46,-14.073 -0.013,-3.348 0.055,-4.233 0.471,-6.105 0.976,-4.392 2.573,-8.17 4.895,-11.576 l 1.033,-1.516 -4.587,-0.144 C 67.283,89.252 61.838,89.179 57.705,89.169 l -9.711,-0.12 c -1.699,-0.079 -2.238,-0.038 -2.378,0.183 -0.181,0.285 -0.272,36.431 -0.092,36.611 0.115,0.115 26.784,-0.015 27.146,-0.132 z M 80.208,84.25 c 3.709,-2.783 8.172,-4.781 12.633,-5.657 3.119,-0.612 7.755,-0.653 10.901,-0.096 5.023,0.89 10.153,3.225 14.04,6.392 l 1.147,0.934 14.208,-0.086 14.843,-0.19 c 0.349,-0.057 1.235,-0.117 1.968,-0.132 l 1.333,-0.027 -0.063,-7.144 -0.063,-7.144 -0.572,-0.972 c -0.631,-1.073 -1.471,-1.783 -2.935,-2.482 l -0.966,-0.461 H 98.311 49.94 l -1.284,0.641 c -1.324,0.661 -2.138,1.518 -2.761,2.904 -0.304,0.677 -0.367,1.768 -0.429,7.435 -0.04,3.653 -0.015,6.868 0.054,7.144 l 0.126,0.502 16.241,-0.001 16.241,-0.001 z m 47.006,-0.763 c -0.246,-0.099 -0.651,-0.44 -0.9,-0.756 -0.431,-0.548 -0.453,-0.796 -0.453,-5.22 v -4.644 l 0.619,-0.619 0.619,-0.619 h 8.076 8.076 l 0.619,0.619 0.619,0.619 v 4.687 c 0,2.81 -0.087,4.85 -0.218,5.094 -0.534,0.999 -0.962,1.047 -9.032,1.033 -4.168,-0.007 -7.779,-0.095 -8.025,-0.194 z M 56.329,81.732 c -1.894,-0.775 -2.928,-2.25 -2.928,-4.176 0,-4.518 5.76,-6.077 8.046,-2.177 1.611,2.748 -0.246,6.362 -3.364,6.547 -0.615,0.036 -1.404,-0.051 -1.754,-0.194 z m 75.729,-18.077 c 0.143,-0.089 0.736,-0.164 1.318,-0.168 l 1.058,-0.007 0.063,-1.199 0.063,-1.199 -1.439,-0.131 c -2.859,-0.26 -3.261,-0.239 -3.577,0.194 -0.373,0.511 -0.397,2.571 -0.031,2.736 0.338,0.152 2.204,-0.014 2.545,-0.226 z m -70.702,-0.21 c 0.087,-0.053 0.159,-0.606 0.159,-1.23 V 61.081 L 59.98,60.952 c -3.044,-0.255 -3.357,-0.239 -3.673,0.194 -0.311,0.425 -0.41,2.254 -0.137,2.532 0.158,0.161 4.885,-0.05 5.186,-0.232 z m 56.658,0.015 c 0.055,-0.055 -0.724,-1.739 -1.731,-3.744 l -2.57,-5.289 -0.74,-1.644 -1.864,-0.036 c -1.025,-0.02 -7.532,-0.042 -14.458,-0.049 l -12.594,-0.013 -2.673,5.398 c -1.47,2.969 -2.646,5.445 -2.613,5.503 0.076,0.134 39.109,0.009 39.243,-0.125 z"
       fill="#d33860"
       id="path4" />
    <path
       d="m 97.603,182.669 c -0.521,-0.23 -10.968,-10.852 -20.213,-20.552 -5.775,-6.058 -5.293,-5.467 -5.293,-6.498 0,-0.769 0.116,-1.049 0.648,-1.559 l 0.648,-0.622 5.649,-0.106 5.649,-0.106 v -6.138 -6.138 l -17.897,-0.106 -17.897,-0.106 -1.613,-0.797 c -1.713,-0.847 -3.222,-2.279 -3.992,-3.789 -1.074,-2.106 -1.04,-0.997 -1.04,-33.725 0,-32.877 -0.041,-31.607 1.081,-33.805 1.45,-2.842 4.936,-4.824 8.483,-4.824 0.444,0 0.817,-0.071 0.829,-0.159 0.012,-0.088 0.053,-0.749 0.091,-1.471 0.038,-0.722 0.229,-1.648 0.424,-2.059 0.478,-1.008 1.796,-2.161 2.783,-2.435 1.063,-0.295 11.131,-0.297 12.192,-0.002 0.941,0.261 2.15,1.264 2.638,2.188 0.191,0.361 0.4,1.361 0.465,2.222 0.145,1.917 0.29,2.037 2.207,1.832 l 1.421,-0.152 3.48,-6.958 c 2.06,-4.119 3.649,-7.048 3.894,-7.179 0.277,-0.148 5.675,-0.221 16.385,-0.221 14.9,0 16.001,0.025 16.416,0.37 0.244,0.204 1.963,3.437 3.82,7.184 l 3.375,6.814 0.786,0.148 c 0.433,0.081 1.225,0.063 1.76,-0.041 l 0.974,-0.188 0.116,-1.486 c 0.153,-1.959 0.805,-3.15 2.196,-4.009 l 1.042,-0.644 h 6.049 c 5.724,0 6.095,0.024 6.896,0.442 a 5.01,5.01 0 0 1 1.466,1.319 c 0.517,0.731 0.64,1.156 0.743,2.559 0.068,0.925 0.185,1.743 0.259,1.818 0.074,0.075 1.007,0.218 2.071,0.317 3.572,0.335 5.892,1.919 7.382,5.037 l 0.779,1.631 0.056,31.096 c 0.062,34.369 0.133,32.449 -1.281,34.807 -0.922,1.537 -2.646,3.071 -4.12,3.667 l -1.216,0.491 -17.886,0.106 -17.886,0.106 v 6.138 6.138 l 5.68,0.106 5.68,0.106 0.617,0.691 c 0.463,0.519 0.617,0.902 0.617,1.536 0,0.986 -0.266,1.305 -5.906,7.092 l -11.31,11.69 c -8.574,8.89 -8.611,8.921 -10.195,8.221 z m 1.918,-4.624 c 0.756,-0.847 4.677,-4.928 15.396,-16.024 2.531,-2.62 4.511,-4.834 4.411,-4.933 -0.1,-0.099 -2.25,-0.238 -4.78,-0.308 -3.76,-0.104 -4.674,-0.189 -5.008,-0.464 -0.365,-0.301 -0.419,-0.707 -0.509,-3.829 l -0.241,-7.342 -0.141,-3.85 -5.206,-0.088 c -9.372,-0.159 -14.932,-0.14 -15.124,0.053 -0.104,0.104 -0.233,3.458 -0.288,7.454 -0.076,5.618 -0.162,7.331 -0.378,7.557 -0.216,0.226 -1.371,0.303 -5.284,0.347 -2.753,0.031 -5.057,0.108 -5.121,0.172 -0.212,0.212 0.498,1.003 5.988,6.674 l 15.274,15.482 c 0.114,0 0.568,-0.405 1.01,-0.9 z M 87.5,137.155 c 0.032,-0.032 -0.396,-0.23 -0.951,-0.438 -0.555,-0.208 -1.951,-0.913 -3.102,-1.565 -1.945,-1.103 -2.733,-1.725 -5.835,-4.606 l -1.175,-1.092 -15.24,-0.065 c -8.382,-0.036 -15.372,0.017 -15.534,0.117 -0.23,0.142 -0.267,0.567 -0.169,1.949 0.181,2.563 0.903,4.027 2.58,5.23 0.59,0.423 0.958,0.463 5.186,0.561 4.463,0.104 34.124,0.024 34.24,-0.091 z m 60.178,-0.124 c 0.603,-0.162 1.246,-0.595 1.988,-1.336 1.261,-1.261 1.596,-2.215 1.596,-4.55 v -1.469 l -4.036,-0.155 c -2.22,-0.085 -9.05,-0.084 -15.178,0.002 l -11.142,0.158 -1.605,1.414 c -2.631,2.319 -3.878,3.168 -6.896,4.694 l -2.87,1.452 5.676,0.056 c 12.821,0.127 31.578,-0.026 32.467,-0.265 z m -44.148,-2.226 c 5.293,-0.942 9.999,-3.427 14.001,-7.39 4.651,-4.606 7.26,-10.348 7.7,-16.944 0.381,-5.716 -0.675,-10.477 -3.441,-15.518 -2.878,-5.244 -8.689,-9.944 -14.81,-11.98 -2.55,-0.848 -9.459,-1.757 -11.436,-1.505 -9.437,1.204 -18.001,7.373 -21.529,15.507 -1.729,3.986 -2.549,7.64 -2.551,11.367 -0.003,4.89 1.814,10.621 4.783,15.083 3.049,4.582 7.749,8.29 12.931,10.2 1.574,0.58 4.879,1.372 6.626,1.588 1.369,0.169 5.804,-0.065 7.726,-0.407 z m -8.467,-4.976 c -7.022,-1.089 -13.702,-6.359 -16.43,-12.963 -1.266,-3.064 -1.552,-4.589 -1.557,-8.3 -0.005,-3.994 0.402,-5.949 1.905,-9.151 3.278,-6.982 9.214,-11.361 16.929,-12.489 3.953,-0.578 8.167,0.137 12.065,2.047 6.287,3.08 10.803,9.288 11.864,16.312 0.387,2.563 0.384,4.063 -0.016,6.527 -1.365,8.419 -7.342,15.105 -15.659,17.516 -1.554,0.451 -2.45,0.566 -4.868,0.625 -1.63,0.04 -3.535,-0.016 -4.233,-0.124 z m -6.386,-20.32 c 1.104,-0.868 0.933,-2.644 -0.316,-3.29 -0.904,-0.467 -1.623,-0.368 -2.31,0.319 -0.811,0.811 -0.837,1.841 -0.071,2.752 0.674,0.801 1.836,0.895 2.696,0.219 z m 4.155,-5.489 c 1.218,-0.621 1.779,-1.54 1.873,-3.065 0.066,-1.073 -0.001,-1.395 -0.416,-2 -0.763,-1.112 -1.51,-1.56 -2.78,-1.665 -1.302,-0.108 -2.025,0.185 -3.007,1.217 -0.585,0.615 -0.635,0.788 -0.635,2.188 0,1.819 0.505,2.713 1.884,3.34 1.123,0.51 2.061,0.505 3.081,-0.015 z m -20.163,21.689 c 0.163,-0.053 -0.274,-1.117 -1.215,-2.964 -2.597,-5.096 -3.438,-8.516 -3.46,-14.073 -0.013,-3.348 0.055,-4.233 0.471,-6.105 0.976,-4.392 2.573,-8.17 4.895,-11.576 l 1.033,-1.516 -4.587,-0.144 C 67.283,89.252 61.838,89.179 57.705,89.169 l -9.711,-0.12 c -1.699,-0.079 -2.238,-0.038 -2.378,0.183 -0.181,0.285 -0.272,36.431 -0.092,36.611 0.115,0.115 26.784,-0.015 27.146,-0.132 z M 80.208,84.25 c 3.709,-2.783 8.172,-4.781 12.633,-5.657 3.119,-0.612 7.755,-0.653 10.901,-0.096 5.023,0.89 10.153,3.225 14.04,6.392 l 1.147,0.934 14.208,-0.086 14.843,-0.19 c 0.349,-0.057 1.235,-0.117 1.968,-0.132 l 1.333,-0.027 -0.063,-7.144 -0.063,-7.144 -0.572,-0.972 c -0.631,-1.073 -1.471,-1.783 -2.935,-2.482 l -0.966,-0.461 H 98.311 49.94 l -1.284,0.641 c -1.324,0.661 -2.138,1.518 -2.761,2.904 -0.304,0.677 -0.367,1.768 -0.429,7.435 -0.04,3.653 -0.015,6.868 0.054,7.144 l 0.126,0.502 16.241,-0.001 16.241,-0.001 z m 47.006,-0.763 c -0.246,-0.099 -0.651,-0.44 -0.9,-0.756 -0.431,-0.548 -0.453,-0.796 -0.453,-5.22 v -4.644 l 0.619,-0.619 0.619,-0.619 h 8.076 8.076 l 0.619,0.619 0.619,0.619 v 4.687 c 0,2.81 -0.087,4.85 -0.218,5.094 -0.534,0.999 -0.962,1.047 -9.032,1.033 -4.168,-0.007 -7.779,-0.095 -8.025,-0.194 z m 13.782,-5.931 v -2.434 l -5.7,-0.056 c -4.419,-0.044 -5.739,0.004 -5.871,0.212 -0.199,0.313 -0.237,3.991 -0.047,4.487 0.115,0.3 0.774,0.332 5.874,0.282 l 5.744,-0.056 z m -84.667,4.176 c -1.894,-0.775 -2.928,-2.25 -2.928,-4.176 0,-4.518 5.76,-6.077 8.046,-2.177 1.611,2.748 -0.246,6.362 -3.364,6.547 -0.615,0.036 -1.404,-0.051 -1.754,-0.194 z m 2.511,-3.04 c 1.312,-1.312 -0.013,-3.41 -1.767,-2.798 -1.173,0.409 -1.462,1.917 -0.542,2.837 0.694,0.694 1.591,0.679 2.309,-0.038 z m 73.218,-15.036 c 0.143,-0.089 0.736,-0.164 1.318,-0.168 l 1.058,-0.007 0.063,-1.199 0.063,-1.199 -1.439,-0.131 c -2.859,-0.26 -3.261,-0.239 -3.577,0.194 -0.373,0.511 -0.397,2.571 -0.031,2.736 0.338,0.152 2.204,-0.014 2.545,-0.226 z m -70.702,-0.21 c 0.087,-0.053 0.159,-0.606 0.159,-1.23 V 61.082 L 59.98,60.953 c -3.044,-0.255 -3.357,-0.239 -3.673,0.194 -0.311,0.425 -0.41,2.254 -0.137,2.532 0.158,0.161 4.885,-0.05 5.186,-0.232 z m 56.658,0.015 c 0.055,-0.055 -0.724,-1.739 -1.731,-3.744 l -2.57,-5.289 -0.74,-1.644 -1.864,-0.036 c -1.025,-0.02 -7.532,-0.042 -14.458,-0.049 l -12.594,-0.013 -2.673,5.398 c -1.47,2.969 -2.646,5.445 -2.613,5.503 0.076,0.134 39.109,0.009 39.243,-0.125 z"
       fill="#705a90"
       id="path5" />
    <path
       d="m 96.29,181.432 c -0.761,-0.728 -4.972,-5.038 -9.359,-9.578 -15.595,-16.14 -15.19,-15.666 -14.612,-17.062 0.485,-1.17 0.908,-1.248 6.817,-1.248 3.891,0 5.435,-0.07 5.62,-0.254 0.185,-0.184 0.254,-1.816 0.254,-6.015 0,-3.169 -0.058,-5.912 -0.128,-6.096 -0.116,-0.301 -1.83,-0.335 -17.198,-0.338 -18.265,-0.003 -18.527,-0.017 -20.59,-1.069 -1.147,-0.585 -2.557,-1.908 -3.329,-3.124 -1.377,-2.17 -1.3,-0.143 -1.3,-34.237 l 0.429,-32.338 c 0.719,-2.329 2.175,-3.962 4.583,-5.141 1.245,-0.61 1.857,-0.77 3.387,-0.886 l 1.867,-0.142 0.115,-1.619 c 0.145,-2.044 0.894,-3.39 2.3,-4.133 0.912,-0.482 1.064,-0.493 6.833,-0.493 6.573,0 6.801,0.039 7.968,1.368 0.895,1.02 1.104,1.577 1.273,3.395 l 0.138,1.482 h 1.796 1.796 l 3.451,-6.879 3.708,-7.137 c 0.197,-0.197 4.032,-0.263 16.428,-0.279 15.377,-0.021 16.19,-0.003 16.547,0.363 0.207,0.212 1.906,3.457 3.775,7.212 l 3.399,6.826 h 1.688 c 1.977,0 2.127,-0.138 2.127,-1.952 0,-1.503 0.676,-2.824 1.87,-3.654 l 0.917,-0.638 5.959,-0.063 c 6.639,-0.07 7.249,0.024 8.308,1.283 0.783,0.931 0.982,1.519 1.128,3.33 l 0.127,1.587 1.827,0.152 c 3.277,0.273 5.458,1.47 6.986,3.833 1.566,2.423 1.465,-0.079 1.403,34.867 l -0.056,31.422 -0.678,1.431 c -1.288,2.718 -3.537,4.48 -6.417,5.026 -0.681,0.129 -7.711,0.211 -18.125,0.211 h -17.013 l 0.056,6.297 0.056,6.297 5.609,0.106 c 3.085,0.058 5.779,0.189 5.987,0.29 0.622,0.303 1.053,1.36 0.896,2.198 -0.11,0.588 -0.793,1.415 -3.253,3.943 l -9.549,9.867 c -12.95,13.417 -12.41,12.912 -13.797,12.912 -0.496,0 -0.95,-0.297 -2.022,-1.323 z m 3.231,-3.387 c 0.773,-0.866 5.997,-6.301 15.494,-16.119 2.536,-2.622 4.42,-4.732 4.317,-4.835 -0.103,-0.103 -2.253,-0.241 -4.782,-0.311 -3.76,-0.104 -4.674,-0.189 -5.008,-0.464 -0.365,-0.301 -0.419,-0.707 -0.509,-3.829 l -0.241,-7.342 -0.141,-3.85 -5.206,-0.088 -15.22,-0.049 c -0.048,0.048 -0.132,3.403 -0.185,7.455 -0.096,7.222 -0.107,7.375 -0.554,7.758 -0.393,0.337 -0.672,0.37 -2.013,0.245 -1.883,-0.176 -8.294,0.087 -8.294,0.34 0,0.363 20.942,21.978 21.301,21.985 0.132,0.003 0.601,-0.4 1.043,-0.895 z M 88.483,137.487 c 0.062,-0.1 -0.528,-0.448 -1.31,-0.774 -3.559,-1.479 -6.602,-3.506 -9.58,-6.382 l -1.172,-1.132 -15.444,0.054 -15.444,0.054 -0.064,1.693 c -0.035,0.931 0.05,2.103 0.189,2.603 0.523,1.879 2.316,3.58 4.075,3.868 1.305,0.213 38.618,0.227 38.75,0.014 z m 59.92,-0.559 c 1.405,-0.702 2.486,-1.93 2.848,-3.233 0.12,-0.434 0.219,-1.563 0.22,-2.51 l 0.001,-1.722 -4.036,-0.155 c -2.22,-0.085 -9.147,-0.084 -15.394,0.002 l -11.358,0.158 -1.486,1.367 c -2.675,2.46 -5.694,4.391 -8.887,5.683 -0.927,0.375 -1.722,0.79 -1.765,0.921 -0.059,0.177 4.963,0.224 19.254,0.182 l 19.334,-0.057 z m -46.567,-1.609 c 2.939,-0.358 5.698,-1.159 8.309,-2.41 3.146,-1.508 5.247,-2.977 7.571,-5.294 8.773,-8.743 10.418,-22.41 4.004,-33.267 -2.954,-5.001 -8.071,-9.172 -13.98,-11.396 -2.438,-0.918 -5.197,-1.384 -8.987,-1.52 -3.79,-0.136 -4.979,0.023 -8.533,1.139 -7.049,2.214 -13.2,7.556 -16.188,14.059 -2.703,5.884 -3.3,11.07 -2.017,17.544 0.439,2.219 0.84,3.384 2,5.821 5.056,10.619 16.177,16.744 27.821,15.324 z m -7.942,-5.892 c -8.135,-1.717 -14.821,-8.604 -16.418,-16.912 -0.432,-2.244 -0.379,-6.299 0.111,-8.514 0.975,-4.411 2.801,-7.704 6.034,-10.887 3.302,-3.252 6.79,-5.058 11.473,-5.941 3.323,-0.627 7.843,-0.152 11.169,1.173 9.469,3.772 15.097,13.788 13.355,23.772 -1.478,8.476 -7.655,15.057 -16.158,17.214 -2.541,0.644 -6.766,0.687 -9.566,0.096 z m 7.22,-3.073 c 5.159,-0.778 9.456,-3.383 12.254,-7.432 1.295,-1.873 2.097,-3.667 2.787,-6.23 0.646,-2.401 0.647,-6.104 0.003,-8.514 -1.508,-5.636 -4.682,-9.58 -9.756,-12.121 -7.02,-3.515 -15.751,-1.808 -21.274,4.158 -2.664,2.877 -4.174,6.311 -4.622,10.512 -0.703,6.579 2.465,13.266 7.951,16.785 2.744,1.76 4.773,2.507 7.898,2.908 2.14,0.275 2.528,0.269 4.76,-0.067 z m -6.139,-2.246 c -3.243,-0.732 -6.01,-2.338 -8.292,-4.814 -2.664,-2.89 -3.921,-5.836 -4.141,-9.705 -0.208,-3.656 0.417,-6.461 2.055,-9.218 4.484,-7.548 13.702,-10.186 21.454,-6.141 2.502,1.306 5.367,4.071 6.522,6.297 2.555,4.921 2.731,10.218 0.49,14.811 -1.718,3.522 -4.131,5.872 -7.841,7.635 -3.299,1.568 -6.672,1.942 -10.248,1.135 z m -6.151,-14.564 c 0.816,-0.816 0.985,-1.583 0.55,-2.495 -0.461,-0.968 -1.571,-1.459 -2.559,-1.133 -1.05,0.347 -1.489,0.952 -1.489,2.053 0,0.803 0.106,1.042 0.691,1.565 0.94,0.84 1.973,0.843 2.807,0.01 z m 4.194,-5.484 c 0.954,-0.438 1.767,-1.72 1.888,-2.978 0.241,-2.513 -2.129,-4.52 -4.571,-3.869 -2.357,0.629 -3.425,3.019 -2.345,5.25 0.926,1.912 2.943,2.552 5.028,1.596 z m -43.252,21.967 c 0.085,-0.137 4.153,-0.212 11.513,-0.212 l 11.501,-0.118 c 0.065,-0.065 -0.537,-1.405 -1.339,-2.977 -0.802,-1.572 -1.742,-3.781 -2.09,-4.909 -1.176,-3.811 -1.342,-4.926 -1.359,-9.141 -0.013,-3.348 0.055,-4.233 0.471,-6.105 0.976,-4.392 2.573,-8.17 4.895,-11.576 l 1.033,-1.516 -4.587,-0.144 c -2.523,-0.079 -7.99,-0.137 -12.149,-0.128 -4.898,0.01 -7.708,-0.062 -7.977,-0.206 -0.444,-0.237 -3.361,-0.307 -3.917,-0.093 -0.302,0.116 -0.335,1.951 -0.335,18.591 l 0.141,18.604 c 0.227,0.227 4.054,0.162 4.198,-0.07 z M 79.502,84.988 c 2.526,-2.059 4.903,-3.427 8.258,-4.753 9.717,-3.841 21.511,-2.046 29.581,4.502 l 1.324,1.074 h 16.285 c 12.796,0 16.321,-0.057 16.456,-0.265 0.094,-0.146 0.138,-3.408 0.097,-7.25 -0.058,-5.49 -0.139,-7.144 -0.38,-7.726 -0.459,-1.107 -1.717,-2.303 -3.144,-2.988 l -1.27,-0.61 H 98.647 c -42.04,0 -48.196,0.039 -49.129,0.316 -1.387,0.412 -2.948,1.79 -3.59,3.168 -0.49,1.052 -0.497,1.162 -0.499,8.193 -0.001,4.56 0.074,7.152 0.209,7.197 0.116,0.039 7.568,0.037 16.559,-0.004 l 16.348,-0.075 z m 47.523,-1.761 c -0.906,-0.52 -0.939,-0.718 -0.946,-5.709 l -0.007,-4.8 0.558,-0.439 c 0.542,-0.426 0.785,-0.439 8.544,-0.439 7.759,0 8.002,0.012 8.544,0.439 l 0.558,0.439 v 4.863 4.863 l -0.52,0.52 -0.52,0.52 -7.894,-0.006 c -5.539,-0.004 -8.02,-0.079 -8.318,-0.249 z m 13.97,-5.671 v -2.434 h -5.821 -5.821 l -0.061,2.208 c -0.033,1.215 -0.012,2.335 0.048,2.49 0.087,0.228 1.225,0.271 5.882,0.226 l 5.773,-0.056 z M 55.842,81.34 c -3.092,-1.531 -3.082,-6.071 0.018,-7.571 2.357,-1.141 4.996,-0.012 5.836,2.497 1.189,3.551 -2.49,6.739 -5.854,5.074 z m 2.997,-2.648 c 1.312,-1.312 -0.013,-3.41 -1.767,-2.798 -1.173,0.409 -1.462,1.917 -0.542,2.837 0.694,0.694 1.591,0.679 2.309,-0.038 z m 4.844,-15.031 3.969,-0.141 0.033,-0.549 c 0.05,-0.834 -0.044,-1.589 -0.22,-1.769 -0.087,-0.089 -1.724,-0.205 -3.637,-0.257 L 58.55,60.719 c -1.372,-0.1 -1.892,-0.061 -2.191,0.164 -0.495,0.372 -0.709,2.03 -0.35,2.701 0.246,0.461 0.339,0.477 1.982,0.351 0.948,-0.073 3.509,-0.196 5.692,-0.273 z m 54.613,-0.048 c 0.089,-0.088 -1.054,-2.583 -2.541,-5.544 l -2.704,-5.384 -14.557,-0.054 -14.557,-0.054 -2.668,5.384 c -1.467,2.961 -2.619,5.51 -2.56,5.664 0.088,0.229 3.628,0.268 19.766,0.214 z m 18.623,0.048 3.969,-0.139 v -0.88 c 0,-1.614 -0.179,-1.699 -3.634,-1.721 -1.668,-0.011 -3.905,-0.091 -4.971,-0.18 -2.245,-0.186 -2.671,-0.095 -3.005,0.636 -0.273,0.599 -0.329,2.261 -0.085,2.514 0.087,0.091 0.968,0.107 1.958,0.036 0.99,-0.071 3.585,-0.191 5.768,-0.268 z"
       fill="#37699f"
       id="path6"
       style="display:inline" />
    <path
       d="m 96.29,181.432 c -0.761,-0.728 -4.972,-5.038 -9.359,-9.578 -15.595,-16.14 -15.19,-15.666 -14.612,-17.062 0.485,-1.17 0.908,-1.248 6.817,-1.248 3.891,0 5.435,-0.07 5.62,-0.254 0.185,-0.184 0.254,-1.816 0.254,-6.015 0,-3.169 -0.058,-5.912 -0.128,-6.096 -0.116,-0.301 -1.83,-0.335 -17.198,-0.338 -18.265,-0.003 -18.527,-0.017 -20.59,-1.069 -1.147,-0.585 -2.557,-1.908 -3.329,-3.124 -1.377,-2.17 -1.3,-0.143 -1.3,-34.237 l 0.429,-32.338 c 0.719,-2.329 2.175,-3.962 4.583,-5.141 1.245,-0.61 1.857,-0.77 3.387,-0.886 l 1.867,-0.142 0.115,-1.619 c 0.145,-2.044 0.894,-3.39 2.3,-4.133 0.912,-0.482 1.064,-0.493 6.833,-0.493 6.573,0 6.801,0.039 7.968,1.368 0.895,1.02 1.104,1.577 1.273,3.395 l 0.138,1.482 h 1.796 1.796 l 3.451,-6.879 3.708,-7.137 c 0.197,-0.197 4.032,-0.263 16.428,-0.279 15.377,-0.021 16.19,-0.003 16.547,0.363 0.207,0.212 1.906,3.457 3.775,7.212 l 3.399,6.826 h 1.688 c 1.977,0 2.127,-0.138 2.127,-1.952 0,-1.503 0.676,-2.824 1.87,-3.654 l 0.917,-0.638 5.959,-0.063 c 6.639,-0.07 7.249,0.024 8.308,1.283 0.783,0.931 0.982,1.519 1.128,3.33 l 0.127,1.587 1.827,0.152 c 3.277,0.273 5.458,1.47 6.986,3.833 1.566,2.423 1.465,-0.079 1.403,34.867 l -0.056,31.422 -0.678,1.431 c -1.288,2.718 -3.537,4.48 -6.417,5.026 -0.681,0.129 -7.711,0.211 -18.125,0.211 h -17.013 l 0.056,6.297 0.056,6.297 5.609,0.106 c 3.085,0.058 5.779,0.189 5.987,0.29 0.622,0.303 1.053,1.36 0.896,2.198 -0.11,0.588 -0.793,1.415 -3.253,3.943 l -9.549,9.867 c -12.95,13.417 -12.41,12.912 -13.797,12.912 -0.496,0 -0.95,-0.297 -2.022,-1.323 z m 3.231,-3.387 c 0.773,-0.866 5.997,-6.301 15.494,-16.119 2.536,-2.622 4.42,-4.732 4.317,-4.835 -0.103,-0.103 -2.253,-0.241 -4.782,-0.311 -3.76,-0.104 -4.674,-0.189 -5.008,-0.464 -0.365,-0.301 -0.419,-0.707 -0.509,-3.829 l -0.241,-7.342 -0.141,-3.85 -5.206,-0.088 -15.22,-0.049 c -0.048,0.048 -0.132,3.403 -0.185,7.455 -0.096,7.222 -0.107,7.375 -0.554,7.758 -0.393,0.337 -0.672,0.37 -2.013,0.245 -1.883,-0.176 -8.294,0.087 -8.294,0.34 0,0.363 20.942,21.978 21.301,21.985 0.132,0.003 0.601,-0.4 1.043,-0.895 z M 88.483,137.487 c 0.062,-0.1 -0.528,-0.448 -1.31,-0.774 -3.559,-1.479 -6.602,-3.506 -9.58,-6.382 l -1.172,-1.132 -15.444,0.054 -15.444,0.054 -0.064,1.693 c -0.035,0.931 0.05,2.103 0.189,2.603 0.523,1.879 2.316,3.58 4.075,3.868 1.305,0.213 38.618,0.227 38.75,0.014 z m 59.92,-0.559 c 1.405,-0.702 2.486,-1.93 2.848,-3.233 0.12,-0.434 0.219,-1.563 0.22,-2.51 l 0.001,-1.722 -4.036,-0.155 c -2.22,-0.085 -9.147,-0.084 -15.394,0.002 l -11.358,0.158 -1.486,1.367 c -2.675,2.46 -5.694,4.391 -8.887,5.683 -0.927,0.375 -1.722,0.79 -1.765,0.921 -0.059,0.177 4.963,0.224 19.254,0.182 l 19.334,-0.057 z m -46.567,-1.609 c 2.939,-0.358 5.698,-1.159 8.309,-2.41 3.146,-1.508 5.247,-2.977 7.571,-5.294 8.773,-8.743 10.418,-22.41 4.004,-33.267 -2.954,-5.001 -8.071,-9.172 -13.98,-11.396 -2.438,-0.918 -5.197,-1.384 -8.987,-1.52 -3.79,-0.136 -4.979,0.023 -8.533,1.139 -7.049,2.214 -13.2,7.556 -16.188,14.059 -2.703,5.884 -3.3,11.07 -2.017,17.544 0.439,2.219 0.84,3.384 2,5.821 5.056,10.619 16.177,16.744 27.821,15.324 z m -7.942,-5.892 c -8.135,-1.717 -14.821,-8.604 -16.418,-16.912 -0.432,-2.244 -0.379,-6.299 0.111,-8.514 0.975,-4.411 2.801,-7.704 6.034,-10.887 3.302,-3.252 6.79,-5.058 11.473,-5.941 3.323,-0.627 7.843,-0.152 11.169,1.173 9.469,3.772 15.097,13.788 13.355,23.772 -1.478,8.476 -7.655,15.057 -16.158,17.214 -2.541,0.644 -6.766,0.687 -9.566,0.096 z m 7.22,-3.073 c 5.159,-0.778 9.456,-3.383 12.254,-7.432 1.295,-1.873 2.097,-3.667 2.787,-6.23 0.646,-2.401 0.647,-6.104 0.003,-8.514 -1.508,-5.636 -4.682,-9.58 -9.756,-12.121 -7.02,-3.515 -15.751,-1.808 -21.274,4.158 -2.664,2.877 -4.174,6.311 -4.622,10.512 -0.703,6.579 2.465,13.266 7.951,16.785 2.744,1.76 4.773,2.507 7.898,2.908 2.14,0.275 2.528,0.269 4.76,-0.067 z m -6.139,-2.246 c -3.243,-0.732 -6.01,-2.338 -8.292,-4.814 -2.664,-2.89 -3.921,-5.836 -4.141,-9.705 -0.208,-3.656 0.417,-6.461 2.055,-9.218 4.484,-7.548 13.702,-10.186 21.454,-6.141 2.502,1.306 5.367,4.071 6.522,6.297 2.555,4.921 2.731,10.218 0.49,14.811 -1.718,3.522 -4.131,5.872 -7.841,7.635 -3.299,1.568 -6.672,1.942 -10.248,1.135 z m -6.151,-14.564 c 0.816,-0.816 0.985,-1.583 0.55,-2.495 -0.461,-0.968 -1.571,-1.459 -2.559,-1.133 -1.05,0.347 -1.489,0.952 -1.489,2.053 0,0.803 0.106,1.042 0.691,1.565 0.94,0.84 1.973,0.843 2.807,0.01 z m 4.194,-5.484 c 0.954,-0.438 1.767,-1.72 1.888,-2.978 0.241,-2.513 -2.129,-4.52 -4.571,-3.869 -2.357,0.629 -3.425,3.019 -2.345,5.25 0.926,1.912 2.943,2.552 5.028,1.596 z M 62.52,126.029 c 5.966,0 10.848,-0.08 10.848,-0.176 0,-0.096 -0.425,-0.921 -0.943,-1.831 -3.22,-5.65 -4.603,-11.598 -4.134,-17.784 0.418,-5.514 2.38,-11.029 5.444,-15.299 0.804,-1.12 1.066,-1.639 0.885,-1.751 -0.261,-0.161 -28.442,-0.395 -28.927,-0.24 -0.209,0.067 -0.265,3.964 -0.265,18.548 l 0.159,18.63 c 0.087,0.092 1.492,0.108 3.122,0.036 1.63,-0.072 7.845,-0.132 13.811,-0.132 z m 84.385,-0.129 c 0.302,-0.116 0.335,-1.927 0.335,-18.316 l -0.265,-18.289 c -0.146,-0.056 -5.726,-0.076 -12.402,-0.046 l -12.137,0.055 0.813,1.125 2.863,3.916 c 4.975,6.771 7.057,11.342 8.126,17.836 0.486,2.954 0.542,3.787 0.451,6.756 -0.073,2.374 -0.228,3.874 -0.518,5.016 -0.29,1.142 -0.348,1.697 -0.192,1.852 0.239,0.239 12.318,0.327 12.926,0.094 z M 79.503,84.989 c 2.526,-2.059 4.903,-3.427 8.258,-4.753 9.717,-3.841 21.511,-2.046 29.581,4.502 l 1.324,1.074 h 16.285 c 12.796,0 16.321,-0.057 16.456,-0.265 0.094,-0.146 0.138,-3.408 0.097,-7.25 -0.058,-5.49 -0.139,-7.144 -0.38,-7.726 -0.459,-1.107 -1.717,-2.303 -3.144,-2.988 l -1.27,-0.61 H 98.647 c -42.04,0 -48.196,0.039 -49.129,0.316 -1.387,0.412 -2.948,1.79 -3.59,3.168 -0.49,1.052 -0.497,1.162 -0.499,8.193 -0.001,4.56 0.074,7.152 0.209,7.197 0.116,0.039 7.568,0.037 16.559,-0.004 l 16.348,-0.075 z m 47.523,-1.761 c -0.906,-0.52 -0.939,-0.718 -0.946,-5.709 l -0.007,-4.8 0.558,-0.439 c 0.542,-0.426 0.785,-0.439 8.544,-0.439 7.759,0 8.002,0.012 8.544,0.439 l 0.558,0.439 v 4.863 4.863 l -0.52,0.52 -0.52,0.52 -7.894,-0.006 c -5.539,-0.004 -8.02,-0.079 -8.318,-0.249 z m 13.97,-5.671 v -2.434 h -5.821 -5.821 l -0.061,2.208 c -0.033,1.215 -0.012,2.335 0.048,2.49 0.087,0.228 1.225,0.271 5.882,0.226 l 5.773,-0.056 z M 55.842,81.34 c -3.092,-1.531 -3.082,-6.071 0.018,-7.571 2.357,-1.141 4.996,-0.012 5.836,2.497 1.189,3.551 -2.49,6.739 -5.854,5.074 z m 2.997,-2.648 c 1.312,-1.312 -0.013,-3.41 -1.767,-2.798 -1.173,0.409 -1.462,1.917 -0.542,2.837 0.694,0.694 1.591,0.679 2.309,-0.038 z m 4.844,-15.031 3.969,-0.141 0.033,-0.549 c 0.05,-0.834 -0.044,-1.589 -0.22,-1.769 -0.087,-0.089 -1.724,-0.205 -3.637,-0.257 L 58.55,60.719 c -1.372,-0.1 -1.892,-0.061 -2.191,0.164 -0.495,0.372 -0.709,2.03 -0.35,2.701 0.246,0.461 0.339,0.477 1.982,0.351 0.948,-0.073 3.509,-0.196 5.692,-0.273 z m 54.613,-0.048 c 0.089,-0.088 -1.054,-2.583 -2.541,-5.544 l -2.704,-5.384 -14.557,-0.054 -14.557,-0.054 -2.668,5.384 c -1.467,2.961 -2.619,5.51 -2.56,5.664 0.088,0.229 3.628,0.268 19.766,0.214 z m 18.623,0.048 3.969,-0.139 v -0.88 c 0,-1.614 -0.179,-1.699 -3.634,-1.721 -1.668,-0.011 -3.905,-0.091 -4.971,-0.18 -2.245,-0.186 -2.671,-0.095 -3.005,0.636 -0.273,0.599 -0.329,2.261 -0.085,2.514 0.087,0.091 0.968,0.107 1.958,0.036 0.99,-0.071 3.585,-0.191 5.768,-0.268 z"
       fill="#322e63"
       id="path7"
       style="display:inline" />
    <path
       d="m 94.966,179.845 -15.148,-15.609 -5.76,-6.045 c -1.63,-1.705 -1.995,-2.519 -1.524,-3.403 0.535,-1.004 0.622,-1.017 6.589,-1.025 l 5.783,-0.223 c 0.19,-0.307 0.211,-12.349 0.023,-12.654 -0.119,-0.193 -4.236,-0.253 -17.278,-0.253 -11.718,0 -17.476,-0.074 -18.244,-0.235 -2.554,-0.534 -4.937,-2.435 -6.075,-4.845 l -0.55,-1.164 -0.106,-13.653 V 88.775 L 42.782,70.466 43.47,69.06 c 1.403,-2.868 4.032,-4.578 7.356,-4.785 0.931,-0.058 1.812,-0.2 1.958,-0.317 0.16,-0.128 0.265,-0.728 0.265,-1.52 0,-1.739 0.703,-3.183 1.941,-3.986 l 0.896,-0.581 h 5.997 c 6.618,0 6.936,0.051 7.972,1.282 0.822,0.977 1.018,1.545 1.165,3.374 l 0.127,1.587 1.779,0.062 c 1.061,0.037 1.873,-0.029 2.011,-0.164 0.127,-0.124 1.803,-3.338 3.724,-7.143 3.058,-6.056 3.563,-6.935 4.063,-7.064 0.314,-0.081 7.505,-0.157 15.981,-0.168 11.904,-0.016 15.527,0.04 15.923,0.243 0.377,0.193 1.443,2.115 4.022,7.248 l 3.509,6.985 h 1.905 1.905 l 0.164,-1.66 c 0.242,-2.444 0.921,-3.584 2.535,-4.259 0.638,-0.266 1.847,-0.326 6.663,-0.326 6.663,0 6.827,0.034 7.972,1.649 0.515,0.727 0.629,1.128 0.714,2.518 0.056,0.909 0.185,1.759 0.288,1.888 0.103,0.129 0.972,0.286 1.932,0.348 3.891,0.253 6.47,2.108 7.773,5.592 0.421,1.124 0.427,1.584 0.43,32.458 l -0.401,32.467 c -0.815,2.32 -2.674,4.33 -4.834,5.227 l -1.223,0.508 -17.886,0.106 -17.886,0.106 -0.056,6.336 c -0.044,4.928 0.003,6.373 0.212,6.506 0.147,0.094 2.744,0.174 5.771,0.18 3.988,0.007 5.596,0.081 5.839,0.268 0.569,0.437 0.878,1.227 0.743,1.901 -0.153,0.764 -0.388,1.027 -7.327,8.199 l -11.434,11.816 -6.372,6.403 c -0.201,0.108 -0.725,0.196 -1.164,0.196 -0.743,0 -0.983,-0.188 -3.454,-2.699 z m 12.922,-9.948 10.846,-11.203 c 0.917,-0.952 1.605,-1.833 1.528,-1.958 -0.094,-0.151 -1.781,-0.227 -5.055,-0.227 -3.948,0 -5.001,-0.06 -5.352,-0.307 -0.423,-0.296 -0.443,-0.554 -0.589,-7.673 -0.083,-4.051 -0.217,-7.429 -0.297,-7.505 -0.217,-0.205 -20.425,-0.443 -20.711,-0.244 -0.173,0.12 -0.287,2.385 -0.388,7.685 -0.126,6.594 -0.186,7.547 -0.489,7.783 -0.252,0.196 -0.839,0.232 -2.166,0.131 -2.435,-0.184 -8.459,0.102 -8.459,0.402 0,0.125 0.783,1.044 1.74,2.041 l 13.365,13.833 6.691,6.713 c 0.088,0 4.29,-4.262 9.338,-9.472 z M 89.334,137.695 c 0.165,-0.268 -0.23,-0.521 -1.679,-1.077 -3.271,-1.254 -6.897,-3.567 -9.783,-6.238 l -1.501,-1.39 -15.525,0.054 -15.525,0.054 -0.062,1.767 c -0.039,1.123 0.054,2.167 0.257,2.863 0.516,1.776 2.313,3.548 4.008,3.952 0.956,0.228 39.668,0.242 39.809,0.014 z m 59.232,-0.518 c 1.39,-0.683 2.552,-2.025 2.942,-3.4 0.288,-1.014 0.364,-4.242 0.106,-4.502 -0.097,-0.098 -7.119,-0.178 -15.604,-0.178 h -15.427 l -1.224,1.19 c -2.751,2.674 -5.957,4.723 -9.744,6.226 -1.883,0.748 -2.129,0.915 -1.814,1.23 0.079,0.079 9.009,0.119 19.844,0.088 l 19.699,-0.056 z m -44.295,-1.94 c 2.21,-0.492 3.814,-1.049 6.037,-2.097 2.841,-1.339 4.825,-2.73 7.266,-5.095 3.857,-3.735 6.374,-8.153 7.665,-13.446 0.65,-2.666 0.729,-8.858 0.147,-11.549 -1.007,-4.661 -3.257,-9.291 -6.061,-12.475 -1.339,-1.52 -3.803,-3.644 -5.609,-4.833 -5.163,-3.4 -9.952,-4.712 -16.537,-4.528 -3.114,0.087 -3.592,0.155 -5.943,0.849 -4.86,1.436 -8.759,3.723 -12.154,7.129 -3.938,3.951 -6.555,9.029 -7.53,14.612 -0.501,2.87 -0.311,8.141 0.406,11.221 1.14,4.901 3.806,9.419 7.824,13.26 3.951,3.777 8.1,5.938 13.588,7.075 2.414,0.5 8.4,0.432 10.901,-0.124 z m -10.395,-6.024 c -3.616,-0.763 -7.325,-2.794 -10.102,-5.531 -2.729,-2.69 -4.181,-5.018 -5.467,-8.765 l -0.799,-2.328 v -3.916 c 0,-4.3 0.212,-5.478 1.567,-8.733 1.992,-4.786 6.646,-9.385 11.32,-11.187 4.082,-1.574 7.496,-1.98 11.44,-1.359 6.78,1.067 12.492,5.276 15.666,11.542 1.964,3.878 2.673,8.788 1.905,13.193 -0.412,2.364 -0.762,3.396 -2.021,5.963 -2.68,5.463 -7.705,9.452 -13.883,11.019 -2.59,0.657 -6.784,0.702 -9.625,0.102 z m 9.231,-2.841 c 3.187,-0.868 6.026,-2.455 8.322,-4.652 2.201,-2.107 3.689,-4.566 4.82,-7.967 0.561,-1.688 0.599,-2.021 0.603,-5.397 0.005,-3.404 -0.027,-3.689 -0.588,-5.286 -2.255,-6.423 -6.654,-10.726 -12.776,-12.5 -3.782,-1.096 -7.723,-0.908 -11.492,0.548 -2.672,1.032 -4.189,2.055 -6.57,4.432 -1.766,1.762 -2.409,2.574 -3.1,3.917 -3.35,6.499 -2.984,13.729 0.992,19.579 2.492,3.666 6.764,6.476 11.427,7.514 1.805,0.402 6.591,0.295 8.361,-0.187 z m -8.032,-2.598 a 15.75,15.75 0 0 1 -9.346,-6.126 c -2.032,-2.847 -2.857,-5.564 -2.851,-9.379 0.008,-4.379 1.4,-7.756 4.46,-10.816 2.101,-2.101 3.806,-3.158 6.481,-4.017 3.945,-1.267 8.042,-0.972 11.624,0.837 4.004,2.022 6.501,4.931 8.091,9.424 0.706,1.995 0.884,5.63 0.394,8.053 -0.676,3.339 -3.107,7.183 -5.823,9.207 -3.636,2.71 -8.56,3.774 -13.03,2.816 z m -6.141,-14.116 c 0.906,-0.906 1.101,-1.667 0.663,-2.586 -0.727,-1.524 -2.593,-1.934 -3.752,-0.824 -0.804,0.771 -0.984,1.73 -0.51,2.729 0.725,1.528 2.43,1.851 3.599,0.681 z m 4.007,-5.309 c 0.397,-0.166 1.008,-0.697 1.359,-1.182 2.446,-3.376 -1.172,-7.691 -4.866,-5.805 -2.706,1.382 -2.713,5.433 -0.012,6.86 0.927,0.49 2.515,0.547 3.52,0.127 z M 73.662,126.02 c 0.108,-0.103 -0.086,-0.612 -0.458,-1.197 -1.73,-2.722 -3.143,-6.081 -4.03,-9.581 -0.522,-2.059 -0.566,-2.568 -0.567,-6.571 -0.001,-4.472 0.09,-5.219 1.047,-8.575 0.983,-3.446 2.755,-7.058 4.797,-9.774 0.366,-0.487 0.612,-1.026 0.546,-1.198 C 74.893,88.854 72.93,88.801 60.523,88.733 52.628,88.69 45.954,88.726 45.692,88.815 l -0.476,0.161 v 18.484 l 0.206,18.69 c 0.257,0.257 27.967,0.13 28.24,-0.13 z m 77.613,0.001 c 0.4,-0.214 0.409,-0.643 0.409,-18.508 l -0.265,-18.458 c -0.146,-0.093 -6.764,-0.204 -14.709,-0.247 -16.269,-0.087 -15.324,-0.188 -13.971,1.495 2.844,3.536 4.436,7.135 5.599,12.654 0.58,2.752 0.523,8.23 -0.118,11.43 -0.719,3.588 -2.181,7.299 -3.989,10.132 -0.399,0.625 -0.675,1.268 -0.613,1.429 0.094,0.245 2.324,0.293 13.68,0.293 8.947,0 13.707,-0.075 13.977,-0.219 z M 80.336,84.577 c 10.268,-7.711 23.998,-8.225 34.624,-1.296 0.931,0.607 2.135,1.473 2.675,1.923 l 0.982,0.819 h 16.402 c 13.947,0 16.439,-0.045 16.652,-0.302 0.185,-0.223 0.233,-2.149 0.185,-7.355 -0.064,-6.873 -0.078,-7.079 -0.555,-8.045 -0.586,-1.19 -1.854,-2.383 -3.19,-3.001 l -0.978,-0.452 H 98.556 l -49.373,0.281 c -1.297,0.459 -3.029,2.201 -3.536,3.555 -0.414,1.107 -0.434,1.537 -0.381,8.191 l 0.056,7.022 1.376,0.106 c 0.757,0.058 8.208,0.077 16.559,0.041 L 78.44,86 Z m 46.506,-1.744 -0.558,-0.439 v -4.747 c 0,-4.465 0.025,-4.772 0.423,-5.17 0.408,-0.408 0.706,-0.423 8.42,-0.423 6.895,0 8.061,0.045 8.467,0.33 0.463,0.324 0.47,0.407 0.47,5.186 0,4.574 -0.025,4.881 -0.423,5.28 -0.408,0.408 -0.706,0.423 -8.332,0.423 -7.681,0 -7.925,-0.013 -8.467,-0.439 z m 14.365,-5.276 v -2.646 h -6.032 -6.032 l -0.06,2.538 c -0.047,1.967 0.006,2.586 0.232,2.752 0.189,0.138 2.347,0.177 6.093,0.108 l 5.8,-0.106 z m -85.09,3.722 c -1.314,-0.587 -2.434,-2.325 -2.434,-3.779 0,-1.018 0.924,-2.714 1.802,-3.308 0.787,-0.532 2.422,-0.811 3.368,-0.573 0.766,0.192 1.978,1.321 2.485,2.315 0.906,1.775 0.072,4.303 -1.721,5.218 -0.969,0.494 -2.55,0.552 -3.501,0.128 z m 2.874,-2.435 c 1.434,-1.434 0.024,-3.891 -1.829,-3.186 -1.039,0.395 -1.362,0.824 -1.362,1.808 0,0.746 0.112,0.995 0.651,1.449 0.882,0.742 1.751,0.718 2.54,-0.071 z m 8.927,-14.977 c 0.087,-0.051 0.159,-0.644 0.159,-1.317 0,-1.924 0.141,-1.876 -6.036,-2.042 -5.083,-0.137 -5.31,-0.126 -5.811,0.28 -0.463,0.375 -0.518,0.571 -0.485,1.752 0.023,0.814 0.143,1.401 0.31,1.514 0.265,0.179 11.54,0.001 11.862,-0.187 z m 50.271,0.224 c 0.262,-0.071 0.475,-0.284 0.472,-0.475 -0.003,-0.191 -1.223,-2.775 -2.714,-5.743 l -2.71,-5.398 H 98.541 83.845 l -1.504,2.963 c -2.554,5.033 -3.95,8.12 -3.822,8.453 0.108,0.281 2.446,0.32 19.658,0.323 l 20.011,-0.125 z m 22.963,-0.371 c 0.226,-0.345 0.197,-2 -0.044,-2.449 a 1.36,1.36 0 0 0 -0.582,-0.537 c -0.469,-0.19 -9.934,-0.383 -10.603,-0.216 -0.872,0.218 -1.415,2.294 -0.867,3.318 0.227,0.423 0.333,0.428 6.085,0.276 3.934,-0.104 5.906,-0.232 6.01,-0.392 z"
       fill="#0b0724"
       id="path8"
       style="display:inline" />
  </g>
</svg>
