<?xml version="1.0" encoding="UTF-8" standalone="no"?>
<!-- Created with Inkscape (http://www.inkscape.org/) -->

<svg
   width="30.299999mm"
   height="27.299999mm"
   viewBox="0 0 30.299999 27.299999"
   version="1.1"
   id="svg1"
   xml:space="preserve"
   inkscape:version="1.4.2 (f4327f4, 2025-05-13)"
   sodipodi:docname="Cam17.svg"
   xmlns:inkscape="http://www.inkscape.org/namespaces/inkscape"
   xmlns:sodipodi="http://sodipodi.sourceforge.net/DTD/sodipodi-0.dtd"
   xmlns:xlink="http://www.w3.org/1999/xlink"
   xmlns="http://www.w3.org/2000/svg"
   xmlns:svg="http://www.w3.org/2000/svg"><sodipodi:namedview
     id="namedview1"
     pagecolor="#ffffff"
     bordercolor="#000000"
     borderopacity="0.25"
     inkscape:showpageshadow="2"
     inkscape:pageopacity="0.0"
     inkscape:pagecheckerboard="0"
     inkscape:deskcolor="#d1d1d1"
     inkscape:document-units="mm"
     showguides="false"
     inkscape:zoom="3.0324635"
     inkscape:cx="104.53547"
     inkscape:cy="84.25493"
     inkscape:window-width="1920"
     inkscape:window-height="1111"
     inkscape:window-x="-9"
     inkscape:window-y="-9"
     inkscape:window-maximized="1"
     inkscape:current-layer="layer1" /><defs
     id="defs1"><linearGradient
       id="paint0_linear_103_1788"
       x1="16"
       y1="0"
       x2="16"
       y2="29.0909"
       gradientUnits="userSpaceOnUse"><stop
         stop-color="#FFC300"
         id="stop5" /><stop
         offset="1"
         stop-color="#FFBB00"
         id="stop6" /></linearGradient><linearGradient
       id="paint1_linear_103_1788"
       x1="16"
       y1="0"
       x2="16"
       y2="29.0909"
       gradientUnits="userSpaceOnUse"><stop
         stop-color="#FFE500"
         id="stop7" /><stop
         offset="1"
         stop-color="#FFBB00"
         id="stop8" /></linearGradient><linearGradient
       inkscape:collect="always"
       xlink:href="#paint1_linear_103_1788"
       id="linearGradient1"
       gradientUnits="userSpaceOnUse"
       x1="16"
       y1="0"
       x2="16"
       y2="29.0909" /><linearGradient
       inkscape:collect="always"
       xlink:href="#paint1_linear_103_1788"
       id="linearGradient2"
       gradientUnits="userSpaceOnUse"
       x1="16"
       y1="0"
       x2="16"
       y2="29.0909" /></defs><g
     inkscape:label="Layer 1"
     inkscape:groupmode="layer"
     id="layer1"><g
       style="fill:none"
       id="g1"
       transform="scale(0.9375)"><path
         d="M 10.1818,0 H 7.27273 C 6.4694,0 5.81818,0.651222 5.81818,1.45455 v 2.90909 c 0,0.80332 0.65122,1.45454 1.45455,1.45454 h 2.90907 c 0.8033,0 1.4546,-0.65122 1.4546,-1.45454 V 1.45455 C 11.6364,0.651222 10.9851,0 10.1818,0 Z"
         fill="url(#paint0_linear_103_1788)"
         id="path1"
         style="fill:url(#paint0_linear_103_1788)" /><path
         d="M 26.1818,2.90909 H 5.81818 C 2.60489,2.90909 0,5.51398 0,8.72727 V 23.2727 c 0,3.2133 2.60489,5.8182 5.81818,5.8182 H 26.1818 C 29.3951,29.0909 32,26.486 32,23.2727 V 8.72727 C 32,5.51398 29.3951,2.90909 26.1818,2.90909 Z"
         fill="url(#paint1_linear_103_1788)"
         id="path2"
         style="fill:url(#linearGradient1)" /><path
         d="m 16,23.2727 c 4.0166,0 7.2727,-3.2561 7.2727,-7.2727 0,-4.0166 -3.2561,-7.27273 -7.2727,-7.27273 -4.0166,0 -7.27273,3.25613 -7.27273,7.27273 0,4.0166 3.25613,7.2727 7.27273,7.2727 z"
         fill="#ffffff"
         id="path3" /><path
         d="m 16,20.3636 c 2.41,0 4.3636,-1.9536 4.3636,-4.3636 0,-2.41 -1.9536,-4.3636 -4.3636,-4.3636 -2.41,0 -4.3636,1.9536 -4.3636,4.3636 0,2.41 1.9536,4.3636 4.3636,4.3636 z"
         fill="url(#paint2_linear_103_1788)"
         id="path4"
         style="fill:url(#linearGradient2)" /><path
         d="m 16,16 c 0.8033,0 1.4545,-0.6512 1.4545,-1.4545 0,-0.8034 -0.6512,-1.4546 -1.4545,-1.4546 -0.8033,0 -1.4545,0.6512 -1.4545,1.4546 C 14.5455,15.3488 15.1967,16 16,16 Z"
         fill="#ffffff"
         id="path5" /></g></g></svg>
