<?xml version="1.0" encoding="UTF-8" standalone="no"?>
<!-- Created with Inkscape (http://www.inkscape.org/) -->

<svg
   width="30.1mm"
   height="22.75mm"
   viewBox="0 0 30.1 22.75"
   version="1.1"
   id="svg1"
   xml:space="preserve"
   inkscape:version="1.4.2 (f4327f4, 2025-05-13)"
   sodipodi:docname="Cam10.svg"
   xmlns:inkscape="http://www.inkscape.org/namespaces/inkscape"
   xmlns:sodipodi="http://sodipodi.sourceforge.net/DTD/sodipodi-0.dtd"
   xmlns="http://www.w3.org/2000/svg"
   xmlns:svg="http://www.w3.org/2000/svg"><sodipodi:namedview
     id="namedview1"
     pagecolor="#ffffff"
     bordercolor="#000000"
     borderopacity="0.25"
     inkscape:showpageshadow="2"
     inkscape:pageopacity="0.0"
     inkscape:pagecheckerboard="0"
     inkscape:deskcolor="#d1d1d1"
     inkscape:document-units="mm"
     inkscape:zoom="4.288551"
     inkscape:cx="85.343511"
     inkscape:cy="43.021524"
     inkscape:window-width="1920"
     inkscape:window-height="1111"
     inkscape:window-x="-9"
     inkscape:window-y="-9"
     inkscape:window-maximized="1"
     inkscape:current-layer="layer1" /><defs
     id="defs1" /><g
     inkscape:label="Layer 1"
     inkscape:groupmode="layer"
     id="layer1"><g
       id="g1"
       transform="matrix(0.03348214,0,0,0.03348214,-2.142857,-5.7689727)"><path
         d="M 910.3,851.7 H 173.6 c -27.4,0 -49.7,-22.3 -49.7,-49.7 V 305.5 c 0,-27.4 22.3,-49.7 49.7,-49.7 h 736.7 c 27.4,0 49.7,22.3 49.7,49.7 V 802 c 0,27.4 -22.3,49.7 -49.7,49.7 z"
         fill="#a7b8c6"
         id="path1" /><path
         d="m 913.7,235.6 c 0,-27.4 -22.3,-49.7 -49.7,-49.7 H 127.3 c -27.4,0 -49.7,22.3 -49.7,49.7 v 326.8 h 836.1 z"
         fill="#e7e2d3"
         id="path2" /><path
         d="M 127.3,781.7 H 864 c 27.4,0 49.7,-22.3 49.7,-49.7 V 481 H 77.5 v 251 c 0,27.4 22.3,49.7 49.8,49.7 z"
         fill="#4c4b4c"
         id="path3" /><path
         d="M 864,795.3 H 127.3 C 92.4,795.3 64,766.9 64,732 V 235.6 c 0,-34.9 28.4,-63.3 63.3,-63.3 H 864 c 34.9,0 63.3,28.4 63.3,63.3 V 732 c -0.1,34.9 -28.4,63.3 -63.3,63.3 z M 127.3,199.4 c -19.9,0 -36.2,16.2 -36.2,36.2 V 732 c 0,19.9 16.2,36.2 36.2,36.2 H 864 c 19.9,0 36.2,-16.2 36.2,-36.2 V 235.6 c 0,-19.9 -16.2,-36.2 -36.2,-36.2 z"
         fill="#3e3a39"
         id="path4" /><path
         d="m 495.6,459.9 m -187.6,0 a 187.6,187.6 0 1 0 375.2,0 187.6,187.6 0 1 0 -375.2,0 z"
         fill="#e7e2d3"
         id="path5" /><path
         d="M 495.6,655.1 C 388,655.1 300.5,567.6 300.5,460 c 0,-107.6 87.5,-195.1 195.1,-195.1 107.6,0 195.1,87.5 195.1,195.1 0,107.5 -87.5,195.1 -195.1,195.1 z m 0,-375.2 c -99.3,0 -180.1,80.8 -180.1,180.1 0,99.3 80.8,180 180.1,180 99.3,0 180.1,-80.8 180.1,-180.1 0,-99.3 -80.8,-180 -180.1,-180 z"
         fill="#595757"
         id="path6" /><path
         d="m 495.6,459.9 m -159,0 a 159,159 0 1 0 318,0 159,159 0 1 0 -318,0 z"
         fill="#666765"
         id="path7" /><path
         d="m 495.6,459.9 m -97.8,0 a 97.8,97.8 0 1 0 195.6,0 97.8,97.8 0 1 0 -195.6,0 z"
         fill="#95d4eb"
         id="path8" /><path
         d="m 495.6,563.7 c -57.2,0 -103.8,-46.6 -103.8,-103.8 0,-57.2 46.6,-103.8 103.8,-103.8 57.2,0 103.8,46.6 103.8,103.8 0,57.2 -46.6,103.8 -103.8,103.8 z m 0,-195.5 c -50.6,0 -91.7,41.2 -91.7,91.7 0,50.5 41.2,91.7 91.7,91.7 50.6,0 91.7,-41.2 91.7,-91.7 0,-50.5 -41.1,-91.7 -91.7,-91.7 z"
         fill="#595757"
         id="path9" /><path
         d="m 539.1,419.9 m -26.7,0 a 26.7,26.7 0 1 0 53.4,0 26.7,26.7 0 1 0 -53.4,0 z"
         fill="#ffffff"
         id="path10" /><path
         d="m 351.5,701 h 281.1 c 11.4,0 21.7,5.3 28.4,13.5 9,-3.4 15.5,-12.2 15.5,-22.4 0,-13.2 -10.8,-24 -24,-24 H 334.6 c -13.2,0 -24,10.8 -24,24 0,9.4 5.5,17.5 13.3,21.5 6.8,-7.7 16.6,-12.6 27.6,-12.6 z"
         fill="#1a1a1a"
         id="path11" /><path
         d="m 669.1,737.2 c 0,-8.6 -3,-16.4 -8.1,-22.6 -2.6,1 -5.5,1.6 -8.5,1.6 H 334.6 c -3.8,0 -7.4,-0.9 -10.6,-2.5 -5.5,6.3 -8.9,14.6 -8.9,23.6 L 301,800.6 c 0,19.9 17.7,36.2 39.4,36.2 h 303.5 c 21.7,0 39.4,-16.3 39.4,-36.2 z"
         fill="#e7e2d3"
         id="path12" /><path
         d="m 652.5,716.1 c 3,0 5.8,-0.6 8.5,-1.6 C 654.3,706.3 644.1,701 632.6,701 H 351.5 c -11,0 -20.8,4.9 -27.5,12.6 3.2,1.6 6.8,2.5 10.6,2.5 z"
         fill="#717071"
         id="path13" /><path
         d="m 792.4,413.5 m -33,0 a 33,33 0 1 0 66,0 33,33 0 1 0 -66,0 z"
         fill="#717071"
         id="path14" /><path
         d="m 792.4,449.4 c -19.8,0 -36,-16.1 -36,-36 0,-19.8 16.1,-36 36,-36 19.8,0 36,16.1 36,36 0,19.9 -16.1,36 -36,36 z m 0,-65.9 c -16.5,0 -30,13.4 -30,30 0,16.5 13.4,30 30,30 16.6,0 30,-13.4 30,-30 0,-16.6 -13.5,-30 -30,-30 z"
         fill="#595757"
         id="path15" /><path
         d="m 800.19389,406.23356 a 12.400003,9.3000021 55.105 1 0 15.25576,-10.64058 12.400003,9.3000021 55.105 1 0 -15.25576,10.64058 z"
         fill="#b4b4b5"
         id="path16" /><path
         d="m 173.4,413.5 m -33.1,0 a 33.1,33.1 0 1 0 66.2,0 33.1,33.1 0 1 0 -66.2,0 z"
         fill="#da8080"
         id="path17" /><path
         d="m 173.4,451.1 c -20.8,0 -37.7,-16.9 -37.7,-37.7 0,-20.8 16.9,-37.7 37.7,-37.7 20.8,0 37.7,16.9 37.7,37.7 0,20.8 -16.9,37.7 -37.7,37.7 z m 0,-66.3 c -15.8,0 -28.6,12.8 -28.6,28.6 0,15.8 12.8,28.6 28.6,28.6 15.8,0 28.6,-12.8 28.6,-28.6 0,-15.8 -12.8,-28.6 -28.6,-28.6 z"
         fill="#ffffff"
         id="path18" /><path
         d="m 212.6,336.3 h -78.4 c -2,0 -3.6,-1.6 -3.6,-3.6 V 285 c 0,-2 1.6,-3.6 3.6,-3.6 h 78.4 c 2,0 3.6,1.6 3.6,3.6 v 47.7 c 0,2 -1.6,3.6 -3.6,3.6 z"
         fill="#4c4b4c"
         id="path19" /><path
         d="m 822.5,336.3 h -52.4 c -1.7,0 -3,-1.4 -3,-3 v -52.4 c 0,-1.7 1.4,-3 3,-3 h 52.4 c 1.7,0 3,1.4 3,3 v 52.4 c 0,1.6 -1.3,3 -3,3 z"
         fill="#656767"
         id="path20" /><path
         d="m 816.4,339.3 h -40.2 c -6.7,0 -12.1,-5.4 -12.1,-12.1 V 287 c 0,-6.7 5.4,-12.1 12.1,-12.1 h 40.2 c 6.7,0 12.1,5.4 12.1,12.1 v 40.2 c 0.1,6.7 -5.4,12.1 -12.1,12.1 z m -40.2,-58.4 c -3.4,0 -6.1,2.7 -6.1,6.1 v 40.2 c 0,3.4 2.7,6.1 6.1,6.1 h 40.2 c 3.4,0 6.1,-2.7 6.1,-6.1 V 287 c 0,-3.4 -2.7,-6.1 -6.1,-6.1 z"
         fill="#3e3a39"
         id="path21" /></g></g></svg>
