<?xml version="1.0" encoding="UTF-8" standalone="no"?>
<!-- Created with Inkscape (http://www.inkscape.org/) -->

<svg
   width="30.1mm"
   height="23.75mm"
   viewBox="0 0 30.1 23.75"
   version="1.1"
   id="svg1"
   xml:space="preserve"
   inkscape:version="1.4.2 (f4327f4, 2025-05-13)"
   sodipodi:docname="Cam12.svg"
   xmlns:inkscape="http://www.inkscape.org/namespaces/inkscape"
   xmlns:sodipodi="http://sodipodi.sourceforge.net/DTD/sodipodi-0.dtd"
   xmlns="http://www.w3.org/2000/svg"
   xmlns:svg="http://www.w3.org/2000/svg"><sodipodi:namedview
     id="namedview1"
     pagecolor="#ffffff"
     bordercolor="#000000"
     borderopacity="0.25"
     inkscape:showpageshadow="2"
     inkscape:pageopacity="0.0"
     inkscape:pagecheckerboard="0"
     inkscape:deskcolor="#d1d1d1"
     inkscape:document-units="mm"
     inkscape:zoom="6.064927"
     inkscape:cx="81.946576"
     inkscape:cy="31.245224"
     inkscape:window-width="1920"
     inkscape:window-height="1111"
     inkscape:window-x="-9"
     inkscape:window-y="-9"
     inkscape:window-maximized="1"
     inkscape:current-layer="layer1" /><defs
     id="defs1" /><g
     inkscape:label="Layer 1"
     inkscape:groupmode="layer"
     id="layer1"><g
       id="g1"
       transform="scale(0.02319337)"><path
         d="M 287.52834,260.58125 330.37465,36.918154 a 12.126313,12.126313 0 0 1 11.85684,-9.970523 h 609.01036 a 12.126313,12.126313 0 0 1 11.85684,9.970523 L 1005.945,260.58125 Z"
         fill="#fdca89"
         id="path1" /><path
         d="M 939.11554,53.894992 973.33869,233.63389 H 320.13465 L 354.3578,53.894992 H 939.11554 M 951.51133,2.69e-4 H 342.23149 A 39.073674,39.073674 0 0 0 303.96624,31.798156 L 254.92204,287.52861 H 1038.5513 L 989.77658,31.798156 A 39.073674,39.073674 0 0 0 951.24185,2.69e-4 Z"
         fill="#5c2d51"
         id="path2" /><path
         d="M 26.947361,188.6318 H 1266.526 V 997.05264 H 26.947361 Z"
         fill="#9fdbad"
         id="path3" /><path
         d="m 1212.6313,215.57916 a 26.947361,26.947361 0 0 1 26.9473,26.94736 v 700.6314 a 26.947361,26.947361 0 0 1 -26.9473,26.94736 H 80.842084 A 26.947361,26.947361 0 0 1 53.894723,943.15792 V 242.52652 A 26.947361,26.947361 0 0 1 80.842084,215.57916 H 1212.6313 m 0,-53.89472 H 80.842084 A 80.842084,80.842084 0 0 0 0,242.52652 v 700.6314 A 80.842084,80.842084 0 0 0 80.842084,1024 H 1212.6313 a 80.842084,80.842084 0 0 0 80.842,-80.84208 v -700.6314 a 80.842084,80.842084 0 0 0 -80.842,-80.84208 z"
         fill="#5c2d51"
         id="path4" /><path
         d="M 646.73667,883.33477 A 290.49255,290.49255 0 1 1 937.22923,592.84222 291.0315,291.0315 0 0 1 646.73667,883.33477 Z"
         fill="#ffffff"
         id="path5" /><path
         d="M 646.73667,329.29703 A 263.54519,263.54519 0 1 1 383.19148,592.84222 263.81467,263.81467 0 0 1 646.73667,329.29703 m 0,-53.89473 A 317.43992,317.43992 0 1 0 964.17659,592.84222 317.43992,317.43992 0 0 0 646.73667,275.4023 Z"
         fill="#5c2d51"
         id="path6" /><path
         d="m 646.73667,592.84222 m -120.18523,0 a 120.18523,120.18523 0 1 0 240.37046,0 120.18523,120.18523 0 1 0 -240.37046,0 z"
         fill="#9fdbad"
         id="path7" /><path
         d="m 646.73667,499.60435 a 93.23787,93.23787 0 1 1 -93.23787,93.23787 93.23787,93.23787 0 0 1 93.23787,-93.23787 m 0,-53.89472 a 147.13259,147.13259 0 1 0 147.1326,147.13259 147.13259,147.13259 0 0 0 -147.1326,-147.13259 z"
         fill="#5c2d51"
         id="path8" /><path
         d="m 1007.2924,280.79177 h 169.4989 v 88.9263 h -169.4989 z"
         fill="#f05071"
         id="path9" /><path
         d="m 1149.8439,307.73914 v 35.03157 h -115.6042 v -35.03157 h 115.6042 m 4.3116,-53.89473 h -123.9579 a 49.583145,49.583145 0 0 0 -49.58312,49.58315 v 43.38525 a 49.583145,49.583145 0 0 0 49.58312,49.58314 h 123.9579 a 49.583145,49.583145 0 0 0 49.5831,-49.58314 v -43.38525 a 49.583145,49.583145 0 0 0 -49.5831,-49.58315 z"
         fill="#5c2d51"
         id="path10" /></g></g></svg>
