<?xml version="1.0" encoding="UTF-8" standalone="no"?>
<!-- Created with Inkscape (http://www.inkscape.org/) -->

<svg
   width="30.200001mm"
   height="24.5mm"
   viewBox="0 0 30.2 24.499999"
   version="1.1"
   id="svg1"
   xml:space="preserve"
   inkscape:version="1.4.2 (f4327f4, 2025-05-13)"
   sodipodi:docname="Cam21.svg"
   xmlns:inkscape="http://www.inkscape.org/namespaces/inkscape"
   xmlns:sodipodi="http://sodipodi.sourceforge.net/DTD/sodipodi-0.dtd"
   xmlns="http://www.w3.org/2000/svg"
   xmlns:svg="http://www.w3.org/2000/svg"><sodipodi:namedview
     id="namedview1"
     pagecolor="#ffffff"
     bordercolor="#000000"
     borderopacity="0.25"
     inkscape:showpageshadow="2"
     inkscape:pageopacity="0.0"
     inkscape:pagecheckerboard="0"
     inkscape:deskcolor="#d1d1d1"
     inkscape:document-units="mm"
     inkscape:zoom="3.0324635"
     inkscape:cx="132.56549"
     inkscape:cy="39.07714"
     inkscape:window-width="1920"
     inkscape:window-height="1111"
     inkscape:window-x="-9"
     inkscape:window-y="-9"
     inkscape:window-maximized="1"
     inkscape:current-layer="layer1" /><defs
     id="defs1" /><g
     inkscape:label="Layer 1"
     inkscape:groupmode="layer"
     id="layer1"><g
       style="fill:#000000"
       id="g1"
       transform="matrix(0.07894737,0,0,0.07894737,0,-2.7651316)"><g
         id="g5">
	<g
   id="g4">
		<g
   id="g3">
			<path
   d="M 370,35.025 H 10 c -5.522,0 -10,4.477 -10,10 v 289.949 c 0,5.522 4.478,10 10,10 h 360 c 5.522,0 10,-4.478 10,-10 V 45.025 c 0,-5.523 -4.478,-10 -10,-10 z M 342.285,307.26 H 37.715 V 72.74 h 304.57 z"
   id="path1" />
			<path
   d="m 75.555,283.303 h 228.891 c 5.121,0 9.271,-4.151 9.271,-9.272 v -53.155 c 0,-2.42 -0.943,-4.743 -2.637,-6.476 l -25.474,-26.114 c -3.475,-3.559 -9.133,-3.745 -12.83,-0.425 l -48.028,43.106 -82.928,-75.259 c -3.35,-3.038 -8.398,-3.219 -11.955,-0.428 -11.679,9.165 -37.859,29.708 -60.033,47.094 -2.241,1.758 -3.551,4.448 -3.551,7.297 v 64.358 c 10e-4,5.121 4.153,9.274 9.274,9.274 z"
   id="path2" />
			<path
   d="m 227.602,197.822 c 11.483,0 20.826,-9.343 20.826,-20.825 0,-11.483 -9.343,-20.825 -20.826,-20.825 -11.48,0 -20.823,9.342 -20.823,20.825 -0.002,11.482 9.34,20.825 20.823,20.825 z"
   id="path3" />
		</g>
	</g>
</g></g></g></svg>
