<?xml version="1.0" encoding="UTF-8" standalone="no"?>
<!-- Created with Inkscape (http://www.inkscape.org/) -->

<svg
   width="30.200001mm"
   height="23.5mm"
   viewBox="0 0 30.200001 23.5"
   version="1.1"
   id="svg1"
   xml:space="preserve"
   inkscape:version="1.4.2 (f4327f4, 2025-05-13)"
   sodipodi:docname="Cam3.svg"
   xmlns:inkscape="http://www.inkscape.org/namespaces/inkscape"
   xmlns:sodipodi="http://sodipodi.sourceforge.net/DTD/sodipodi-0.dtd"
   xmlns="http://www.w3.org/2000/svg"
   xmlns:svg="http://www.w3.org/2000/svg"><sodipodi:namedview
     id="namedview1"
     pagecolor="#ffffff"
     bordercolor="#000000"
     borderopacity="0.25"
     inkscape:showpageshadow="2"
     inkscape:pageopacity="0.0"
     inkscape:pagecheckerboard="0"
     inkscape:deskcolor="#d1d1d1"
     inkscape:document-units="mm"
     inkscape:zoom="4.288551"
     inkscape:cx="65.756476"
     inkscape:cy="75.666583"
     inkscape:window-width="1920"
     inkscape:window-height="1111"
     inkscape:window-x="-9"
     inkscape:window-y="-9"
     inkscape:window-maximized="1"
     inkscape:current-layer="layer1" /><defs
     id="defs1"><style
       id="style1">.b{fill:none;stroke:#000000;stroke-linecap:round;stroke-linejoin:round;}</style></defs><g
     inkscape:label="Layer 1"
     inkscape:groupmode="layer"
     id="layer1"><g
       id="g1"
       transform="matrix(0.75,0,0,0.75,-2.874276,-6.0476683)"><path
         class="b"
         d="m 19.83,8.77 -2.77,2.84 H 6.29 c -0.9886,0 -1.79,0.8014 -1.79,1.79 v 23.22 c 0,0.9902 0.7998,1.7945 1.79,1.8 h 35.42 c 0.9902,-0.0055 1.79,-0.8098 1.79,-1.8 V 13.4 c 0,-0.9886 -0.8014,-1.79 -1.79,-1.79 H 30.94 L 28.17,8.77 Z m 18.9162,5.58 c 1.1645,0 2.1086,0.8954 2.1086,2 0,1.1046 -0.944,2 -2.1086,2 -1.1584,-0.1133 -1.9995,-1.1063 -1.8801,-2.2051 0.1024,-0.9423 0.8878,-1.6873 1.8801,-1.7949 z"
         id="path1" /><g
         id="g7"><circle
           class="b"
           cx="24"
           cy="26.223101"
           r="8.5068998"
           id="circle1" /><g
           id="g6"><polygon
             class="b"
             points="26.4543,21.9723 21.5457,21.9723 19.0914,26.2231 21.5457,30.4739 26.4543,30.4739 28.9086,26.2231 "
             id="polygon1" /><line
             class="b"
             x1="28.9086"
             y1="26.223101"
             x2="31.369301"
             y2="30.485201"
             id="line1" /><line
             class="b"
             x1="16.637199"
             y1="21.9723"
             x2="19.0914"
             y2="26.223101"
             id="line2" /><line
             class="b"
             x1="24"
             y1="17.716299"
             x2="21.5457"
             y2="21.9722"
             id="line3" /><line
             class="b"
             x1="26.4543"
             y1="30.4741"
             x2="24"
             y2="34.73"
             id="line4" /><line
             class="b"
             x1="21.5457"
             y1="30.4741"
             x2="16.6304"
             y2="30.4741"
             id="line5" /><line
             class="b"
             x1="26.4543"
             y1="21.9722"
             x2="31.369301"
             y2="21.9722"
             id="line6" /></g></g></g></g></svg>
