<?xml version="1.0" encoding="UTF-8" standalone="no"?>
<!-- Created with Inkscape (http://www.inkscape.org/) -->

<svg
   width="30.200001mm"
   height="28mm"
   viewBox="0 0 30.200001 28"
   version="1.1"
   id="svg1"
   xml:space="preserve"
   inkscape:version="1.4.2 (f4327f4, 2025-05-13)"
   sodipodi:docname="Cam6.svg"
   xmlns:inkscape="http://www.inkscape.org/namespaces/inkscape"
   xmlns:sodipodi="http://sodipodi.sourceforge.net/DTD/sodipodi-0.dtd"
   xmlns="http://www.w3.org/2000/svg"
   xmlns:svg="http://www.w3.org/2000/svg"><sodipodi:namedview
     id="namedview1"
     pagecolor="#ffffff"
     bordercolor="#000000"
     borderopacity="0.25"
     inkscape:showpageshadow="2"
     inkscape:pageopacity="0.0"
     inkscape:pagecheckerboard="0"
     inkscape:deskcolor="#d1d1d1"
     inkscape:document-units="mm"
     inkscape:zoom="3.0324635"
     inkscape:cx="118.71536"
     inkscape:cy="119.21001"
     inkscape:window-width="1920"
     inkscape:window-height="1111"
     inkscape:window-x="-9"
     inkscape:window-y="-9"
     inkscape:window-maximized="1"
     inkscape:current-layer="layer1" /><defs
     id="defs1" /><g
     inkscape:label="Layer 1"
     inkscape:groupmode="layer"
     id="layer1"><g
       id="g1"
       transform="matrix(0.03484321,0,0,0.03484321,-1.8825386,-3.2043977)"><path
         d="m 845,166 -49,-13 49,-13 13,-48 13,48 48,13 -48,13 -13,49 z m 47,53 -18,-4 18,-5 5,-19 4,19 19,5 -19,4 -4,19 z"
         fill="#fdcd60"
         id="path1" /><path
         d="m 79,711 -20,-5 20,-5 5,-20 5,20 21,5 -21,5 -5,21 z m 69,151 -33,-8 33,-7 7,-33 8,33 33,7 -33,8 -8,33 z"
         fill="#fdcd60"
         id="path2" /><path
         d="m 143,169 m -9,0 a 9,9 0 1 0 18,0 9,9 0 1 0 -18,0 z"
         fill="#5546cb"
         id="path3" /><path
         d="m 889,854 a 25,25 0 1 1 25,-25 25,25 0 0 1 -25,25 z m 0,-36 a 10,10 0 1 0 10,10 10,10 0 0 0 -10,-10 z"
         fill="#5546cb"
         id="path4" /><path
         d="m 166,400 v 347 a 31,31 0 0 0 31,31 h 629 a 31,31 0 0 0 31,-31 V 400 Z m 362,358 c -92,0 -168,-75 -168,-168 0,-93 75,-168 168,-168 93,0 168,75 168,168 0,93 -76,168 -168,168 z M 858,380 V 317 A 31,31 0 0 0 827,286 H 198 a 31,31 0 0 0 -31,31 v 63 z M 718,322 h 71 v 20 h -71 z"
         fill="#fdcd60"
         id="path5" /><path
         d="M 826,266 H 786 L 771,207 H 653 l -15,59 H 198 a 51,51 0 0 0 -51,51 v 430 a 51,51 0 0 0 51,51 h 628 a 51,51 0 0 0 51,-51 V 317 A 51,51 0 0 0 826,266 Z M 669,227 h 86 l 10,37 H 660 Z m -471,59 h 628 a 31,31 0 0 1 31,31 v 63 H 166 v -63 a 31,31 0 0 1 32,-31 z M 826,778 H 198 A 31,31 0 0 1 167,747 V 400 h 691 v 347 a 31,31 0 0 1 -32,31 z"
         fill="#5546cb"
         id="path6" /><path
         d="m 528,443 c -81,0 -148,66 -148,148 0,82 66,148 148,148 82,0 148,-66 148,-148 0,-82 -67,-148 -148,-148 z m 0,264 A 116,116 0 1 1 644,590 116,116 0 0 1 528,706 Z"
         fill="#ffffff"
         id="path7" /><path
         d="m 528,423 c -92,0 -168,75 -168,168 0,93 75,168 168,168 93,0 168,-75 168,-168 0,-93 -76,-168 -168,-168 z m 0,315 c -81,0 -148,-66 -148,-148 0,-82 66,-148 148,-148 82,0 148,66 148,148 0,82 -67,148 -148,148 z"
         fill="#5546cb"
         id="path8" /><path
         d="m 528,494 a 96,96 0 1 0 96,96 96,96 0 0 0 -96,-96 z m 43,81 a 18,18 0 1 1 18,-18 18,18 0 0 1 -18,18 z"
         fill="#ff8859"
         id="path9" /><path
         d="M 528,474 A 116,116 0 1 0 644,590 116,116 0 0 0 528,474 Z m 0,212 a 96,96 0 1 1 96,-96 96,96 0 0 1 -96,96 z"
         fill="#5546cb"
         id="path10" /><path
         d="m 571,558 m -18,0 a 18,18 0 1 0 36,0 18,18 0 1 0 -36,0 z"
         fill="#ffffff"
         id="path11" /><path
         d="m 755,227 h -86 l -9,37 h 105 z"
         fill="#afbcf3"
         id="path12" /><path
         d="m 718,322 h 71 v 20 h -71 z"
         fill="#5546cb"
         id="path13" /></g></g></svg>
