<?xml version="1.0" encoding="UTF-8" standalone="no"?>
<!-- Created with Inkscape (http://www.inkscape.org/) -->

<svg
   width="30.200001mm"
   height="24.4mm"
   viewBox="0 0 30.200001 24.399999"
   version="1.1"
   id="svg1"
   xml:space="preserve"
   inkscape:version="1.4.2 (f4327f4, 2025-05-13)"
   sodipodi:docname="Cam9.svg"
   xmlns:inkscape="http://www.inkscape.org/namespaces/inkscape"
   xmlns:sodipodi="http://sodipodi.sourceforge.net/DTD/sodipodi-0.dtd"
   xmlns="http://www.w3.org/2000/svg"
   xmlns:svg="http://www.w3.org/2000/svg"><sodipodi:namedview
     id="namedview1"
     pagecolor="#ffffff"
     bordercolor="#000000"
     borderopacity="0.25"
     inkscape:showpageshadow="2"
     inkscape:pageopacity="0.0"
     inkscape:pagecheckerboard="0"
     inkscape:deskcolor="#d1d1d1"
     inkscape:document-units="mm"
     inkscape:zoom="4.288551"
     inkscape:cx="48.734409"
     inkscape:cy="88.02507"
     inkscape:window-width="1920"
     inkscape:window-height="1111"
     inkscape:window-x="-9"
     inkscape:window-y="-9"
     inkscape:window-maximized="1"
     inkscape:current-layer="layer1" /><defs
     id="defs1" /><g
     inkscape:label="Layer 1"
     inkscape:groupmode="layer"
     id="layer1"><g
       style="fill:#000000"
       id="g1"
       transform="matrix(1.3636364,0,0,1.3636364,-6.818182,-9.6300003)"><path
         d="m 16,12.906 a 4.47,4.47 0 0 0 0,8.938 4.47,4.47 0 0 0 4.469,-4.469 A 4.47,4.47 0 0 0 16,12.906 Z m 0,7.063 A 2.5770002,2.5770002 0 1 1 15.998,14.815 2.5770002,2.5770002 0 0 1 16,19.969 Z"
         id="path1" /><path
         d="m 25.625,9.812 h -4.812 l -2.062,-2.75 h -5.5 l -2.062,2.75 H 6.375 C 5.618,9.812 5,10.43 5,11.188 v 12.375 c 0,0.756 0.618,1.375 1.375,1.375 h 19.25 C 26.382,24.938 27,24.321 27,23.563 V 11.188 C 27,10.43 26.382,9.812 25.625,9.812 Z M 16,23.477 A 6.103,6.103 0 1 1 16.001,11.272 6.103,6.103 0 0 1 16,23.477 Z m 9.625,-10.399 h -2.75 v -1.375 h 2.75 z"
         id="path2" /></g></g></svg>
